<svg xmlns="http://www.w3.org/2000/svg" xmlns:xlink="http://www.w3.org/1999/xlink" viewBox="0 0 867.82 577.32"><defs><style>.cls-1{fill:url(#Sfumatura_senza_nome_2);}.cls-2{fill:#3773b8;}.cls-3{fill:#060606;opacity:0.2;isolation:isolate;}.cls-4{fill:#3f3d56;}.cls-5{fill:#fff;}</style><linearGradient id="Sfumatura_senza_nome_2" x1="433.91" x2="433.91" y2="577.32" gradientUnits="userSpaceOnUse"><stop offset="0" stop-color="#808181" stop-opacity="0.25"/><stop offset="0.54" stop-color="#808181" stop-opacity="0.12"/><stop offset="1" stop-color="#808181" stop-opacity="0.1"/></linearGradient></defs><title>Risorsa 6</title><g id="Livello_2" data-name="Livello 2"><g id="Livello_2-2" data-name="Livello 2"><path class="cls-1" d="M865.45,469.05l-.65-1.81C803.7,296.5,770.23,91.3,768.43,80.12l.43-.17S708.7,12.2,643.67,0c0,0-38.2,12.2-78.86,40.66-10,7-19.35,15.08-28.62,23.24S518,80.05,508.41,87.43a162.84,162.84,0,0,1-24.29,15.78,112.71,112.71,0,0,1-50.17,13c-22.87-.61-41.26-7.38-57.48-17.12h0A183.63,183.63,0,0,1,358.1,86.36h0c-10.23-8-19.84-16.74-29.55-25.24a301.62,301.62,0,0,0-25.47-20.46C262.43,12.2,224.22,0,224.22,0,159.19,12.2,99,80,99,80l.39.15C98,89,64.48,295.65,3,467.4l-3,8.33c6.55,97.58,24.55,101.59,24.55,101.59l392.92-.16H847s15.25-4,20.79-101.59C867,473.4,866.24,471.23,865.45,469.05ZM199.09,152.55c.79-6.69,1.27-12,1.55-15.72a363.17,363.17,0,0,1,74.92,81,407.28,407.28,0,0,1,24.31,40.73v0q3,5.67,5.74,11.35,7.63,15.75,13.92,31.68c24.36,61.51,34.44,123.84,38.19,173.62l-292.92.41C167.53,340.85,192.93,204.63,199.09,152.55Zm311.08,322.7c3.75-49.78,13.83-112.12,38.2-173.63q6.3-15.92,13.93-31.68,5.85-12.09,12.56-24a400.22,400.22,0,0,1,22.71-35.64,361.22,361.22,0,0,1,69.62-73.43c.29,3.71.76,8.94,1.54,15.49,6.16,52.09,31.56,188.33,134.31,323.14Z"/><path class="cls-2" d="M855.36,470.21l-7.48,39-8.68,45.25.09-2.46-44.22-78.43-2.62-3.42C692.65,339.21,668,206.89,662,156.29c-.76-6.36-1.21-11.44-1.49-15-.32-4.19-.39-6.42-.39-6.42l4.47-35.4,94.17-13.79s0,.16.08.47c1.75,10.86,34.26,210.18,93.6,376l.64,1.75Q854.21,467.05,855.36,470.21Z"/><path class="cls-3" d="M855.36,470.21l-4.88,40.61-2.6-1.61-47.8-29.45-7.33-9.61h0l-8.94-11.71,65.83-4,2.8,7.72.64,1.75Q854.21,467.05,855.36,470.21Z"/><polygon class="cls-3" points="661.99 156.29 660.11 134.82 664.67 103.11 758.75 85.64 758.55 102.35 661.99 156.29"/><path class="cls-2" d="M207.7,135v.1c0,.46-.1,2.55-.37,6.11s-.73,8.77-1.5,15.26c-6,50.59-30.65,182.9-130.44,313.83-.87,1.15-1.76,2.3-2.64,3.45L28.53,552.16l.1,2.45-8.69-45.24-7.49-39,2.93-8.09C75.08,295.45,107.63,94.76,109,86.09c0-.2,0-.3,0-.3l94.17,13.79Z"/><polygon class="cls-3" points="84.02 458.6 75.09 470.28 67.73 479.92 19.94 509.37 17.33 510.97 12.45 470.37 15.38 462.27 18.18 454.55 84.02 458.6"/><polygon class="cls-3" points="205.83 156.45 207.7 134.97 203.15 103.27 109.07 85.79 109.27 102.51 205.83 156.45"/><path class="cls-2" d="M759.25,85.94l-.42.16-.08,0c-38.09,14.35-70.51,33.14-98.09,55a1,1,0,0,0-.16.12,350.87,350.87,0,0,0-67.63,71.33,387.71,387.71,0,0,0-22,34.62q-6.52,11.52-12.21,23.29-7.43,15.28-13.52,30.77C521.41,361,511.62,421.55,508,469.9c-.92,12.26-1.45,23.74-1.7,34.21-.3,12.1-.24,22.87,0,32,.52,20.6,1.9,32.78,1.9,32.78H359.7s.24-2.14.56-6.15a615.43,615.43,0,0,0,0-87.75c-.11-1.68-.23-3.38-.36-5.09-3.63-48.36-13.42-108.89-37.08-168.64q-6.13-15.47-13.53-30.77-2.7-5.52-5.57-11v0a397.77,397.77,0,0,0-23.62-39.57,352.47,352.47,0,0,0-72.77-78.68l-.16-.13c-27.58-21.83-60-40.61-98.1-54.95l0,0-.38-.15s58.43-65.8,121.59-77.66c0,0,37.12,11.86,76.6,39.5a291.34,291.34,0,0,1,24.73,19.87c9.44,8.25,18.77,16.77,28.7,24.51h0a177,177,0,0,0,17.82,12.39h0c15.75,9.47,33.61,16,55.82,16.64a109.46,109.46,0,0,0,48.74-12.66,158.14,158.14,0,0,0,23.59-15.32c9.35-7.18,18.13-15.07,27-22.86,9-7.93,18.08-15.76,27.81-22.57,39.49-27.64,76.6-39.5,76.6-39.5C700.81,20.14,759.25,85.94,759.25,85.94Z"/><rect class="cls-3" x="360.26" y="469.89" width="146.03" height="99"/><path class="cls-2" d="M855.36,470.21C850,565,835.18,568.88,835.18,568.88H444l62.29-96.36,1.7-2.62,284.46.25h.3Z"/><path class="cls-2" d="M417.94,568.88,36.3,569s-17.49-3.9-23.85-98.67l62.64-.09h.3l284.51-.39h.36l57.67,99Z"/><circle class="cls-4" cx="433.95" cy="377.74" r="37.16"/><circle class="cls-4" cx="720.34" cy="265.5" r="6.05"/><circle class="cls-4" cx="783.8" cy="297.02" r="6.05"/><circle class="cls-4" cx="763.79" cy="345.9" r="6.05"/><circle class="cls-4" cx="792.22" cy="345.9" r="6.05"/><circle class="cls-4" cx="795.91" cy="371.69" r="6.05"/><circle class="cls-4" cx="795.91" cy="427.78" r="6.05"/><circle class="cls-4" cx="813.53" cy="427.78" r="6.05"/><circle class="cls-4" cx="739.03" cy="307.64" r="6.05"/><circle class="cls-4" cx="742.97" cy="169.8" r="6.05"/><circle class="cls-4" cx="765.3" cy="259.45" r="6.05"/><circle class="cls-4" cx="739.03" cy="226.98" r="6.05"/><circle class="cls-4" cx="705.67" cy="175.86" r="6.05"/><circle class="cls-4" cx="140.22" cy="227.63" r="6.05"/><circle class="cls-4" cx="105.3" cy="310.65" r="6.05"/><circle class="cls-4" cx="75.28" cy="337.39" r="6.05"/><circle class="cls-4" cx="126.43" cy="337.39" r="6.05"/><circle class="cls-4" cx="94.26" cy="387.58" r="6.05"/><circle class="cls-4" cx="71.85" cy="425.28" r="6.05"/><circle class="cls-4" cx="152.33" cy="268.16" r="6.05"/><circle class="cls-4" cx="176.86" cy="179.84" r="6.05"/><circle class="cls-4" cx="114.7" cy="264.86" r="6.05"/><circle class="cls-4" cx="100.32" cy="218.53" r="6.05"/><circle class="cls-4" cx="117.41" cy="158.31" r="6.05"/><path class="cls-3" d="M592.87,212.57a387.71,387.71,0,0,0-22,34.62q-6.52,11.52-12.21,23.29-7.43,15.28-13.52,30.77H322.82q-6.13-15.47-13.53-30.77-2.7-5.52-5.57-11v0a397.77,397.77,0,0,0-23.62-39.57L331.56,67.65c9.44,8.25,18.77,16.77,28.7,24.51h0a177,177,0,0,0,17.82,12.39h0c15.75,9.47,33.61,16,55.82,16.64a109.46,109.46,0,0,0,48.74-12.66,158.14,158.14,0,0,0,23.59-15.32c9.35-7.18,18.13-15.07,27-22.86Z"/><path class="cls-5" d="M490.65,181.67a9.22,9.22,0,0,0-.63-2.18l-.07-.21-.45-1.15c-.19-.45-.38-.89-.58-1.34s-.42-.92-.65-1.37-.45-.84-.71-1.25a6.37,6.37,0,0,0-.44-.62c-.16-.21-.34-.39-.51-.58a2.14,2.14,0,0,1-.13-.19l-.3-.44a10.16,10.16,0,0,0-.65-.82,11.68,11.68,0,0,0-1.35-1.28c-.71-.55-1.47-1.05-2.22-1.54s-1.61-1-2.38-1.48a16.85,16.85,0,0,0-2-1.17c-.69-.34-1.34-.77-2-1.12s-1.57-.71-2.37-1a13,13,0,0,0-3.24-.84,19.56,19.56,0,0,0-3-.22c-.63,0-1.27,0-1.9,0s-1.35,0-2,.09-1.57.19-2.35.3-1.62.23-2.43.37c-.65.11-1.29.28-1.94.39-.25.05-.52,0-.77.05a6.47,6.47,0,0,0-1.24.33,31.52,31.52,0,0,0-6.14,3.48,4.63,4.63,0,0,0-1.92,3.09,4,4,0,0,1-1.2,2.23c-.46.46-1,.88-1.41,1.36-1,1.06-1.93,2.15-2.89,3.23-.22.24-.34.27-.59.05L435.7,174l-.16-.12-.07.13c-.25-.27-.47-.57-.73-.8-1.31-1.18-2.65-2.33-4-3.51a22.12,22.12,0,0,0-2.34-1.85c-.81-.54-1.66-1-2.49-1.54a20.65,20.65,0,0,0-3.17-1.46,21,21,0,0,0-4.39-1.33c-1.19-.2-2.39-.3-3.59-.44a12.3,12.3,0,0,0-2.35,0c-.35,0-.7.12-1.05.14a10.38,10.38,0,0,0-2.54.42,2.92,2.92,0,0,1-1.41.08,9.77,9.77,0,0,0-3-.23,7,7,0,0,0-1.91.44,2.22,2.22,0,0,1-.39.12,9,9,0,0,0-2.79,1.18,1.62,1.62,0,0,0-.71.71s0,.12,0,.15a.25.25,0,0,0,.16.06A.34.34,0,0,0,399,166c.09,0,.18-.13.29,0a.15.15,0,0,0,.09,0l1.1-.35c.3-.09.61-.16.91-.24l0,0a1.29,1.29,0,0,1-.16.17,8.22,8.22,0,0,0-1.31,1.57,2.45,2.45,0,0,1-.8.8,25.28,25.28,0,0,0-3.51,2.57l-.86.78a.27.27,0,0,1-.15.09,1.24,1.24,0,0,0-.7.44c-.29.28-.57.57-.87.84a9.33,9.33,0,0,0-1.94,2.52c-.42.79-.82,1.59-1.22,2.4s-.68,1.37-1,2.06a2.4,2.4,0,0,0-.19.71c-.06.38-.21.74-.3,1.11a2.92,2.92,0,0,0-.12.83,7.43,7.43,0,0,0,.52,2.41,3.67,3.67,0,0,0,.77,1.32,2.81,2.81,0,0,1,.7,1.19c.18.73.4,1.46.6,2.18a27.65,27.65,0,0,0,1.77,4.55,16.25,16.25,0,0,0,2.71,3.87c.58.61,1.24,1.15,1.86,1.72a7.59,7.59,0,0,0,.75.65,21.55,21.55,0,0,0,1.82,1.16c.73.41,1.49.79,2.25,1.13,1.41.62,2.83,1.21,4.25,1.8.43.19.87.33,1.3.52.21.09.38.26.59.37a8.77,8.77,0,0,0,1.28.6,20.38,20.38,0,0,0,2.81,1,5,5,0,0,0,1.39.1,9.89,9.89,0,0,0,2.82-.75,6.79,6.79,0,0,1,1.21-.45,21.44,21.44,0,0,0,3.68-1.13,32.84,32.84,0,0,0,4-1.84,16.31,16.31,0,0,0,2.67-1.66c2.6-2.15,5.08-4.43,7.5-6.77,1.23-1.19,2.44-2.4,3.67-3.6a.1.1,0,0,1,.07,0c.21,0,.42-.06.59.14a2.37,2.37,0,0,0,.3.23c2.18,1.7,4.36,3.42,6.56,5.1a27.5,27.5,0,0,1,3.59,3.23,15.1,15.1,0,0,0,2.81,2.42c.42.28.85.57,1.29.82.74.42,1.49.82,2.25,1.21.36.18.76.29,1.11.48a20.17,20.17,0,0,0,3.86,1.64l1.07.31,0,0-2.67-1a.19.19,0,0,1,0-.07l.88.29a.52.52,0,0,0-.21-.13c-.62-.24-1.24-.45-1.85-.72a26.41,26.41,0,0,1-2.39-1.17c-1-.55-1.93-1.14-2.87-1.75a9.28,9.28,0,0,1-1.45-1.11c-.86-.85-1.67-1.76-2.5-2.65l-.21-.22a.48.48,0,0,1,.18.07c.72.47,1.44.94,2.15,1.42,1.4.92,2.79,1.85,4.2,2.76a22.21,22.21,0,0,1,2.16,1.47,10.19,10.19,0,0,0,2.17,1.37l1.24.58c.51.27,1,.56,1.53.82a4,4,0,0,0,.61.22l0-.07-.57-.39c.08,0,.1,0,.12,0l1.79.6s.07,0,.07,0,.08.11.14.13l.83.16a5.28,5.28,0,0,0,1,.21,23.26,23.26,0,0,0,4.93-.29,1.15,1.15,0,0,1,.26,0,4.16,4.16,0,0,0,.61,0,5.24,5.24,0,0,0,2.18-.64,7.06,7.06,0,0,0,1.66-1.26c.5-.56.93-1.17,1.38-1.76a1.52,1.52,0,0,1,.6-.52c.27-.12.53-.26.8-.4l.26-.08a1.31,1.31,0,0,0,.35-.12c.4-.26.81-.51,1.19-.81.58-.46,1.16-.94,1.71-1.44s1.24-1.18,1.86-1.78c.07-.06.12-.14.19-.21a2.59,2.59,0,0,1,.37-.37,7.84,7.84,0,0,0,1.37-1.06,6.25,6.25,0,0,0,1.88-3c.08-.35.15-.7.2-1.06a5.47,5.47,0,0,0,0-1.76c-.09-.53-.18-1.06-.28-1.59a3.7,3.7,0,0,1,.06-1.24s0-.07,0-.1a.34.34,0,0,1,.07.18c.06.35.1.71.19,1.06a.91.91,0,0,0,.28.4c.05.06.2.05.28,0s.06-.17,0-.24a3.14,3.14,0,0,1-.11-1.46c0-.24.09-.49.12-.74a6.2,6.2,0,0,1,.66-2.26,5,5,0,0,0,.23-.53,3.2,3.2,0,0,0,.1-.42A8.28,8.28,0,0,0,490.65,181.67Zm-97.29-7.43c-.1.17-.2.33-.28.5-.38.82-.76,1.63-1.11,2.45a12,12,0,0,0-.78,2.18l-1,4.93,0,.16h-.05l-.28-.76c0-.09,0-.19-.09-.28s-.05-.12-.1-.13c-.42-.12-.37-.5-.43-.79a5.81,5.81,0,0,1,.66-4,14.71,14.71,0,0,1,2.7-3.71c.19-.2.39-.37.59-.56a.58.58,0,0,0,.1-.12s0-.07,0-.08l.47-.46.05.05-.52.48C393.42,174.08,393.4,174.15,393.36,174.24Zm8.69,21.68c-.23-.19-.48-.37-.7-.57a12.82,12.82,0,0,1-3-3.57,13.94,13.94,0,0,1-1.5-3.84,1.28,1.28,0,0,1,0-.39c0-.16.14-.21.28-.13l.07.05c.41.35.83.69,1.22,1.06a3,3,0,0,1,.38.53,7.52,7.52,0,0,1,.79,1.84,14.46,14.46,0,0,0,1.26,2.88c.11.2.19.42.31.62.26.41.54.81.8,1.21l.18.27S402.06,195.9,402.05,195.92Zm14.79,9.25a8.61,8.61,0,0,1-2.75,1.18,3.87,3.87,0,0,1-2.13-.16c-1-.37-1.92-.78-2.87-1.19-.31-.13-.61-.28-.91-.43v0c.75.1,1.5.22,2.25.31a23.66,23.66,0,0,0,4.29.16l2-.14a1.59,1.59,0,0,1,.37.06A2,2,0,0,1,416.84,205.17ZM434.89,185a.48.48,0,0,1-.15.27,4.76,4.76,0,0,0-1,1.07,73.34,73.34,0,0,1-6.51,7,31.05,31.05,0,0,1-5,3.83,13.59,13.59,0,0,1-5.37,1.78c-1.17.17-2.36.22-3.39.3l-2.31-.16c-.4,0-.8,0-1.19,0a9.53,9.53,0,0,1-3.09-.6,11.73,11.73,0,0,1-3.5-2,4.16,4.16,0,0,1-.7-.69c-.5-.77-1-1.57-1.42-2.36a7.31,7.31,0,0,1-.84-2.27,8.14,8.14,0,0,0-2.13-4.08,7.93,7.93,0,0,1-.82-1.17c-.18-.28-.33-.59-.49-.88a2.79,2.79,0,0,1-.36-1.3,8.73,8.73,0,0,1,.26-2.33,31.36,31.36,0,0,1,1.34-4.46,11.78,11.78,0,0,1,2.15-3.48,7.07,7.07,0,0,1,1.14-1,14.12,14.12,0,0,1,1.5-1,6.85,6.85,0,0,1,1.7-.76,5.73,5.73,0,0,0,.7-.23,25.21,25.21,0,0,1,4-1.15c.46-.09.91-.23,1.37-.29a10.3,10.3,0,0,1,2.88.11c.64.1,1.29.16,1.92.27s1.33.28,2,.43a4.56,4.56,0,0,0,.64.14,5.46,5.46,0,0,1,2.29.8c.92.53,1.81,1.13,2.71,1.71.51.33,1,.66,1.49,1s.83.73,1.24,1.1c.58.55,1.16,1.09,1.73,1.65,1.26,1.2,2.48,2.45,3.62,3.77.48.57,1,1.14,1.46,1.7.14.16.33.28.49.43a3,3,0,0,1,.31.31c.37.51.76,1,1.1,1.53A1.26,1.26,0,0,1,434.89,185Zm41.7-12.61a1.49,1.49,0,0,1,.2.15c.84.79,1.69,1.57,2.46,2.44a15.14,15.14,0,0,1,1.15,1.39,14.1,14.1,0,0,1,1.46,2.87c.14.32.29.64.42,1a4,4,0,0,1,.23.74.41.41,0,0,1-.09.33.38.38,0,0,1-.32,0,7.7,7.7,0,0,1-.76-.63,6.81,6.81,0,0,1-1.67-2.3c-.16-.33-.24-.71-.38-1.07a19.79,19.79,0,0,0-2.42-4.36c-.11-.14-.21-.29-.32-.44Zm-29.19-2.78c.13-.24.25-.49.39-.72v0a2.09,2.09,0,0,1,.44-.54,5.08,5.08,0,0,1,.53-.38l.75-.47.7-.43.72-.4.74-.37.76-.34.39-.15.22-.08a.8.8,0,0,1,.2-.07,2.47,2.47,0,0,1,.29-.1h.08l-.39.27c-.87.61-1.75,1.21-2.62,1.83a4.75,4.75,0,0,0-.49.42c-.07.07-.16.13-.24.2l-.73.55c-.27.2-.53.39-.79.6l-1,.78a0,0,0,0,1,0,0h0s0-.14,0-.17A.77.77,0,0,1,447.4,169.59Zm28,34.95a2.81,2.81,0,0,1-1.59,1.18c-.47.11-.95.18-1.42.29s-.77.21-1.15.32a13.43,13.43,0,0,1-4.42.46,1.53,1.53,0,0,1-.36-.07v-.06l.21,0a5.66,5.66,0,0,0,1.95-.28c.14,0,.29,0,.44-.08s.12-.07.18-.11-.12-.12-.19-.12a2.56,2.56,0,0,0-.62,0,3.38,3.38,0,0,1-1.48.15l-1.56-.35a.16.16,0,0,1-.11-.09l.66.05a23.9,23.9,0,0,0,4.23-.06,26.32,26.32,0,0,0,4.72-1.19l.55-.16A.34.34,0,0,1,475.36,204.54Zm7.35-18s0,0,0,0a13,13,0,0,1-.38,2.05,25.42,25.42,0,0,1-1.45,4.89,17.53,17.53,0,0,1-1.36,2.66,5.65,5.65,0,0,1-1.06,1.07,6.48,6.48,0,0,1-1.57,1,12.51,12.51,0,0,1-3.2,1.16,16,16,0,0,1-4.32.1c-.76-.09-1.53-.14-2.3-.25a8.34,8.34,0,0,1-2.82-1,67.05,67.05,0,0,1-8.54-5.49c-2.06-1.55-4.1-3.11-6.07-4.77-.23-.2-.48-.37-.71-.56l-3.52-3c-.21-.18-.39-.41-.59-.62s-.15-.12-.23-.19l.29-.36c1.4-1.52,2.79-3,4.19-4.55.83-.9,1.66-1.79,2.48-2.7.37-.41.67-.88,1-1.28.86-.9,1.74-1.78,2.61-2.67a5.17,5.17,0,0,1,1.13-.78,17.1,17.1,0,0,1,6.73-2.22,17.86,17.86,0,0,1,4.26-.1c.47,0,.95,0,1.42.06a8.91,8.91,0,0,1,3.15.65,10.85,10.85,0,0,1,3.36,2l.29.23a4,4,0,0,1,.71.88,20.35,20.35,0,0,1,1.88,3.22,7.27,7.27,0,0,1,.33,1,8.89,8.89,0,0,0,2.37,4.3,5.76,5.76,0,0,1,1,1.28c.15.26.31.52.45.77a4.92,4.92,0,0,1,.52,1.71A3.1,3.1,0,0,1,482.71,186.55Zm4.78,6.56a7.56,7.56,0,0,1-1.15,2.08,1.85,1.85,0,0,1-.14.14l-.08,0a1.35,1.35,0,0,1,0-.29c.3-.78.61-1.55.9-2.33.14-.38.25-.77.37-1.15l.08-.09c0,.16.06.27.08.39h0s.1.11.1.17A2.83,2.83,0,0,1,487.49,193.11Zm2.56-12.51c0,.22-.1.43-.14.65s-.06.46-.1.69a10.92,10.92,0,0,1-.27,1.13c-.09.34-.19.68-.28,1,0,0,0,.07,0,.11h-.05v-.66c0-.16,0-.32,0-.48a2.58,2.58,0,0,0,0-.48c-.05-.32-.1-.65-.16-1a5.07,5.07,0,0,1-.13-.87,2,2,0,0,0,0-.42c0-.14-.05-.28-.08-.42a7.06,7.06,0,0,0-.21-.79,28.68,28.68,0,0,0-2.3-4.81,10.08,10.08,0,0,0-.83-1.22c-.36-.44-.75-.86-1.13-1.29l-.27-.33,0,0,.08.05,1.92,1.83a3.51,3.51,0,0,1,.33.34,2.7,2.7,0,0,1,.25.4c.1.16.19.32.28.48.18.32.36.64.53,1,.33.6.64,1.21,1,1.82l.81,1.59c.12.24.25.47.38.71a3.86,3.86,0,0,1,.32.56A.94.94,0,0,1,490.05,180.6Z"/><path class="cls-5" d="M403.43,247a6.32,6.32,0,0,1-6.56,6.32h-5.06V240.66h5.11A6.3,6.3,0,0,1,403.43,247ZM402,247a5,5,0,0,0-5.08-5h-3.64v10h3.69A4.92,4.92,0,0,0,402,247Z"/><path class="cls-5" d="M410.47,248.92v4.39H409V249l-4.9-8.3h1.5l4.1,6.63,4.05-6.63h1.49Z"/><path class="cls-5" d="M418.78,240.66l7.6,10.29V240.66h1.42v12.65h-1.48L418.73,243v10.27h-1.45V240.66Z"/><path class="cls-5" d="M439.65,250.08h-6.89l-1.41,3.23h-1.54l5.68-12.65H437l5.66,12.65h-1.57Zm-.58-1.34-2.88-6.51-2.83,6.51Z"/><path class="cls-5" d="M446.43,240.66l4.63,9.18,4.61-9.18h1.77v12.65H456.1l0-10.52L451.47,252h-.87L446,242.79v10.52h-1.37V240.66Z"/><path class="cls-5" d="M462.74,240.66v12.65h-1.45V240.66Z"/><path class="cls-5" d="M472,241.94A5,5,0,1,0,472,252a5.55,5.55,0,0,0,3.75-1.52l.88,1a7,7,0,0,1-4.7,1.92,6.38,6.38,0,1,1,.05-12.75,6.84,6.84,0,0,1,4.63,1.85l-.86,1A5.43,5.43,0,0,0,472,241.94Z"/><path class="cls-5" d="M482.89,242c-1.62,0-2.69.65-2.69,1.74,0,3.29,7.12,1.57,7.11,6.17,0,2.09-1.87,3.45-4.58,3.45a7.21,7.21,0,0,1-4.84-1.94l.65-1.24a6.34,6.34,0,0,0,4.21,1.77c1.83,0,3-.74,3-2,0-3.38-7.11-1.59-7.11-6.13,0-2,1.75-3.26,4.38-3.26a7.45,7.45,0,0,1,4,1.18l-.62,1.28A6.64,6.64,0,0,0,482.89,242Z"/><path class="cls-5" d="M395.65,217.59v12h6.56v3.45H391.6V217.59Z"/><path class="cls-5" d="M414.43,230.34h-6.7l-1.08,2.74H402.5l6.65-15.49h4.15l6.5,15.49h-4.31Zm-1.19-3.09-2.13-5.53L409,227.25Z"/><path class="cls-5" d="M426.8,220.71c-1,0-1.61.35-1.61,1.06,0,2.56,8.15,1.1,8.15,6.67,0,3.16-2.78,4.77-6.23,4.77a11.64,11.64,0,0,1-7.13-2.47l1.57-3.16a9.86,9.86,0,0,0,5.61,2.34c1.19,0,1.94-.44,1.94-1.26,0-2.63-8.15-1-8.15-6.52,0-2.89,2.45-4.73,6.19-4.73a11.85,11.85,0,0,1,6.18,1.75l-1.52,3.2A12,12,0,0,0,426.8,220.71Z"/><path class="cls-5" d="M447.33,217.59v3.34h-4.64v12.15h-4V220.93h-4.6v-3.34Z"/><path class="cls-5" d="M453,217.59v15.49h-4V217.59Z"/><path class="cls-5" d="M459.57,217.59l7,9.32v-9.32h3.76v15.49h-3.54l-7-9.28v9.28H456V217.59Z"/><path class="cls-5" d="M483.64,225.17h3.49v6.1a12.42,12.42,0,0,1-6.45,2,7.93,7.93,0,0,1-8.29-7.91c0-4.51,3.65-7.87,8.55-7.87a10,10,0,0,1,6.37,2.3l-2.3,2.83a6.27,6.27,0,0,0-4.09-1.71,4.46,4.46,0,0,0,.05,8.91,6.4,6.4,0,0,0,2.67-.73Z"/></g></g></svg>