<svg xmlns="http://www.w3.org/2000/svg" xmlns:xlink="http://www.w3.org/1999/xlink" viewBox="0 0 625.62 912.61"><defs><style>.cls-1{fill:url(#Sfumatura_senza_nome_2);}.cls-2{fill:url(#Sfumatura_senza_nome_2-2);}.cls-3{fill:#3773b8;}.cls-4{fill:#060606;opacity:0.2;isolation:isolate;}.cls-5{fill:#fff;}</style><linearGradient id="Sfumatura_senza_nome_2" x1="379.3" y1="-8078.18" x2="379.3" y2="-7548.67" gradientTransform="matrix(0.98, -0.22, -0.22, -0.98, -1730.89, -6918.92)" gradientUnits="userSpaceOnUse"><stop offset="0" stop-color="#808181" stop-opacity="0.25"/><stop offset="0.54" stop-color="#808181" stop-opacity="0.12"/><stop offset="1" stop-color="#808181" stop-opacity="0.1"/></linearGradient><linearGradient id="Sfumatura_senza_nome_2-2" x1="-2.37" y1="422.77" x2="-2.37" y2="766.07" gradientTransform="translate(8.63 47.28) rotate(-12.73)" xlink:href="#Sfumatura_senza_nome_2"/></defs><title>Risorsa 7</title><g id="Livello_2" data-name="Livello 2"><g id="Livello_2-2" data-name="Livello 2"><path class="cls-1" d="M567.43,843.64,270.28,910.76a74.62,74.62,0,0,1-89.21-56.34h0L80.85,410.69l442.69-100L623.77,754.43A74.61,74.61,0,0,1,567.43,843.64Z"/><path class="cls-2" d="M175.1,795.05C102.31,811.5,26.18,749.74,5.33,657.42S26.67,476.63,99.47,460.19,248.39,505.5,269.24,597.81,247.88,778.62,175.1,795.05ZM106.35,490.63C49.76,503.41,17.6,575.26,34.66,650.8s77,126.57,133.56,113.78S256.93,680,239.87,604.45,163,477.83,106.34,490.61Z"/><path class="cls-3" d="M176.17,779.89c-70.43,15.91-143.53-41.18-163-127.24S35.25,483.71,105.67,467.8,249.2,509,268.64,595,246.57,764,176.17,779.89Zm-64.11-283.8C57.3,508.46,25.69,575.81,41.6,646.23S115,763.88,169.76,751.51s86.37-79.71,70.46-150.14S166.83,483.72,112.06,496.09Z"/><path class="cls-3" d="M92,414.16l423.13-95.58h0l95.09,421a74.6,74.6,0,0,1-56.33,89.21h0L276.28,891.5a74.6,74.6,0,0,1-89.21-56.33h0L92,414.15Z"/><path class="cls-4" d="M412.65,20.71c6.78,10.37,4.78,24.81-2.28,35s-18.2,16.86-29.6,21.83c-21.19,9.23-44.79,13.92-63.29,27.78s-29.62,42.07-15.37,60.26c16.24,20.76,48.49,12.72,74.6,15.62a81,81,0,0,1,60.86,40c5.41,9.59,8.85,20.79,7.16,31.69-2.88,17.84-18.44,30.55-33.45,40.6a469.27,469.27,0,0,1-189.54,73.66c-10.13,1.56-23.43,1-26.87-8.65a276.21,276.21,0,0,0,99.66-62.15c5.35-5.23,10.67-11,12.71-18.18,4.17-14.68-7.32-30-21.45-36s-29.89-5.18-45.15-5.1c-37.29.07-139.59-1.41-163-37.08-21.93-33.31,37.43-95.44,59.78-120.28,27.11-30.11,59-45.24,97.49-57.13C271.44,11.32,385.09-21,412.65,20.71Z"/><path class="cls-4" d="M213.35,831.14l-95.1-421-23.72,3.13,95.1,421a74.59,74.59,0,0,0,89.21,56.33h0l5.83-1.31A74.64,74.64,0,0,1,213.35,831.14Z"/><path class="cls-5" d="M449.91,537.15a19,19,0,0,0-2.25-4.1l-.24-.37c-.46-.71-.94-1.41-1.42-2.1s-1.15-1.63-1.75-2.43-1.28-1.65-1.95-2.45a28.92,28.92,0,0,0-2-2.18,14.58,14.58,0,0,0-1.16-1.06c-.41-.33-.86-.62-1.3-.92a3.55,3.55,0,0,1-.34-.33l-.8-.74a20.14,20.14,0,0,0-1.68-1.34,21.65,21.65,0,0,0-3.28-2c-1.67-.8-3.42-1.45-5.15-2.1s-3.65-1.18-5.44-1.87a33.45,33.45,0,0,0-4.56-1.43c-1.55-.37-3.05-.95-4.6-1.32-1.72-.41-3.47-.73-5.22-1a28.29,28.29,0,0,0-6.88-.22,43.88,43.88,0,0,0-6,.91c-1.27.28-2.55.54-3.81.86s-2.68.67-4,1.1c-1.54.5-3.06,1.08-4.58,1.65s-3.15,1.2-4.7,1.85c-1.25.52-2.46,1.14-3.7,1.66-.49.21-1.06.23-1.53.44a12.94,12.94,0,0,0-2.33,1.23,63.7,63.7,0,0,0-10.73,9.76,9.47,9.47,0,0,0-2.46,7.05,8.09,8.09,0,0,1-1.39,5c-.72,1.13-1.54,2.21-2.21,3.36-1.48,2.57-2.9,5.18-4.34,7.77-.32.6-.55.69-1.15.37l-10.66-5.69a3.18,3.18,0,0,0-.37-.18c0,.13-.05.21-.08.31-.63-.44-1.2-.93-1.84-1.29-3.16-1.76-6.35-3.47-9.51-5.23a41.7,41.7,0,0,0-5.52-2.64c-1.88-.72-3.8-1.31-5.7-2a60.34,60.34,0,0,0-16.4-2.17c-2.47.14-4.94.48-7.4.75a23.59,23.59,0,0,0-4.7,1.09c-.69.21-1.35.54-2.05.74a21.49,21.49,0,0,0-4.89,2,6.21,6.21,0,0,1-2.79.8,20.12,20.12,0,0,0-6.12.9,13.55,13.55,0,0,0-3.62,1.73,4.07,4.07,0,0,1-.73.42,18.7,18.7,0,0,0-5.06,3.63,3.31,3.31,0,0,0-1.09,1.74c0,.1,0,.26,0,.3a.43.43,0,0,0,.35.06c.1,0,.18-.14.27-.21s.3-.34.56-.2c0,0,.12,0,.18,0,.68-.4,1.35-.82,2-1.2s1.14-.6,1.71-.9l.08.07c-.08.14-.14.28-.23.41a17,17,0,0,0-1.93,3.74,5,5,0,0,1-1.24,2,50.77,50.77,0,0,0-5.85,6.74c-.46.65-.91,1.3-1.38,1.94a.67.67,0,0,1-.27.26,2.61,2.61,0,0,0-1.2,1.19c-.45.69-.89,1.4-1.36,2.09a19.86,19.86,0,0,0-2.75,5.92c-.49,1.77-.92,3.57-1.36,5.35q-.56,2.3-1.08,4.59a5.15,5.15,0,0,0-.06,1.52c0,.78-.1,1.57-.11,2.36a7,7,0,0,0,.13,1.71,15.56,15.56,0,0,0,2.14,4.6,7.48,7.48,0,0,0,2.15,2.3,5.65,5.65,0,0,1,1.94,2.06c.69,1.39,1.45,2.74,2.19,4.09A55.92,55.92,0,0,0,259,606.2a33.35,33.35,0,0,0,7.19,6.54c1.44,1,3,1.74,4.51,2.6a15.47,15.47,0,0,0,1.79,1c1.37.54,2.76,1.08,4.18,1.5,1.65.49,3.33.91,5,1.24,3.1.61,6.21,1.15,9.32,1.7.94.17,1.9.25,2.84.43.46.09.89.37,1.35.48a20.25,20.25,0,0,0,2.83.64,43,43,0,0,0,6.09.7,10.37,10.37,0,0,0,2.83-.43,20.14,20.14,0,0,0,5.31-2.79,15,15,0,0,1,2.22-1.43,44.06,44.06,0,0,0,6.86-4,63.81,63.81,0,0,0,7.19-5.49,33.38,33.38,0,0,0,4.6-4.53c4.22-5.49,8.17-11.18,12-17,1.93-2.94,3.81-5.91,5.72-8.87a.25.25,0,0,1,.13-.12c.41-.12.82-.3,1.25,0a3.34,3.34,0,0,0,.69.32c5.15,2.43,10.29,4.87,15.46,7.26a55.67,55.67,0,0,1,8.66,4.84,31,31,0,0,0,6.72,3.58c1,.38,2,.75,3,1q2.5.76,5.06,1.42c.8.2,1.64.23,2.44.46a40.6,40.6,0,0,0,8.47,1.53l2.29.13s0,0,0-.08l-5.79-.72s0-.09,0-.14l1.89.17a1.05,1.05,0,0,0-.48-.16c-1.34-.2-2.69-.33-4-.6-1.79-.36-3.58-.74-5.33-1.26-2.21-.66-4.38-1.42-6.54-2.21a18.18,18.18,0,0,1-3.41-1.57c-2.11-1.32-4.14-2.77-6.2-4.17l-.52-.35a.72.72,0,0,1,.39.06l5,1.85c3.21,1.22,6.43,2.46,9.66,3.64a44.42,44.42,0,0,1,5,2,20.94,20.94,0,0,0,5,1.76c.91.2,1.83.38,2.73.61,1.15.3,2.29.66,3.44.95A9.67,9.67,0,0,0,407,599l0-.15-1.32-.52c.15,0,.2-.09.24-.08l3.85.4a.3.3,0,0,1,.17.06c0,.31.21.19.34.2l1.72-.06a11.72,11.72,0,0,0,2.14,0A49.5,49.5,0,0,0,424,596a2.08,2.08,0,0,1,.52-.11,7.47,7.47,0,0,0,1.24-.21,10.61,10.61,0,0,0,4.08-2.27,14.07,14.07,0,0,0,2.75-3.28c.75-1.34,1.33-2.76,2-4.15a3.09,3.09,0,0,1,1-1.31c.49-.36.95-.77,1.43-1.16a4.71,4.71,0,0,1,.48-.29,2.8,2.8,0,0,0,.65-.39c.68-.7,1.38-1.4,2-2.16q1.45-1.78,2.78-3.66c1-1.45,2-2.94,2.93-4.41.1-.16.18-.34.28-.5a4.49,4.49,0,0,1,.58-.92,15.67,15.67,0,0,0,2.27-2.74,12.77,12.77,0,0,0,2.4-6.86c0-.74,0-1.48-.07-2.22a11.66,11.66,0,0,0-.79-3.54c-.42-1-.84-2-1.28-3a7.66,7.66,0,0,1-.44-2.51.85.85,0,0,1,0-.23.64.64,0,0,1,.21.33c.29.68.53,1.38.87,2a2,2,0,0,0,.74.68.64.64,0,0,0,.57-.1c.07-.05,0-.36,0-.5a6.61,6.61,0,0,1-.86-2.87c0-.51,0-1-.09-1.53a12.48,12.48,0,0,1,.29-4.83,7.76,7.76,0,0,0,.21-1.17,4.32,4.32,0,0,0,0-.88A16.61,16.61,0,0,0,449.91,537.15ZM251.6,566.29c-.11.38-.25.75-.34,1.14-.38,1.8-.78,3.6-1.11,5.4a24.16,24.16,0,0,0-.57,4.71c.08,3.45.17,6.89.25,10.34,0,.11,0,.22,0,.33l-.1,0-.9-1.39c-.11-.18-.2-.36-.31-.53s-.16-.22-.25-.22c-.89,0-1-.82-1.24-1.38a12.07,12.07,0,0,1-.49-8.35,30.66,30.66,0,0,1,3.72-8.66c.3-.48.64-.92.95-1.38a2.8,2.8,0,0,0,.15-.3s-.05-.12,0-.15l.74-1.15.12.08-.83,1.21C251.65,565.94,251.65,566.09,251.6,566.29Zm27.23,39.5c-.56-.27-1.13-.52-1.67-.82a26.15,26.15,0,0,1-7.67-5.78,29.13,29.13,0,0,1-4.75-7,3,3,0,0,1-.22-.77c0-.32.18-.49.49-.39a1,1,0,0,1,.18.07c1,.52,2,1,2.92,1.57a5,5,0,0,1,1,.9,15,15,0,0,1,2.43,3.32,29.48,29.48,0,0,0,3.83,5.21c.3.36.57.75.9,1.09.7.7,1.43,1.38,2.15,2.07.16.15.32.31.47.47A.35.35,0,0,1,278.83,605.79Zm33.81,11.85a17.48,17.48,0,0,1-5,3.6,7.93,7.93,0,0,1-4.34.66c-2.11-.3-4.21-.71-6.3-1.09-.68-.12-1.34-.3-2-.45v-.08c1.55-.13,3.1-.22,4.65-.39a49.11,49.11,0,0,0,8.66-1.61c1.32-.39,2.63-.81,3.95-1.2a2.75,2.75,0,0,1,.76,0A3.14,3.14,0,0,1,312.64,617.64Zm27-48.62a1.05,1.05,0,0,1-.16.6,10.43,10.43,0,0,0-1.59,2.61,152.31,152.31,0,0,1-9.85,17,62.9,62.9,0,0,1-8.32,10,28.28,28.28,0,0,1-10,6c-2.26.85-4.62,1.48-6.64,2.12l-4.71.72c-.81.13-1.61.28-2.41.44a19,19,0,0,1-6.46.19,23.46,23.46,0,0,1-7.93-2.5,7.47,7.47,0,0,1-1.71-1.07c-1.36-1.31-2.66-2.69-3.93-4.08a15.43,15.43,0,0,1-2.71-4.17,16.65,16.65,0,0,0-6.11-7.21,16.17,16.17,0,0,1-2.18-2c-.49-.48-.91-1-1.37-1.54a5.84,5.84,0,0,1-1.32-2.43,18.81,18.81,0,0,1-.52-4.79,62.37,62.37,0,0,1,.67-9.56,23.85,23.85,0,0,1,2.73-7.94A14.45,14.45,0,0,1,267,559a32.69,32.69,0,0,1,2.54-2.72,14.07,14.07,0,0,1,3.07-2.28,14.8,14.8,0,0,0,1.31-.8,51.9,51.9,0,0,1,7.41-4.1c.87-.38,1.71-.87,2.61-1.19a21.37,21.37,0,0,1,5.83-1.08c1.32-.08,2.64-.27,4-.33s2.8,0,4.2,0a12,12,0,0,0,1.34,0,11.56,11.56,0,0,1,5,.55c2.09.67,4.14,1.46,6.21,2.22,1.16.43,2.32.86,3.44,1.38s2,1.08,3,1.65c1.42.83,2.82,1.67,4.22,2.51,3.07,1.85,6.07,3.8,8.95,5.93,1.23.92,2.46,1.84,3.7,2.74.36.26.78.41,1.17.64a4.17,4.17,0,0,1,.77.49c1,.84,2,1.67,2.9,2.56A2.55,2.55,0,0,1,339.67,569Zm77.86-44.15c.15.07.32.12.46.2,2.05,1.21,4.1,2.4,6.05,3.78,1,.72,2,1.45,2.93,2.26a29,29,0,0,1,4.21,5.1c.43.59.88,1.15,1.29,1.75a9.62,9.62,0,0,1,.8,1.39.81.81,0,0,1,0,.7.72.72,0,0,1-.66,0c-.62-.27-1.22-.59-1.81-.91a14.16,14.16,0,0,1-4.37-3.85c-.49-.61-.81-1.33-1.25-2a40.34,40.34,0,0,0-6.84-7.63c-.28-.25-.56-.5-.83-.76Zm-59.74,7.64c.13-.54.26-1.09.44-1.62a.14.14,0,0,1,0-.06,4.49,4.49,0,0,1,.63-1.28,10.59,10.59,0,0,1,.89-1l1.29-1.28c.4-.4.81-.79,1.22-1.18s.83-.76,1.26-1.13.86-.73,1.31-1.08.89-.68,1.36-1c.24-.16.47-.33.72-.48l.41-.27a2,2,0,0,1,.36-.23,5.84,5.84,0,0,1,.53-.33l.18,0-.66.73c-1.48,1.62-3,3.22-4.42,4.85a9.42,9.42,0,0,0-.8,1.08c-.12.17-.26.33-.39.49-.4.48-.81,1-1.22,1.43l-1.31,1.56c-.55.67-1.09,1.35-1.64,2,0,0,0,0,0,0h0c-.06,0-.15-.27-.17-.31A1.62,1.62,0,0,1,357.79,532.51Zm71.83,57.38A5.74,5.74,0,0,1,427,593c-.89.44-1.82.79-2.71,1.23s-1.45.76-2.16,1.16a27.42,27.42,0,0,1-8.64,2.92,4.91,4.91,0,0,1-.77,0s0-.08,0-.13a2.74,2.74,0,0,1,.4-.15,11.88,11.88,0,0,0,3.78-1.44c.27-.15.58-.21.85-.35s.21-.21.32-.32c-.15,0-.31-.17-.44-.15a5,5,0,0,0-1.23.35,7,7,0,0,1-2.89,1c-1.1,0-2.2,0-3.3,0a.34.34,0,0,1-.25-.12c.45-.07.9-.12,1.34-.21,2.84-.59,5.75-.93,8.46-2a56.48,56.48,0,0,0,8.91-4.52c.32-.21.67-.37,1-.57A1.43,1.43,0,0,1,429.62,589.89Zm6.6-39.38a.24.24,0,0,0,0,.12,25.34,25.34,0,0,1,.16,4.27,52.38,52.38,0,0,1-.7,10.46,34.74,34.74,0,0,1-1.52,5.94,10.53,10.53,0,0,1-1.65,2.62,12.85,12.85,0,0,1-2.67,2.74,24.89,24.89,0,0,1-5.89,3.76,32,32,0,0,1-8.61,2.17c-1.58.15-3.14.41-4.72.54a17.28,17.28,0,0,1-6.1-.74,135.39,135.39,0,0,1-19.6-7.12c-4.83-2.18-9.64-4.39-14.34-6.82-.54-.28-1.12-.51-1.66-.79-2.81-1.48-5.62-2.95-8.41-4.44-.52-.27-1-.65-1.47-1a4.69,4.69,0,0,0-.55-.28c.14-.28.27-.58.43-.87l6.33-11c1.25-2.17,2.52-4.33,3.74-6.52.56-1,.95-2.06,1.52-3,1.3-2.2,2.68-4.35,4-6.54a10.78,10.78,0,0,1,1.92-2.07,35.09,35.09,0,0,1,12.47-7.49,36.07,36.07,0,0,1,8.49-2.13c1-.1,1.92-.33,2.87-.51a18.78,18.78,0,0,1,6.6-.14,22.44,22.44,0,0,1,7.66,2.52c.22.12.46.21.69.32a8.37,8.37,0,0,1,1.81,1.44,40.81,40.81,0,0,1,5.22,5.62,13,13,0,0,1,1.13,1.91,18.5,18.5,0,0,0,6.69,7.53,12.08,12.08,0,0,1,2.54,2.14c.4.45.83.88,1.24,1.33a10.51,10.51,0,0,1,1.82,3.18A6.56,6.56,0,0,1,436.22,550.51Zm12.53,11a15.61,15.61,0,0,1-1.36,4.69c-.06.13-.14.24-.2.35H447a2.39,2.39,0,0,1-.05-.59c.24-1.69.51-3.38.74-5.08.12-.82.16-1.65.23-2.47,0,0,0-.07.11-.21.14.29.24.51.34.74l.06,0c.1.1.24.18.27.31A5.62,5.62,0,0,1,448.75,561.49Zm-.53-26.22c.06.46,0,.92,0,1.37s.08,1,.09,1.43c0,.8,0,1.59,0,2.38s-.08,1.45-.11,2.17c0,.08,0,.16,0,.24h-.1l-.3-1.32c-.08-.32-.16-.65-.23-1a6.14,6.14,0,0,0-.16-1c-.25-.63-.5-1.25-.76-1.87a9.61,9.61,0,0,1-.64-1.69,5,5,0,0,0-.16-.86c-.11-.26-.24-.53-.36-.79a12.49,12.49,0,0,0-.77-1.5,61,61,0,0,0-6.79-8.59,19.6,19.6,0,0,0-2.21-2.06c-.91-.74-1.89-1.39-2.84-2.08l-.7-.53.06-.09a1,1,0,0,1,.18.06l4.69,2.81a7,7,0,0,1,.81.52,5.54,5.54,0,0,1,.68.69l.78.84,1.51,1.7c.92,1.07,1.83,2.15,2.73,3.23s1.55,1.88,2.33,2.81l1.09,1.25a9.36,9.36,0,0,1,.89,1A1.88,1.88,0,0,1,448.22,535.27Z"/><path class="cls-5" d="M304.71,707.49c1.63,7.21-2.82,14-10.29,15.66l-10.14,2.29-5.73-25.37,10.25-2.31C296.2,696.09,303.08,700.28,304.71,707.49Zm-2.93.7a10.19,10.19,0,0,0-12.44-7.73l-7.28,1.64,4.51,20,7.39-1.67A10.09,10.09,0,0,0,301.78,708.19Z"/><path class="cls-5" d="M319.68,708.19l2,8.8-2.86.65-2-8.73-13.57-14.42,3-.67,11.22,11.43,5.12-15.13,3-.67Z"/><path class="cls-5" d="M332.6,687.87,352.48,705l-4.66-20.61,2.86-.65,5.73,25.36-3,.68-19.87-17.15,4.65,20.58-2.9.66-5.72-25.36Z"/><path class="cls-5" d="M378.68,697.3l-13.81,3.12-1.36,7.12-3.08.7,5.65-27.93,3-.68,17.06,22.8-3.15.71Zm-1.77-2.42-8.71-11.74-2.74,14.33Z"/><path class="cls-5" d="M388,675.35l13.43,16.32,5.08-20.5,3.55-.8,5.73,25.36-2.68.61-4.8-21.08-5.08,20.49-1.74.4-13.36-16.33,4.76,21.08-2.75.63-5.73-25.37Z"/><path class="cls-5" d="M420.67,668l5.73,25.37-2.9.65-5.73-25.36Z"/><path class="cls-5" d="M439.8,666.36a10.35,10.35,0,1,0,4.56,20.18,11.33,11.33,0,0,0,6.81-4.74l2.21,1.52a14.33,14.33,0,0,1-8.55,6,13.19,13.19,0,0,1-16-9.87c-1.61-7.1,3-14,10.35-15.7a14.1,14.1,0,0,1,10.11,1.6l-1.26,2.5A11,11,0,0,0,439.8,666.36Z"/><path class="cls-5" d="M461.68,661.57c-3.26.73-5.1,2.52-4.61,4.7,1.49,6.59,15-.08,17,9.13.95,4.21-2.17,7.77-7.61,9a14.82,14.82,0,0,1-10.58-1.68l.74-2.79a13.06,13.06,0,0,0,9.24,1.64c3.66-.83,5.61-2.83,5.05-5.29-1.49-6.78-15,0-17-9.07-.9-4,2-7.31,7.29-8.5a15.4,15.4,0,0,1,8.58.54l-.65,2.85A13.69,13.69,0,0,0,461.68,661.57Z"/><path class="cls-5" d="M275.8,652.12l5.45,24.13,13.15-3,1.56,6.9L274.71,685l-7-31Z"/><path class="cls-5" d="M319.21,669.16l-13.42,3-.93,6-8.32,1.88,6.32-34,8.32-1.88,20,28.09-8.63,1.95Zm-3.79-5.66-6.75-10.1-1.84,12Z"/><path class="cls-5" d="M339.65,644.26c-1.95.44-3.08,1.44-2.76,2.85,1.16,5.14,16.84-1.47,19.36,9.68,1.43,6.33-3.42,10.83-10.33,12.39a23.91,23.91,0,0,1-15.41-1.73l1.71-7c3.81,2,9.07,2.88,12.3,2.15,2.4-.54,3.7-1.77,3.33-3.4-1.19-5.27-16.81,1.61-19.29-9.37-1.31-5.8,2.78-10.59,10.26-12.28a24.42,24.42,0,0,1,13.19.7l-1.61,7.11C346.71,644.2,342.21,643.68,339.65,644.26Z"/><path class="cls-5" d="M379.37,628.72l1.51,6.69-9.3,2.1,5.5,24.35-8.1,1.83-5.5-24.35-9.21,2.08-1.51-6.69Z"/><path class="cls-5" d="M390.75,626.15l7,31-8.1,1.83-7-31Z"/><path class="cls-5" d="M403.9,623.18l18.3,15.51L418,620l7.53-1.7,7,31-7.09,1.6-18.28-15.42,4.2,18.6-7.57,1.71-7-31Z"/><path class="cls-5" d="M455.55,627.48l7-1.58,2.76,12.22a25.47,25.47,0,0,1-12,6.9c-9.48,2.14-18.15-3.07-20.19-12.1s3.75-17.41,13.58-19.63A20.43,20.43,0,0,1,460.46,615l-3.33,6.7a12.86,12.86,0,0,0-9-1.56A9.15,9.15,0,0,0,452.29,638a13,13,0,0,0,5-2.68Z"/></g></g></svg>