<?xml version="1.0" encoding="utf-8"?>
<!-- Generator: Adobe Illustrator 23.0.1, SVG Export Plug-In . SVG Version: 6.00 Build 0)  -->
<svg version="1.1" id="Livello_1" xmlns="http://www.w3.org/2000/svg" xmlns:xlink="http://www.w3.org/1999/xlink" x="0px" y="0px"
	 viewBox="0 0 393.3 894.1" style="enable-background:new 0 0 393.3 894.1;" xml:space="preserve">
<style type="text/css">
	.st0{fill:#D78183;}
	.st1{opacity:0.2;fill:#060606;enable-background:new    ;}
	.st2{opacity:5.000000e-02;fill:#060606;enable-background:new    ;}
	.st3{fill:#FFFFFF;}
</style>
<title>Risorsa 5</title>
<g>
	<g id="Livello_2-2">
		<path class="st0" d="M303.9,291.5l22.3-114c0.9-4.6-2-9-6.6-9.9c0,0,0,0,0,0h-0.1l-78.6-15.2c-4.6-0.9-9,2-9.9,6.6
			c0,0,0,0.1,0,0.1l-22.3,114l-76,281.7L272,582L303.9,291.5z"/>
		<circle class="st0" cx="188.2" cy="620.6" r="121.3"/>
		<circle class="st1" cx="188.2" cy="620.6" r="79.5"/>
		
			<rect x="256.2" y="225.1" transform="matrix(0.1917 -0.9815 0.9815 0.1917 -60.0528 474.3303)" class="st2" width="3.5" height="97"/>
		<path class="st3" d="M240.8,606.3c0.1-0.7,0-1.4-0.1-2.1V604c0-0.4-0.1-0.8-0.2-1.1c-0.1-0.4-0.1-0.9-0.2-1.3
			c-0.1-0.4-0.2-0.9-0.3-1.4c-0.1-0.5-0.2-0.9-0.4-1.3c-0.1-0.2-0.2-0.4-0.3-0.7c-0.1-0.2-0.2-0.4-0.3-0.7c0-0.1-0.1-0.1-0.1-0.2
			l-0.2-0.5c-0.1-0.3-0.3-0.6-0.4-0.9c-0.3-0.5-0.6-1-0.9-1.4c-0.5-0.7-1.1-1.3-1.7-1.9c-0.6-0.6-1.2-1.2-1.8-1.8
			c-0.5-0.5-1-1-1.6-1.5c-0.6-0.5-1.1-1-1.6-1.5c-0.6-0.5-1.3-1-1.9-1.5c-0.9-0.6-1.8-1.1-2.7-1.5c-0.9-0.3-1.7-0.6-2.6-0.8
			c-0.6-0.1-1.1-0.3-1.7-0.4c-0.6-0.1-1.2-0.3-1.8-0.3c-0.7-0.1-1.5-0.2-2.2-0.2c-0.7-0.1-1.5-0.1-2.3-0.2c-0.6,0-1.2,0-1.8-0.1
			c-0.2,0-0.5-0.1-0.7-0.1c-0.4,0-0.8,0-1.2,0c-2.2,0.4-4.3,1-6.3,1.8c-1.1,0.4-2,1.3-2.4,2.4c-0.3,0.7-0.9,1.4-1.6,1.8
			c-0.5,0.3-1.1,0.6-1.6,0.9c-1.1,0.8-2.2,1.5-3.3,2.3c-0.3,0.2-0.4,0.2-0.5-0.1c-1.1-1.5-2.1-2.9-3.2-4.4l-0.1-0.1l-0.1,0.1
			c-0.1-0.3-0.3-0.6-0.5-0.9c-0.9-1.3-1.9-2.6-2.8-4c-0.5-0.8-1.1-1.5-1.7-2.2c-0.6-0.7-1.3-1.3-1.9-1.9c-0.8-0.7-1.6-1.4-2.6-2
			c-1.1-0.8-2.4-1.6-3.7-2.1c-1-0.4-2.1-0.8-3.2-1.2c-0.7-0.2-1.4-0.4-2.1-0.5c-0.3-0.1-0.7,0-1-0.1c-0.8-0.2-1.6-0.2-2.4-0.2
			c-0.5,0-0.9,0-1.3-0.2c-0.8-0.4-1.7-0.7-2.6-0.8c-0.6-0.1-1.2-0.1-1.8,0c-0.1,0-0.3,0-0.4,0c-0.9,0-1.9,0.2-2.8,0.5
			c-0.3,0.1-0.6,0.2-0.8,0.5c0,0-0.1,0.1,0,0.1c0,0,0.1,0.1,0.1,0.1c0.1,0,0.1,0,0.2,0c0.1,0,0.2-0.1,0.3,0c0.1,0.1,0.1,0,0.1,0
			l1.1-0.1c0.3,0,0.6,0,0.9,0v0c-0.1,0-0.1,0.1-0.2,0.1c-0.6,0.3-1.1,0.7-1.5,1.1c-0.3,0.3-0.6,0.4-0.9,0.6
			c-1.3,0.4-2.5,0.9-3.7,1.6l-0.9,0.5c0,0-0.1,0.1-0.2,0.1c-0.3,0-0.5,0.1-0.7,0.2c-0.3,0.2-0.7,0.4-1,0.6c-0.9,0.5-1.6,1.1-2.3,1.9
			c-0.5,0.6-1.1,1.3-1.6,1.9c-0.5,0.6-0.9,1.1-1.3,1.6c-0.1,0.2-0.2,0.4-0.3,0.6c-0.1,0.3-0.4,0.6-0.5,0.9c-0.1,0.2-0.2,0.5-0.3,0.7
			c-0.1,0.8-0.2,1.5,0,2.3c0,0.5,0.2,0.9,0.4,1.4c0.2,0.4,0.4,0.8,0.4,1.2c0,0.7,0,1.4,0.1,2.1c0.1,1.5,0.3,3,0.7,4.5
			c0.3,1.4,0.9,2.8,1.6,4.1c0.4,0.7,0.9,1.3,1.3,2c0.2,0.3,0.3,0.5,0.5,0.8c0.5,0.5,0.9,1,1.4,1.4c0.5,0.4,1.2,1,1.8,1.5
			c1.1,0.9,2.3,1.7,3.4,2.5c0.3,0.3,0.7,0.5,1.1,0.7c0.2,0.1,0.3,0.3,0.5,0.5c0.3,0.3,0.7,0.6,1,0.8c0.7,0.6,1.5,1.1,2.3,1.5
			c0.4,0.2,0.8,0.3,1.2,0.4c0.9,0.1,1.8,0.1,2.7-0.1c0.4-0.1,0.8-0.1,1.2-0.1c1.2,0,2.4-0.1,3.6-0.2c1.4-0.2,2.7-0.4,4-0.8
			c0.9-0.2,1.9-0.5,2.8-0.9c2.8-1.4,5.5-2.9,8.2-4.5c1.4-0.8,2.7-1.6,4.1-2.5c0,0,0.1,0,0.1,0c0.2,0,0.4,0,0.5,0.3
			c0.1,0.1,0.1,0.2,0.2,0.3c1.6,2,3.2,4,4.8,6c1,1.2,1.8,2.4,2.6,3.7c0.6,1,1.2,1.9,2,2.8c0.3,0.3,0.7,0.7,1,1
			c0.6,0.5,1.2,1.1,1.8,1.6c0.3,0.2,0.6,0.4,0.9,0.7c1,0.9,2,1.6,3.1,2.3l0.9,0.5l0,0l-2.3-1.5l0-0.1l0.7,0.4c0-0.1-0.1-0.1-0.2-0.2
			c-0.5-0.3-1-0.7-1.5-1c-0.7-0.5-1.3-1-1.9-1.6c-0.8-0.7-1.5-1.4-2.2-2.2c-0.4-0.4-0.8-0.8-1.1-1.3c-0.6-0.9-1.1-2-1.7-2.9
			l-0.1-0.2c0.1,0,0.1,0.1,0.1,0.1l1.6,1.7c1.1,1.1,2.1,2.3,3.2,3.4c0.6,0.6,1.1,1.2,1.6,1.8c0.5,0.6,1,1.2,1.7,1.7
			c0.3,0.3,0.7,0.5,1,0.8c0.3,0.3,0.8,0.7,1.2,1.1c0.2,0.1,0.3,0.2,0.5,0.3l0-0.1l-0.4-0.5h0.1l1.5,0.9c0,0,0.1,0.1,0.1,0.1
			c-0.1,0.1,0.1,0.1,0.1,0.2l0.7,0.3c0.3,0.2,0.6,0.3,0.9,0.4c1.5,0.4,3,0.7,4.5,0.8c0.1,0,0.2,0,0.2,0.1c0.2,0.1,0.4,0.1,0.5,0.2
			c0.7,0.1,1.4,0.1,2.1-0.1c0.6-0.2,1.2-0.4,1.8-0.8c0.6-0.4,1.1-0.9,1.6-1.3c0.2-0.2,0.4-0.3,0.7-0.3c0.3,0,0.5-0.1,0.8-0.2
			c0.1,0,0.2,0,0.3,0c0.1,0,0.2,0,0.3,0c0.4-0.2,0.8-0.3,1.2-0.5c0.6-0.3,1.3-0.6,1.9-0.9c0.6-0.3,1.4-0.8,2.1-1.2
			c0.1,0,0.1-0.1,0.2-0.1c0.1-0.1,0.3-0.2,0.4-0.3c0.5-0.2,1-0.4,1.5-0.7c1-0.5,1.8-1.3,2.3-2.3c0.2-0.3,0.3-0.6,0.4-0.9
			c0.2-0.5,0.3-1,0.4-1.6c0-0.5,0.1-1,0.1-1.5c0-0.4,0.2-0.8,0.3-1.1c0,0,0-0.1,0.1-0.1c0,0.1,0,0.1,0,0.2c0,0.3-0.1,0.7-0.1,1
			c0,0.2,0.1,0.3,0.2,0.4c0.1,0.1,0.2,0.1,0.3,0.1c0,0,0.1-0.1,0.1-0.2c0-0.5,0-0.9,0.2-1.3c0.1-0.2,0.2-0.4,0.3-0.7
			c0.2-0.7,0.6-1.3,1.1-1.9c0.1-0.1,0.2-0.3,0.3-0.4c0.1-0.1,0.1-0.2,0.2-0.3C240.5,607.5,240.7,606.9,240.8,606.3z M154.5,578.8
			c-0.1,0.1-0.3,0.3-0.4,0.4c-0.5,0.7-1,1.3-1.5,2c-0.5,0.6-0.8,1.2-1.2,1.8c-0.7,1.4-1.3,2.8-1.9,4.2l-0.1,0.1h0
			c0-0.3-0.1-0.5-0.1-0.7c0-0.1,0-0.2,0-0.3s0-0.1-0.1-0.1c-0.3-0.2-0.2-0.5-0.2-0.8c0.1-1.3,0.6-2.5,1.5-3.5c0.9-1.1,2-2,3.2-2.8
			C153.9,579,154.1,578.9,154.5,578.8c-0.1-0.1,0-0.1,0-0.1c0,0,0-0.1,0-0.1l0.5-0.3c0,0,0,0,0,0.1l-0.6,0.3
			C154.6,578.7,154.5,578.8,154.5,578.8z M157.7,600.3c-0.2-0.2-0.4-0.4-0.5-0.7c-0.9-1.2-1.6-2.5-2-3.9c-0.4-1.2-0.5-2.5-0.5-3.8
			c0-0.1,0-0.2,0.1-0.4c0-0.1,0.2-0.2,0.3-0.1l0.1,0.1c0.3,0.4,0.6,0.8,0.9,1.2c0.1,0.2,0.2,0.4,0.2,0.6c0.2,0.6,0.3,1.2,0.3,1.8
			c0.1,1,0.2,1.9,0.5,2.9c0.1,0.2,0.1,0.4,0.2,0.6c0.1,0.4,0.3,0.8,0.5,1.3C157.7,600.1,157.7,600.2,157.7,600.3
			C157.7,600.3,157.7,600.3,157.7,600.3z M169.1,611.8c-0.9,0.3-1.8,0.5-2.7,0.5c-0.7,0-1.3-0.2-1.9-0.6c-0.8-0.5-1.6-1.1-2.3-1.7
			c-0.3-0.2-0.5-0.4-0.7-0.6l0,0c0.7,0.3,1.3,0.5,2,0.8c1.2,0.5,2.5,0.8,3.8,1c0.6,0.1,1.2,0.2,1.8,0.3c0.1,0,0.2,0.1,0.3,0.1
			C169.3,611.7,169.2,611.7,169.1,611.8z M189.7,597.4c0,0.1-0.1,0.2-0.2,0.2c-0.4,0.2-0.8,0.4-1.2,0.8c-2.3,1.8-4.8,3.5-7.4,4.9
			c-1.7,1-3.5,1.8-5.4,2.4c-1.7,0.5-3.5,0.7-5.2,0.5c-1.1-0.1-2.2-0.3-3.1-0.5l-2.1-0.7c-0.3-0.1-0.7-0.2-1.1-0.3
			c-0.9-0.2-1.8-0.7-2.6-1.2c-1.1-0.7-2-1.6-2.7-2.6c-0.2-0.2-0.4-0.5-0.5-0.8c-0.3-0.8-0.5-1.6-0.8-2.4c-0.2-0.7-0.3-1.5-0.3-2.2
			c0.1-1.5-0.3-2.9-1.1-4.1c-0.2-0.4-0.4-0.8-0.5-1.2c-0.1-0.3-0.2-0.6-0.3-0.9c-0.1-0.4-0.1-0.8-0.1-1.3c0.2-0.7,0.4-1.4,0.7-2
			c0.6-1.3,1.4-2.6,2.2-3.8c0.7-1,1.6-2,2.7-2.7c0.4-0.3,0.8-0.5,1.2-0.7c0.5-0.2,1-0.4,1.6-0.6c0.5-0.2,1.1-0.3,1.7-0.3
			c0.2,0,0.5,0,0.7-0.1c1.3-0.2,2.5-0.2,3.8-0.2c0.4,0,0.9,0,1.3,0c0.9,0.1,1.8,0.4,2.6,0.7c0.6,0.2,1.1,0.4,1.7,0.7
			c0.6,0.3,1.1,0.5,1.7,0.8c0.2,0.1,0.4,0.2,0.5,0.3c0.7,0.3,1.4,0.7,1.9,1.2c0.7,0.7,1.4,1.4,2.1,2.1c0.4,0.4,0.8,0.8,1.1,1.2
			c0.3,0.4,0.6,0.8,0.9,1.3c0.4,0.6,0.8,1.2,1.2,1.9c0.9,1.4,1.7,2.7,2.5,4.2c0.3,0.6,0.7,1.2,1,1.8c0.1,0.2,0.2,0.3,0.3,0.5
			c0.1,0.1,0.2,0.2,0.2,0.4c0.2,0.5,0.5,1.1,0.7,1.6C189.8,596.6,189.9,597.1,189.7,597.4z M230.1,594.9c0.1,0.1,0.1,0.1,0.2,0.2
			c0.6,0.9,1.2,1.8,1.7,2.7c0.3,0.5,0.5,1,0.7,1.5c0.3,0.9,0.6,1.9,0.7,2.9c0.1,0.3,0.1,0.7,0.2,1c0,0.2,0.1,0.5,0.1,0.7
			c0,0.1-0.1,0.2-0.2,0.3c-0.1,0-0.2,0-0.3-0.1c-0.2-0.2-0.4-0.5-0.6-0.7c-0.5-0.7-0.8-1.6-1-2.4c-0.1-0.3-0.1-0.7-0.1-1.1
			c-0.2-1.5-0.7-3-1.3-4.5C230.1,595.2,230.1,595.1,230.1,594.9L230.1,594.9z M204.3,586.2c0.2-0.2,0.3-0.4,0.5-0.6l0,0
			c0.1-0.2,0.3-0.3,0.5-0.4c0.2-0.1,0.4-0.2,0.6-0.2l0.8-0.3l0.7-0.2l0.7-0.2c0.2-0.1,0.5-0.1,0.7-0.2c0.2-0.1,0.5-0.1,0.8-0.1
			l0.4-0.1h0.2c0.1,0,0.1,0,0.2,0c0.1,0,0.2,0,0.3,0h0.1l-0.4,0.2l-2.8,1.1c-0.2,0.1-0.4,0.2-0.5,0.3l-0.3,0.1l-0.8,0.3l-0.8,0.4
			l-1.1,0.5l0,0c0,0,0-0.1,0-0.2C204.1,586.4,204.2,586.3,204.3,586.2z M222.1,623.7c-0.5,0.4-1.1,0.7-1.7,0.7c-0.4,0-0.9,0-1.3,0
			s-0.7,0-1.1,0c-1.4,0.1-2.8-0.1-4.1-0.5c-0.1,0-0.2-0.1-0.3-0.1v-0.1h0.2c0.6,0.2,1.2,0.2,1.8,0.2c0.1,0,0.3,0,0.4,0
			c0.1,0,0.1,0,0.2-0.1c-0.1,0-0.1-0.1-0.2-0.1c-0.2-0.1-0.4-0.1-0.6-0.1c-0.5,0-0.9,0-1.4-0.2c-0.4-0.2-0.9-0.4-1.3-0.7
			c0,0-0.1-0.1-0.1-0.1c0.2,0.1,0.4,0.1,0.6,0.2c1.3,0.4,2.5,0.7,3.8,0.9c1.5,0.1,3,0.1,4.5-0.1c0.2,0,0.3,0,0.5,0
			C222.1,623.6,222.1,623.7,222.1,623.7L222.1,623.7z M232.6,609C232.6,609,232.6,609,232.6,609c-0.2,0.7-0.5,1.2-0.8,1.8
			c-0.6,1.4-1.4,2.8-2.4,4.1c-0.5,0.8-1.1,1.5-1.8,2.1c-0.4,0.3-0.8,0.6-1.2,0.7c-0.5,0.3-1.1,0.5-1.6,0.6c-1,0.3-2.1,0.4-3.1,0.4
			c-1.4-0.1-2.7-0.4-4-0.8c-0.7-0.3-1.4-0.5-2-0.7c-0.9-0.4-1.6-0.9-2.3-1.5c-2.4-2.1-4.5-4.4-6.5-6.8c-1.5-1.8-3-3.7-4.5-5.6
			c-0.2-0.2-0.4-0.4-0.5-0.7c-0.8-1.2-1.7-2.3-2.5-3.5c-0.1-0.2-0.3-0.4-0.4-0.7c-0.1-0.1-0.1-0.1-0.2-0.2c0.1-0.1,0.2-0.2,0.3-0.3
			l4.8-3.2c0.9-0.7,1.9-1.3,2.8-1.9c0.4-0.3,0.8-0.7,1.2-0.9c1-0.7,2-1.2,2.9-1.9c0.4-0.2,0.8-0.4,1.2-0.5c3.4-0.9,7-0.9,10.4,0.3
			c0.4,0.1,0.8,0.2,1.3,0.4c1,0.3,1.9,0.7,2.7,1.3c1,0.7,1.9,1.5,2.6,2.5c0.1,0.1,0.2,0.2,0.2,0.3c0.2,0.3,0.4,0.6,0.5,0.9
			c0.4,1.1,0.8,2.2,1,3.3c0.1,0.3,0.1,0.7,0.1,1c0,1.6,0.4,3.1,1.2,4.4c0.3,0.4,0.5,0.9,0.6,1.4c0.1,0.3,0.2,0.5,0.2,0.8
			c0.1,0.5,0.2,1.1,0.1,1.6C232.9,608.2,232.8,608.6,232.6,609L232.6,609z M235.5,615.9c-0.4,0.6-0.9,1.2-1.5,1.6
			c0,0-0.1,0.1-0.2,0.1l-0.1,0c0-0.1,0.1-0.2,0.1-0.3c0.4-0.7,0.9-1.3,1.3-1.9c0.2-0.3,0.4-0.7,0.6-1c0,0,0,0,0.1-0.1
			c0,0.1,0,0.3,0,0.4h0c0,0.1,0,0.1,0,0.2C235.9,615.3,235.7,615.7,235.5,615.9L235.5,615.9z M240.5,605.2c-0.1,0.2-0.2,0.4-0.3,0.6
			c-0.1,0.2-0.2,0.4-0.2,0.6c-0.1,0.3-0.3,0.7-0.5,1l-0.5,0.9l-0.1,0.1h0l0.1-0.6c0-0.1,0.1-0.3,0.1-0.4c0.1-0.1,0.1-0.3,0.1-0.4
			c0-0.3,0-0.6,0.1-0.9c0-0.3,0-0.5,0.1-0.8c0-0.1,0.1-0.3,0.1-0.4c0-0.1,0-0.3,0-0.4c0-0.3,0-0.5,0-0.8c-0.2-1.6-0.6-3.3-1-4.8
			c-0.1-0.4-0.3-0.9-0.5-1.3c-0.2-0.5-0.5-0.9-0.7-1.4c-0.1-0.1-0.1-0.2-0.2-0.3h0l0.1,0.1l1.4,2.1c0.1,0.1,0.2,0.2,0.2,0.4
			c0.1,0.1,0.1,0.3,0.1,0.4c0.1,0.2,0.1,0.3,0.1,0.5c0.1,0.3,0.2,0.7,0.3,1c0.2,0.6,0.3,1.2,0.5,1.9c0.2,0.6,0.3,1.1,0.4,1.6
			c0.1,0.2,0.1,0.5,0.2,0.7c0.1,0.2,0.1,0.4,0.2,0.6C240.5,605,240.5,605.1,240.5,605.2L240.5,605.2z"/>
		<path class="st3" d="M148.1,646.7c-0.7,3.2-3.9,5.1-7,4.4c-0.1,0-0.1,0-0.2-0.1l-4.6-1.1l2.7-11.4l4.6,1.1
			c3.2,0.6,5.2,3.7,4.6,6.9C148.1,646.5,148.1,646.6,148.1,646.7z M146.8,646.4c0.6-2.5-0.9-5-3.4-5.6c0,0-0.1,0-0.1,0l-3.3-0.8
			l-2.1,9l3.3,0.8c2.4,0.6,4.9-0.8,5.6-3.2C146.7,646.5,146.7,646.5,146.8,646.4z"/>
		<path class="st3" d="M154,649.9l-0.9,4l-1.3-0.3l0.9-4l-2.6-8.6l1.4,0.3l2.3,6.9l5.1-5.1l1.3,0.3L154,649.9z"/>
		<path class="st3" d="M163.3,644.3l4.7,10.9l2.2-9.3l1.3,0.3l-2.7,11.4l-1.3-0.3l-4.7-10.9l-2.2,9.3l-1.3-0.3l2.7-11.4L163.3,644.3
			z"/>
		<path class="st3" d="M180.1,657.2l-6.2-1.5l-2,2.6l-1.4-0.3l7.8-10.2l1.4,0.3l2.4,12.6l-1.4-0.3L180.1,657.2z M179.9,655.9
			l-1.2-6.5l-4,5.3L179.9,655.9z"/>
		<path class="st3" d="M188.3,650.1l2.2,9.3l6.1-7.3l1.6,0.4l-2.7,11.5l-1.2-0.3l2.2-9.5l-6.1,7.3l-0.8-0.2l-2.2-9.3l-2.2,9.5
			l-1.2-0.3l2.7-11.4L188.3,650.1z"/>
		<path class="st3" d="M203,653.6l-2.7,11.4l-1.3-0.3l2.7-11.4L203,653.6z"/>
		<path class="st3" d="M211.1,656.8c-2.5-0.7-5.1,0.8-5.8,3.2c-0.7,2.5,0.8,5.1,3.2,5.8c0.1,0,0.3,0.1,0.4,0.1
			c1.3,0.3,2.6,0.1,3.7-0.6l0.6,1.1c-1.4,0.8-3.1,1.1-4.7,0.7c-3.2-0.5-5.4-3.6-4.9-6.8c0.5-3.2,3.6-5.4,6.8-4.9
			c0.3,0,0.6,0.1,0.9,0.2c1.6,0.4,2.9,1.3,3.8,2.6l-1,0.8C213.4,657.9,212.3,657.1,211.1,656.8z"/>
		<path class="st3" d="M220.9,659.1c-1.5-0.3-2.6,0-2.8,1c-0.7,3,6.1,2.9,5.1,7.1c-0.4,1.9-2.4,2.7-4.9,2.1c-1.6-0.4-3-1.4-4-2.8
			l0.9-1c0.8,1.2,2,2.1,3.4,2.5c1.6,0.4,2.8,0,3.1-1.1c0.7-3.1-6.1-3-5.1-7.1c0.4-1.8,2.3-2.6,4.6-2c1.3,0.3,2.5,1,3.4,1.9l-0.8,1
			C223,660,222,659.4,220.9,659.1z"/>
		<path class="st3" d="M147.3,618.5l-2.6,10.9l5.9,1.4l-0.7,3.1l-9.6-2.2l3.3-14L147.3,618.5z"/>
		<path class="st3" d="M161.5,634l-6.1-1.4l-1.6,2.2l-3.8-0.9l9.3-12.6l3.8,0.9l2.6,15.4l-3.9-0.9L161.5,634z M161.1,631l-0.7-5.4
			l-3.1,4.5L161.1,631z"/>
		<path class="st3" d="M174.8,627.9c-0.9-0.2-1.5,0-1.7,0.6c-0.5,2.3,7.1,2.7,5.9,7.8c-0.7,2.9-3.5,3.7-6.6,3
			c-2.3-0.6-4.4-1.9-5.9-3.8l2.1-2.5c1.1,1.6,2.7,2.7,4.6,3.3c1.1,0.3,1.8,0,2-0.7c0.6-2.4-7.1-2.7-6-7.6c0.6-2.6,3.2-3.7,6.6-2.9
			c2,0.5,3.8,1.5,5.2,2.9l-2.1,2.6C177.7,629.3,176.3,628.5,174.8,627.9z"/>
		<path class="st3" d="M194,629.5l-0.7,3l-4.2-1l-2.6,11l-3.7-0.9l2.6-11l-4.2-1l0.7-3L194,629.5z"/>
		<path class="st3" d="M199.1,630.7l-3.3,14l-3.7-0.9l3.3-14L199.1,630.7z"/>
		<path class="st3" d="M205,632.1l4.4,9.9l2-8.4l3.4,0.8l-3.3,14l-3.2-0.8l-4.4-9.9l-2,8.4l-3.4-0.8l3.3-14L205,632.1z"/>
		<path class="st3" d="M225.2,644.1l3.2,0.7l-1.3,5.5c-2,0.7-4.2,0.9-6.3,0.4c-4.3-1-6.8-4.8-5.8-8.9c1-4.1,5-6.3,9.4-5.3
			c2.1,0.5,4,1.7,5.3,3.4l-2.7,2.1c-0.8-1.2-2-2-3.3-2.4c-2.2-0.5-4.4,0.9-4.9,3.2c-0.5,2.2,0.9,4.4,3.1,4.9
			c0.9,0.2,1.7,0.1,2.6-0.1L225.2,644.1z"/>
	</g>
</g>
</svg>
