<?xml version="1.0" encoding="UTF-8"?>
<svg width="109px" height="47px" viewBox="0 0 109 47" version="1.1" xmlns="http://www.w3.org/2000/svg" xmlns:xlink="http://www.w3.org/1999/xlink">
    <!-- Generator: Sketch 52.6 (67491) - http://www.bohemiancoding.com/sketch -->
    <title>Group 3 Copy</title>
    <desc>Created with Sketch.</desc>
    <defs>
        <path d="M81.7242194,0.00635388029 C81.0103169,0.022971721 80.2929845,0.0410558418 79.5825118,0.106060925 C78.7480739,0.182796248 77.914616,0.302053694 77.0836079,0.417889819 C76.2187912,0.538124784 75.3564244,0.66373611 74.4965075,0.814274197 C73.8056341,0.934509162 73.1250502,1.10850773 72.4366267,1.23216402 C72.3058018,1.2556245 72.1710569,1.25415822 72.0363121,1.2531807 C71.8927477,1.25171442 71.7496732,1.2507369 71.6129684,1.27859622 C71.1675756,1.3680393 70.7118931,1.45845991 70.2963891,1.63245847 C67.9728985,2.60460216 65.8062018,3.86071541 63.7644504,5.32943928 C62.6414136,6.1373596 61.9412305,7.23560337 61.7177991,8.60364267 C61.5614951,9.54890455 61.1146323,10.3201679 60.4438481,10.9755951 C59.9489672,11.4619113 59.4119478,11.9091267 58.9420559,12.4164596 C57.899866,13.5415852 56.886095,14.6931038 55.8649743,15.8382685 C55.6312533,16.1002439 55.5053281,16.1232156 55.2402483,15.8939872 C53.6615291,14.5347455 52.0852597,13.1711051 50.5070304,11.8103972 C50.4541125,11.76592 50.3977646,11.7238866 50.3394569,11.6794095 C50.3080981,11.7390382 50.2865389,11.7771615 50.2600799,11.8245712 C49.9950001,11.5308264 49.7632391,11.2209526 49.48003,10.9663086 C48.0855436,9.72045932 46.6694981,8.49611546 45.2750117,7.24928865 C44.4846721,6.54205289 43.6654237,5.87294042 42.7839476,5.28789468 C41.9191309,4.71311289 41.0131557,4.19747107 40.1306997,3.64908232 C39.0728304,2.99170009 37.9081452,2.56892268 36.7620793,2.10117933 C35.2485275,1.48485295 33.703127,0.961390963 32.0920689,0.690617911 C30.8284076,0.475563501 29.544167,0.368036297 28.269236,0.22482961 C27.4357781,0.130498926 26.6018302,0.163734607 25.7698422,0.236071091 C25.3959866,0.267351732 25.0250708,0.358261096 24.6502353,0.378300257 C23.7329905,0.429131299 22.8319152,0.554742625 21.954359,0.827470717 C21.4575181,0.982896404 20.9641071,1.00098053 20.4506068,0.913492481 C19.3942075,0.733140033 18.3373181,0.523461984 17.2559297,0.67253379 C16.5684862,0.768330755 15.8761428,0.837245918 15.2323076,1.13099069 C15.1009927,1.19110817 14.9569382,1.2287427 14.8163136,1.26197838 C13.7545245,1.50831343 12.7691724,1.93451217 11.8465379,2.51271527 C11.5339299,2.70724176 11.243861,2.91398725 11.0944168,3.26589447 C11.0753075,3.31330419 11.0566883,3.39492711 11.0831472,3.42425271 C11.1179359,3.4672636 11.193883,3.4941454 11.2536607,3.49219036 C11.3070686,3.49072408 11.3580267,3.44233684 11.4109446,3.41643255 C11.5089409,3.36657903 11.5995874,3.27909099 11.7176728,3.37977555 C11.7343322,3.39492711 11.7803904,3.38124183 11.8117492,3.37342167 C12.2012842,3.24927663 12.5883693,3.11682266 12.9813342,3.0014753 C13.3008019,2.90567833 13.6271294,2.82845425 13.9500269,2.74389876 C13.9583566,2.75856156 13.9681562,2.77322436 13.9779559,2.78886469 C13.9250379,2.84751589 13.8755498,2.91252097 13.817732,2.96677333 C13.2841426,3.46579732 12.8088608,4.01760738 12.4163859,4.63393377 C12.1949145,4.9843747 11.9273848,5.2619904 11.5647987,5.48779753 C10.256549,6.30402676 8.98602792,7.17792968 7.83849207,8.21556721 C7.53372379,8.49122786 7.23091544,8.76542223 6.92320728,9.03815033 C6.87469915,9.08067245 6.81688137,9.13052597 6.75759365,9.13883489 C6.43959589,9.18135701 6.22743405,9.39201258 6.01380227,9.59826931 C5.70560413,9.89739045 5.40573566,10.205798 5.09116777,10.497099 C4.25281002,11.2732499 3.56242658,12.1637707 3.0239373,13.1667062 C2.57560455,14.0059072 2.15275082,14.8602597 1.72744718,15.7107021 C1.36290121,16.436022 1.00864484,17.1681845 0.655858409,17.898392 C0.539732877,18.1373957 0.498574461,18.3925284 0.455946101,18.65597 C0.390778608,19.0562645 0.223205055,19.4394524 0.12716875,19.8358367 C0.0595513516,20.1217613 -0.00463617885,20.4194162 0.000263632637,20.7102284 C0.0134931236,21.5968391 0.261913566,22.4409277 0.553452349,23.2723084 C0.73719528,23.7923491 0.991985477,24.2605812 1.37809062,24.676516 C1.70931788,25.0313558 1.99742679,25.4350715 2.12188201,25.9365393 C2.31346464,26.7117127 2.54228583,27.4780884 2.76424729,28.2449529 C3.2473687,29.908692 3.86523493,31.5186675 4.64087509,33.0719469 C5.39936591,34.587103 6.3665887,35.9551423 7.52392417,37.1804636 C8.14032045,37.8319807 8.84246344,38.4018749 9.50834782,39.0064711 C9.76656789,39.2425422 10.0120484,39.5020737 10.2986874,39.6985553 C10.932233,40.1296416 11.5701885,40.5592617 12.2395027,40.931208 C13.0190628,41.3652269 13.819202,41.7669877 14.6360005,42.1272038 C16.1294631,42.7880074 17.6415449,43.4126427 19.1487269,44.0436319 C19.6058793,44.2352258 20.081161,44.3852751 20.5334136,44.585178 C20.756845,44.6843963 20.940588,44.8691475 21.1610795,44.9820511 C21.6064724,45.2117683 22.0489253,45.462991 22.5207772,45.6242818 C23.5208287,45.9664138 24.4684522,46.4698366 25.515052,46.6682732 C25.9971934,46.7606488 26.5053039,46.817345 26.9928351,46.7777554 C28.034535,46.6917337 29.024297,46.3593768 29.9934797,45.976189 C30.4192733,45.8095218 30.8362473,45.5910461 31.2767403,45.5069794 C32.6315382,45.2474478 33.9147988,44.7865471 35.1965895,44.2992534 C36.6577133,43.7425557 38.0820885,43.1017913 39.4520758,42.3500784 C40.4286082,41.8148862 41.4306196,41.3075533 42.2973963,40.5885873 C45.0545202,38.3021679 47.6945387,35.8857383 50.2737994,33.4023487 C51.583519,32.1403703 52.8716795,30.8588415 54.1720894,29.5865992 C54.1931586,29.5650937 54.2235375,29.540167 54.2519564,29.5382119 C54.4753878,29.5255042 54.7017591,29.4820045 54.8786423,29.6936376 C54.963409,29.7909009 55.0873742,29.8539509 55.1937001,29.9350851 C57.5191507,31.7405646 59.8343116,33.5597294 62.1725016,35.3485911 C63.5375891,36.3925825 64.8379991,37.4996239 65.9953346,38.7733325 C66.8851403,39.7484088 67.8783321,40.6120477 68.9812797,41.3437215 C69.4335323,41.6443089 69.8852949,41.9453851 70.3576367,42.2112705 C71.1455264,42.6575084 71.9461556,43.0851735 72.7526646,43.4981757 C73.13142,43.6931909 73.5577036,43.8041395 73.9320492,44.0084411 C75.2451987,44.7225195 76.6048964,45.3222281 78.0390712,45.7464718 C78.4178266,45.8588866 78.7990319,45.9644588 79.1782774,46.073941 C79.1831772,46.0607445 79.188567,46.0455929 79.1934668,46.0309301 C78.2458432,45.6917307 77.3006696,45.3520424 76.3530461,45.0113767 C76.3618657,44.988405 76.3677455,44.9654333 76.3760752,44.9400177 C76.6891731,45.0431461 77.0008011,45.1438307 77.3138991,45.2445152 C77.2457917,45.1751113 77.1693546,45.136988 77.0899777,45.1071737 C76.4343829,44.855951 75.7670286,44.6350315 75.1276032,44.3491069 C74.2647464,43.9624977 73.4013996,43.5656246 72.5772513,43.1052126 C71.5370213,42.5235882 70.5247203,41.8921102 69.5246688,41.2464583 C68.9832396,40.8965061 68.4398505,40.5196721 67.9826981,40.0685466 C67.0654534,39.163363 66.2070064,38.200017 65.3245504,37.2601315 C65.2515432,37.1804636 65.1755961,37.1051946 65.101119,37.026993 C65.1804959,37.0338356 65.2383137,37.06365 65.2931916,37.0998182 C66.0565822,37.5988422 66.8219327,38.0978662 67.5853234,38.5998227 C69.0729061,39.5778315 70.5531392,40.5690369 72.0500316,41.5304278 C72.8291016,42.0314069 73.6267909,42.4986614 74.3441233,43.0934824 C75.0492062,43.6785281 75.8297462,44.1540916 76.6597743,44.5455884 C77.0963475,44.7523339 77.5388004,44.9473491 77.9690039,45.1653361 C78.5163128,45.4458844 79.0489223,45.7552695 79.5977012,46.0323964 C79.8010434,46.1365023 80.0318245,46.1878221 80.2498661,46.2635799 C80.2616257,46.2406082 80.2714253,46.2176364 80.2831848,46.194176 C80.0930722,46.0651433 79.9039394,45.9365994 79.6736483,45.7797075 C79.7579251,45.7713985 79.784384,45.7601571 79.8064332,45.7665109 C80.4389988,45.9776553 81.0730345,46.1907546 81.7060901,46.4058091 C81.735489,46.4155843 81.7820372,46.4473537 81.7820372,46.4571289 C81.735489,46.6120658 81.8682739,46.5798076 81.9324614,46.5939817 C82.2240002,46.6550767 82.5184788,46.7015089 82.8100176,46.7626039 C83.1730937,46.8373841 83.5327398,46.9845009 83.8953259,46.9888998 C85.6504383,47.0152928 87.4060408,47.0216467 89.142044,46.684891 C89.2297506,46.6682732 89.3262769,46.6834247 89.4169234,46.6897786 C89.6339851,46.7015089 89.8539866,46.7494073 90.0676184,46.7264356 C90.8824571,46.6418801 91.6727966,46.4717917 92.392089,46.0436379 C93.0320043,45.6624051 93.6601602,45.2577118 94.1555311,44.7039467 C94.6837308,44.1164571 95.1428431,43.466895 95.6210647,42.8359058 C95.796478,42.6042336 95.9885506,42.4097071 96.2600002,42.2904497 C96.5515389,42.1633721 96.8283783,42.0064801 97.1150173,41.8676722 C97.2027239,41.8261276 97.3002301,41.8031559 97.3933266,41.7733416 C97.5172918,41.733752 97.6579164,41.7225105 97.7622824,41.6545729 C98.1895459,41.3764684 98.6236692,41.1042291 99.0225139,40.7909339 C99.6457699,40.2997301 100.258246,39.7943522 100.846224,39.2620926 C101.521908,38.6506538 102.168193,38.0069568 102.825258,37.3740126 C102.896305,37.3065637 102.958042,37.2273846 103.02566,37.1560256 C103.156485,37.0206391 103.267221,36.8520169 103.423525,36.7576862 C103.954664,36.440481 104.435336,36.0607144 104.882198,35.6345157 C105.818552,34.7425286 106.559894,33.7278628 106.874462,32.4526879 C106.966088,32.0812303 107.038605,31.7039076 107.094953,31.3256073 C107.19148,30.7034158 107.204709,30.0768255 107.099363,29.4521902 C107.005777,28.8920712 106.90778,28.332441 106.801455,27.774277 C106.719138,27.3299942 106.799985,26.8935315 106.865152,26.4570688 C106.869562,26.419923 106.896511,26.3827772 106.91268,26.3461202 C106.964128,26.4125916 106.971478,26.4751529 106.982748,26.5362479 C107.046935,26.9135706 107.091523,27.2952922 107.18756,27.6633285 C107.228718,27.8236418 107.358073,27.9741799 107.482528,28.0929485 C107.539366,28.1472009 107.69469,28.1428021 107.780437,28.1061451 C107.823555,28.0875722 107.841685,27.931169 107.820615,27.8495461 C107.68979,27.3412356 107.601594,26.8324364 107.70939,26.3055531 C107.760838,26.0460216 107.808856,25.7850237 107.838745,25.5240259 C107.934781,24.6828699 108.131753,23.8734833 108.538928,23.1217704 C108.636924,22.943373 108.709931,22.7483577 108.778039,22.5567638 C108.828997,22.4150234 108.867215,22.2644853 108.888774,22.1154135 C108.951492,21.6652655 108.99608,21.212185 109,20.7586157 L109,20.6334931 C108.99804,20.423815 108.98726,20.214137 108.964721,20.0044589 C108.880445,19.2063138 108.572246,18.4301629 108.295407,17.6833376 C108.268948,17.6124674 108.242979,17.5411084 108.21603,17.4697495 C108.061686,17.0601686 107.902932,16.654009 107.737809,16.2493157 C107.542306,15.7717972 107.339944,15.2976999 107.127782,14.8265353 C106.906311,14.336309 106.674549,13.8485265 106.427599,13.3700304 C106.195838,12.9203712 105.952317,12.474622 105.680378,12.0464683 C105.536323,11.8167511 105.382469,11.5938765 105.213426,11.3802884 C105.043402,11.1647452 104.84741,10.9711962 104.663667,10.7664058 C104.609279,10.7053108 104.57106,10.6305305 104.526472,10.5625928 C104.425536,10.4057009 104.31921,10.2522302 104.210434,10.1002259 C103.992883,9.80110472 103.761122,9.51078127 103.514171,9.23316558 C103.077108,8.74098423 102.595456,8.28643741 102.076566,7.87685651 C101.324935,7.28399061 100.518426,6.75661854 99.7153472,6.23462284 C98.8818893,5.69454302 98.005803,5.22191208 97.1826347,4.67010201 C96.4922512,4.20920131 95.7876583,3.79180025 95.041417,3.42962907 C94.2995856,3.06794666 93.6092021,2.60460216 92.8683506,2.24145346 C92.0451823,1.83822644 91.196045,1.48192039 90.3473976,1.13099069 C89.2410202,0.67253379 88.0802549,0.409580898 86.8979304,0.237537371 C85.8528006,0.0855330039 84.8047309,0.0131965206 83.7493115,0.00977520044 C83.2921591,0.00782016035 82.8335367,0 82.3754043,0 C82.1583427,0 81.9412811,0.00146628007 81.7242194,0.00635388029 M62.8423059,7.63052146 C62.8285864,7.47167446 62.8854242,7.32358017 62.9545115,7.18281728 C63.0853365,6.92475199 63.2127316,6.66473166 63.3621759,6.41595281 C63.3670757,6.40666637 63.3739354,6.39786869 63.3783452,6.38809349 C63.5077003,6.17841544 63.6571445,5.97704631 63.8438273,5.81526674 C64.0197306,5.66472866 64.2196429,5.53911733 64.4107355,5.413506 C64.6738554,5.24146248 64.9404051,5.07821663 65.2064649,4.9110607 C65.4558653,4.75759005 65.7052657,4.60607445 65.957116,4.45846892 C66.2109263,4.31184091 66.4657165,4.16814547 66.7224666,4.03031514 C66.9806866,3.8939511 67.2408666,3.76149713 67.5059464,3.63784084 C67.7705363,3.51222952 68.037576,3.39248331 68.3090255,3.28202355 C68.4481802,3.22630491 68.5878248,3.1700975 68.7284494,3.12024398 C68.8088063,3.09091838 68.8886732,3.0625703 68.9680502,3.03471098 C69.0263579,3.01467182 69.1155345,2.96041945 69.1767821,2.96041945 C69.2728185,2.92669501 69.3811043,2.86902133 69.4820404,2.85289225 C69.4977198,2.84995969 69.5614174,2.85924613 69.5746468,2.85924613 C69.4335323,2.95504309 69.2958476,3.0527951 69.1571829,3.15005834 C68.2281786,3.79619909 67.2967245,4.43891852 66.3716401,5.08994687 C66.1839773,5.22191208 66.0134639,5.38369164 65.8458903,5.54253865 C65.7665134,5.61536389 65.6758668,5.67939146 65.5896302,5.74537406 C65.33288,5.94234435 65.0712301,6.13540456 64.81301,6.33041981 C64.5307809,6.54205289 64.2495317,6.75173094 63.9731824,6.96825163 C63.617456,7.24244601 63.2676095,7.52299426 62.9148231,7.80060995 C62.9099233,7.80403127 62.9035535,7.80891887 62.8966938,7.80891887 L62.891794,7.80891887 C62.8584752,7.79767739 62.8432858,7.65495946 62.8423059,7.63052146 M86.3168127,38.9649265 C85.5019741,38.8657082 84.6822356,38.8148771 83.8683769,38.7039286 C82.7972781,38.5587669 81.8182958,38.1408771 80.8706722,37.6350105 C77.6877547,35.9351031 74.6704508,33.9810405 71.7854418,31.8148561 C69.5937561,30.1696899 67.4162799,28.5093721 65.3201405,26.7464147 C65.0761299,26.5430905 64.8110501,26.3632268 64.5694894,26.1584364 C63.3190575,25.0978271 62.0686256,24.0372179 60.8265234,22.9668334 C60.5977022,22.7698631 60.4090595,22.5259719 60.1968976,22.3089624 C60.1258504,22.2346709 60.0381437,22.1789523 59.9504371,22.1075933 C60.0513732,21.9834483 60.1508394,21.8431741 60.265005,21.7195179 C61.7486679,20.1085648 63.2333108,18.4995668 64.7184437,16.8900801 C65.5979598,15.9389531 66.4872756,14.9936912 67.3535623,14.0303452 C67.7455472,13.5963263 68.0674648,13.0973023 68.4677794,12.6725699 C69.3757145,11.7111789 70.3164783,10.7810686 71.2376429,9.83238536 C71.5845495,9.47265799 72.0274925,9.25809234 72.4464264,9.00686969 C74.6503616,7.67646491 77.0600888,6.98291443 79.5991712,6.6520239 C81.111253,6.45554237 82.6169651,6.37147565 84.1334567,6.54694049 C84.6322575,6.6031479 85.138898,6.5982603 85.6411287,6.61243434 C86.7984642,6.64567002 87.9264008,6.86903335 88.9916198,7.29523209 C90.2915398,7.81722779 91.5218824,8.48145266 92.5699521,9.43453471 C92.6684383,9.52202275 92.780644,9.59338171 92.8815801,9.6779372 C93.198108,9.93698001 93.4083099,10.2766682 93.6356611,10.6109801 C94.3804325,11.7058025 95.1041346,12.812844 95.6289044,14.032789 C95.7798186,14.3822524 95.8930043,14.7527325 95.9807109,15.1237014 C96.4030747,16.873951 97.2340827,18.3954609 98.5011739,19.6789448 C98.9083483,20.0904807 99.2616247,20.5396512 99.5414039,21.0469841 C99.693788,21.3226447 99.8623416,21.5890189 100.017666,21.8632133 C100.336153,22.4228435 100.470408,23.0460126 100.574284,23.6686928 C100.657091,24.1686943 100.667381,24.6794486 100.521856,25.1784725 C100.514996,25.1970454 100.510097,25.2165958 100.510097,25.236635 C100.498337,25.9834603 100.233257,26.6818984 100.102432,27.4072182 C99.7785548,29.1946136 99.227816,30.9150489 98.5540919,32.5998047 C98.1601471,33.5861224 97.6726158,34.5206316 97.1115874,35.41995 C96.8215186,35.882317 96.3815155,36.1995223 95.9807109,36.5533845 C95.4819101,36.9952236 94.9218616,37.3510409 94.3191848,37.6286566 C93.2177072,38.1325682 92.1265192,38.6662941 90.910386,38.855933 C90.0024509,38.9986509 89.0930459,39.0753862 88.181681,39.0753862 C87.5613648,39.0753862 86.9400687,39.0397068 86.3168127,38.9649265 M24.3557566,38.4976719 C23.9338828,38.4707901 23.5095591,38.452706 23.0857254,38.442442 C21.9558289,38.418004 20.8514114,38.2063709 19.8048117,37.807054 C18.4529537,37.2914122 17.1829226,36.6007942 16.0814449,35.6408696 C15.819795,35.4126186 15.5248263,35.1931654 15.3396135,34.9096846 C14.805044,34.0915003 14.3062432,33.248878 13.819202,32.4028344 C13.3885085,31.6530765 13.0969698,30.8539539 12.9279263,29.9976464 C12.6006188,28.3392836 11.8333084,26.9013516 10.6647033,25.6657663 C10.3197566,25.3026176 10.0610466,24.8529584 9.78812706,24.4267596 C9.59605445,24.1291048 9.44514025,23.8060344 9.27168693,23.4971381 C9.02914626,23.067518 8.90567101,22.6080836 8.88362186,22.1188348 C8.84785323,21.2796338 8.98455797,20.4624271 9.16389107,19.6457091 C9.51814744,18.0284022 10.0017588,16.4511736 10.5931661,14.9066919 C11.1194058,13.5332762 11.9180751,12.3187076 12.8784382,11.2155762 C13.221425,10.8221244 13.6648579,10.5098068 14.0872217,10.1945565 C14.6026818,9.81332372 15.1259817,9.43306842 15.6811303,9.11439689 C16.2519584,8.7854614 16.8399357,8.47803134 17.4911207,8.31283045 C17.7464009,8.24978041 17.9943313,8.15153965 18.2427518,8.05965276 C19.6171489,7.55329738 21.0106553,7.11683468 22.4526698,6.83921899 C22.9397111,6.7448883 23.4179327,6.59483898 23.9084038,6.53569901 C24.9339343,6.41106521 25.957505,6.49073309 26.9761758,6.6544677 C27.6547997,6.76297242 28.3402833,6.81771355 29.0159673,6.93794851 C29.7298698,7.06551488 30.4354427,7.24097973 31.1444454,7.39445037 C31.3698367,7.44381514 31.5913082,7.52152798 31.8201294,7.54303342 C32.7045454,7.62710014 33.5110543,7.949193 34.2617055,8.38761074 C35.2431377,8.95848244 36.1907612,9.59142667 37.1452445,10.2111744 C37.6832438,10.5596603 38.2227131,10.9081462 38.7283736,11.3001317 C39.1918958,11.6598591 39.6137696,12.0709063 40.044463,12.4692457 C40.6652691,13.0459825 41.2782355,13.6290732 41.889732,14.2136302 C43.2293404,15.4941815 44.5248506,16.8177436 45.735594,18.2214624 C46.2535041,18.823126 46.7655344,19.4296772 47.2927541,20.0225431 C47.4431783,20.1926315 47.6396608,20.3197092 47.8087043,20.4751348 C47.9262997,20.5811958 48.048795,20.6867679 48.1418914,20.8118905 C48.5412261,21.3480602 48.9484004,21.8778761 49.3129464,22.4345738 C49.5202084,22.7532453 49.7598092,23.091956 49.6392738,23.5166885 C49.608895,23.6188393 49.5662666,23.7459169 49.4868897,23.8011468 C49.038067,24.1032005 48.7220291,24.5279329 48.386882,24.9375138 C46.2353748,27.5660652 43.941773,30.0626514 41.4673682,32.3915929 C39.8293613,33.931187 38.0507297,35.2874961 36.1280437,36.4639414 C34.3636215,37.5441011 32.427706,38.0744057 30.4158434,38.3554427 C29.1732512,38.5304188 27.9115498,38.5802723 26.814972,38.6706929 C25.8879276,38.6047103 25.1206172,38.5470367 24.3557566,38.4976719 M107.385022,22.6789538 L107.385022,21.9770944 C107.383062,21.8065171 107.376692,21.6349624 107.381592,21.4643851 C107.385022,21.2957629 107.43108,21.1227419 107.407561,20.9590073 C107.356603,20.6139427 107.300255,20.2703444 107.240968,19.9287011 C107.18903,19.6281137 107.098383,19.3069984 107.106713,19.0034784 C107.109653,18.8529403 107.149341,18.7043573 107.123372,18.554308 C107.099363,18.4067024 107.065064,18.2581194 107.035666,18.1129577 C106.977358,17.8284993 106.91268,17.5464848 106.817134,17.2718017 C106.192408,15.4809849 105.299662,13.812847 104.369188,12.167192 C104.113908,11.7160665 103.80767,11.2884015 103.484772,10.8802869 C103.107487,10.4042346 102.688063,9.96386181 102.287258,9.50589367 C102.189262,9.3929901 102.093226,9.27617646 101.997189,9.15985157 C102.010419,9.14861009 102.023648,9.13590233 102.036878,9.12368333 C102.064807,9.14078993 102.095186,9.15398645 102.118215,9.17549189 C102.802228,9.82261016 103.487712,10.4702172 104.170746,11.1212455 C104.289811,11.2356154 104.410347,11.3494965 104.516183,11.4765741 C104.625448,11.609028 104.698945,11.755656 104.783222,11.9027728 C104.883668,12.0733501 104.982155,12.2449048 105.079171,12.4164596 C105.273203,12.7571253 105.461846,13.0987686 105.647549,13.4438332 C105.993476,14.0850863 106.328133,14.7326933 106.65936,15.3803004 C106.945999,15.9404194 107.227248,16.5020046 107.517807,17.0601686 C107.648142,17.3128575 107.783867,17.5645689 107.924491,17.8138365 C108.037677,18.0103181 108.172912,18.2024007 108.259149,18.4150113 C108.320396,18.570437 108.335586,18.7155988 108.322356,18.8661368 C108.300797,19.1007417 108.22142,19.3270376 108.181731,19.558221 C108.142043,19.8030898 108.111664,20.0489361 108.067076,20.2918498 C107.994559,20.6950769 107.895093,21.0929275 107.787297,21.4883344 C107.68979,21.8480617 107.583464,22.2068116 107.483998,22.5670277 C107.472729,22.6061285 107.45264,22.6447406 107.43843,22.6818863 C107.419811,22.6818863 107.401192,22.6809088 107.385022,22.6789538 M99.8657714,19.5117888 C99.5845222,19.3069984 99.3194424,19.0763037 99.0553426,18.8460977 C98.2757826,18.1720976 97.7289636,17.3250765 97.2870006,16.4091402 C97.1130573,16.0494128 97.0302505,15.6461858 96.8827662,15.2713069 C96.2320712,13.6124554 95.3427554,12.0860578 94.3010555,10.645682 C94.1868899,10.4883013 94.0761542,10.3299431 93.9649285,10.1715848 C93.9781579,10.1578995 93.9913874,10.144703 94.0046169,10.1319953 C94.0761542,10.1833151 94.1555311,10.2277922 94.2177587,10.2869322 C95.1158942,11.1261331 96.0154996,11.9624015 96.8396479,12.8793153 C97.2669114,13.3563451 97.6848653,13.8338637 98.0626408,14.3514605 C98.7393048,15.2864584 99.1665683,16.3465789 99.6109812,17.3988793 C99.7565056,17.7444326 99.9240792,18.0811883 100.060784,18.4301629 C100.16368,18.6862732 100.251387,18.9506923 100.307734,19.2195103 C100.329784,19.3289926 100.285195,19.5025024 100.205818,19.5650637 C100.185239,19.580704 100.15192,19.5875466 100.113702,19.5875466 C100.031385,19.5875466 99.9245692,19.5557772 99.8657714,19.5117888 M1.7191175,22.1667333 C1.68432884,22.0680038 1.65982978,21.9653641 1.62014131,21.8676121 C1.59662221,21.8148261 1.5633035,21.7390683 1.51871521,21.727338 C1.07332235,21.6071031 1.12477037,21.2053423 1.05323312,20.8910696 C0.714166166,19.3798236 1.07332235,17.9775711 1.75586609,16.6276159 C2.49916749,15.1593808 3.47667988,13.8573241 4.62715562,12.6862551 C4.82951783,12.4804872 5.05147929,12.2957359 5.26021126,12.0992543 C5.3033296,12.0596648 5.33419842,12.0098113 5.36898708,11.9658229 C5.37143698,11.9374748 5.35967744,11.8993515 5.37388689,11.8846887 C5.53803057,11.7194878 5.70707407,11.5557532 5.87562759,11.3925074 C5.89277693,11.4105915 5.91090623,11.4286756 5.92903553,11.4452934 C5.74382266,11.6168482 5.5581198,11.7888917 5.37388689,11.9604465 C5.52480108,11.9477387 5.5086317,12.0249628 5.45865363,12.1173385 C5.35967744,12.2957359 5.24551183,12.4677794 5.15927515,12.6525307 C4.76141045,13.5171472 4.35570606,14.3773648 3.98185045,15.2498014 C3.65993283,16.0015144 3.32086588,16.749806 3.15476227,17.5577263 C2.80197584,19.3025995 2.45310926,21.0484503 2.1037527,22.7947899 C2.09199316,22.8505085 2.08023361,22.906716 2.06847406,22.9614571 C2.05034476,22.9648784 2.0336854,22.967811 2.0155561,22.9712323 C1.91608992,22.7033918 1.81711373,22.4365288 1.7191175,22.1667333 M13.9583566,34.5191653 C12.6976351,33.4155452 11.5339299,32.2263921 10.7401604,30.7327414 C10.0517369,29.4375274 9.43485065,28.1061451 9.14331186,26.6535503 C9.11538294,26.5201188 9.113913,26.3778896 9.12175269,26.2410368 C9.13400222,26.0724146 9.26629713,26.0162072 9.41574138,26.1007627 C9.44367031,26.1168918 9.47355916,26.1339984 9.49805822,26.1550151 C9.93022159,26.5284277 10.3741445,26.8920652 10.7916084,27.2816069 C10.9557521,27.4370326 11.0713877,27.6467106 11.1904531,27.8431922 C11.5603889,28.4560972 11.843108,29.100283 12.0351806,29.7957885 C12.335539,30.8754594 12.8519792,31.8695972 13.376749,32.855915 C13.4914046,33.0704806 13.5820511,33.3001978 13.7114061,33.5069433 C13.9848156,33.9424285 14.2763544,34.3656947 14.5590735,34.7953147 C14.624241,34.8911117 14.6835287,34.9888637 14.7447764,35.0861269 C14.7335068,35.0973684 14.7202773,35.1076324 14.7090077,35.1188739 C14.4581374,34.918971 14.1984474,34.7288434 13.9583566,34.5191653 M104.145267,34.4741994 C104.158006,34.3725373 104.153596,34.2650101 104.188875,34.1706794 C104.504913,33.344675 104.83467,32.5255132 105.144338,31.6975537 C105.295253,31.2962817 105.410398,30.8832795 105.543183,30.4751649 C105.550043,30.4585471 105.568172,30.4453505 105.62256,30.3827892 C105.657349,30.5460351 105.682338,30.6696914 105.707327,30.7938364 C105.719086,30.7889488 105.731826,30.7840612 105.743585,30.7806399 C105.780334,30.8417349 105.841582,30.9013636 105.846481,30.9673462 C105.87931,31.3808372 105.726926,31.7606038 105.597571,32.138904 C105.323181,32.9468243 104.887098,33.6682341 104.375558,34.3476105 C104.3344,34.4043067 104.280992,34.4502502 104.234933,34.5010812 C104.205044,34.491306 104.175156,34.4834858 104.145267,34.4741994 M87.1360612,45.5768721 C88.8421755,45.2953463 90.5228109,44.8960293 92.156408,44.3129386 C92.3421109,44.2464673 92.5336935,44.2019901 92.7443854,44.1423614 C92.7242962,44.1956362 92.7174365,44.2401134 92.6944073,44.2733491 C92.2651839,44.8657262 91.7394341,45.3403122 91.0083822,45.5201759 C90.5086014,45.6428547 89.9970611,45.7132361 89.4948304,45.8310273 C89.0822663,45.9268242 88.6785218,46.0524356 88.2728175,46.169738 C86.7357466,46.6169534 85.164377,46.7342558 83.5738982,46.6599643 C83.4435633,46.6550767 83.3142082,46.6120658 83.1848532,46.5876278 C83.1848532,46.5646561 83.1863231,46.5431506 83.1882831,46.5196901 C83.2608003,46.5099149 83.3338075,46.4879207 83.4068147,46.4918308 C84.1167974,46.5182239 84.8047309,46.4023877 85.4818848,46.196131 C85.632309,46.1496988 85.7964527,46.1511651 85.9503068,46.1115755 C86.0218441,46.0934914 86.0816218,46.0309301 86.1477692,45.9879192 C86.0796618,45.9453971 86.0115545,45.8671955 85.9424671,45.8652405 C85.7219756,45.8588866 85.4916845,45.8471563 85.2795226,45.8984761 C84.7630825,46.0260425 84.2481123,46.161429 83.7135429,46.0539018 C83.1544744,45.9419758 82.6003057,45.8075668 82.0451571,45.6804892 C82.0054686,45.670714 81.9672501,45.6457872 81.9344213,45.5895798 C82.1681423,45.6061977 82.4013733,45.6325907 82.6350944,45.6379671 C83.500891,45.6526299 84.3691376,45.7112811 85.2354243,45.7112811 C85.8704399,45.7112811 86.5044755,45.6800004 87.1360612,45.5768721 M25.2499722,46.0260425 C24.2180719,45.6345457 23.2082207,45.1912404 22.1915099,44.7635754 C21.8632225,44.6247675 21.5486546,44.4600554 21.227227,44.308051 C21.2326167,44.2943658 21.2370266,44.2811692 21.2419264,44.2679727 C22.0405957,44.3784325 22.836815,44.5074651 23.6369542,44.5988632 C25.150996,44.770418 26.6679776,44.8759902 28.1932889,44.7753056 C28.9052315,44.7278959 29.6157042,44.6643571 30.3281368,44.6198799 C30.4555319,44.611571 30.5883168,44.6643571 30.7171818,44.6892839 C30.6240854,44.7738393 30.5432385,44.8779452 30.4374026,44.9424615 C29.5226078,45.4923166 28.580864,45.9815654 27.5190749,46.1907546 C27.2280261,46.2479396 26.9374673,46.2777539 26.6493583,46.2777539 C26.1730967,46.2777539 25.7036947,46.1966198 25.2499722,46.0260425" id="path-1"></path>
        <linearGradient x1="-0.000207659185%" y1="50.0000339%" x2="99.9999281%" y2="50.0000339%" id="linearGradient-3">
            <stop stop-color="#0097B1" offset="0%"></stop>
            <stop stop-color="#005191" offset="100%"></stop>
        </linearGradient>
    </defs>
    <g id="Page-1" stroke="none" stroke-width="1" fill="none" fill-rule="evenodd">
        <g id="With-Font-diverso-Copy-3" transform="translate(-153.000000, -212.000000)">
            <g id="Group-3-Copy" transform="translate(153.000000, 212.000000)">
                <mask id="mask-2" fill="white">
                    <use xlink:href="#path-1"></use>
                </mask>
                <g id="Clip-2"></g>
                <path d="M81.7242194,0.00635388029 C81.0103169,0.022971721 80.2929845,0.0410558418 79.5825118,0.106060925 C78.7480739,0.182796248 77.914616,0.302053694 77.0836079,0.417889819 C76.2187912,0.538124784 75.3564244,0.66373611 74.4965075,0.814274197 C73.8056341,0.934509162 73.1250502,1.10850773 72.4366267,1.23216402 C72.3058018,1.2556245 72.1710569,1.25415822 72.0363121,1.2531807 C71.8927477,1.25171442 71.7496732,1.2507369 71.6129684,1.27859622 C71.1675756,1.3680393 70.7118931,1.45845991 70.2963891,1.63245847 C67.9728985,2.60460216 65.8062018,3.86071541 63.7644504,5.32943928 C62.6414136,6.1373596 61.9412305,7.23560337 61.7177991,8.60364267 C61.5614951,9.54890455 61.1146323,10.3201679 60.4438481,10.9755951 C59.9489672,11.4619113 59.4119478,11.9091267 58.9420559,12.4164596 C57.899866,13.5415852 56.886095,14.6931038 55.8649743,15.8382685 C55.6312533,16.1002439 55.5053281,16.1232156 55.2402483,15.8939872 C53.6615291,14.5347455 52.0852597,13.1711051 50.5070304,11.8103972 C50.4541125,11.76592 50.3977646,11.7238866 50.3394569,11.6794095 C50.3080981,11.7390382 50.2865389,11.7771615 50.2600799,11.8245712 C49.9950001,11.5308264 49.7632391,11.2209526 49.48003,10.9663086 C48.0855436,9.72045932 46.6694981,8.49611546 45.2750117,7.24928865 C44.4846721,6.54205289 43.6654237,5.87294042 42.7839476,5.28789468 C41.9191309,4.71311289 41.0131557,4.19747107 40.1306997,3.64908232 C39.0728304,2.99170009 37.9081452,2.56892268 36.7620793,2.10117933 C35.2485275,1.48485295 33.703127,0.961390963 32.0920689,0.690617911 C30.8284076,0.475563501 29.544167,0.368036297 28.269236,0.22482961 C27.4357781,0.130498926 26.6018302,0.163734607 25.7698422,0.236071091 C25.3959866,0.267351732 25.0250708,0.358261096 24.6502353,0.378300257 C23.7329905,0.429131299 22.8319152,0.554742625 21.954359,0.827470717 C21.4575181,0.982896404 20.9641071,1.00098053 20.4506068,0.913492481 C19.3942075,0.733140033 18.3373181,0.523461984 17.2559297,0.67253379 C16.5684862,0.768330755 15.8761428,0.837245918 15.2323076,1.13099069 C15.1009927,1.19110817 14.9569382,1.2287427 14.8163136,1.26197838 C13.7545245,1.50831343 12.7691724,1.93451217 11.8465379,2.51271527 C11.5339299,2.70724176 11.243861,2.91398725 11.0944168,3.26589447 C11.0753075,3.31330419 11.0566883,3.39492711 11.0831472,3.42425271 C11.1179359,3.4672636 11.193883,3.4941454 11.2536607,3.49219036 C11.3070686,3.49072408 11.3580267,3.44233684 11.4109446,3.41643255 C11.5089409,3.36657903 11.5995874,3.27909099 11.7176728,3.37977555 C11.7343322,3.39492711 11.7803904,3.38124183 11.8117492,3.37342167 C12.2012842,3.24927663 12.5883693,3.11682266 12.9813342,3.0014753 C13.3008019,2.90567833 13.6271294,2.82845425 13.9500269,2.74389876 C13.9583566,2.75856156 13.9681562,2.77322436 13.9779559,2.78886469 C13.9250379,2.84751589 13.8755498,2.91252097 13.817732,2.96677333 C13.2841426,3.46579732 12.8088608,4.01760738 12.4163859,4.63393377 C12.1949145,4.9843747 11.9273848,5.2619904 11.5647987,5.48779753 C10.256549,6.30402676 8.98602792,7.17792968 7.83849207,8.21556721 C7.53372379,8.49122786 7.23091544,8.76542223 6.92320728,9.03815033 C6.87469915,9.08067245 6.81688137,9.13052597 6.75759365,9.13883489 C6.43959589,9.18135701 6.22743405,9.39201258 6.01380227,9.59826931 C5.70560413,9.89739045 5.40573566,10.205798 5.09116777,10.497099 C4.25281002,11.2732499 3.56242658,12.1637707 3.0239373,13.1667062 C2.57560455,14.0059072 2.15275082,14.8602597 1.72744718,15.7107021 C1.36290121,16.436022 1.00864484,17.1681845 0.655858409,17.898392 C0.539732877,18.1373957 0.498574461,18.3925284 0.455946101,18.65597 C0.390778608,19.0562645 0.223205055,19.4394524 0.12716875,19.8358367 C0.0595513516,20.1217613 -0.00463617885,20.4194162 0.000263632637,20.7102284 C0.0134931236,21.5968391 0.261913566,22.4409277 0.553452349,23.2723084 C0.73719528,23.7923491 0.991985477,24.2605812 1.37809062,24.676516 C1.70931788,25.0313558 1.99742679,25.4350715 2.12188201,25.9365393 C2.31346464,26.7117127 2.54228583,27.4780884 2.76424729,28.2449529 C3.2473687,29.908692 3.86523493,31.5186675 4.64087509,33.0719469 C5.39936591,34.587103 6.3665887,35.9551423 7.52392417,37.1804636 C8.14032045,37.8319807 8.84246344,38.4018749 9.50834782,39.0064711 C9.76656789,39.2425422 10.0120484,39.5020737 10.2986874,39.6985553 C10.932233,40.1296416 11.5701885,40.5592617 12.2395027,40.931208 C13.0190628,41.3652269 13.819202,41.7669877 14.6360005,42.1272038 C16.1294631,42.7880074 17.6415449,43.4126427 19.1487269,44.0436319 C19.6058793,44.2352258 20.081161,44.3852751 20.5334136,44.585178 C20.756845,44.6843963 20.940588,44.8691475 21.1610795,44.9820511 C21.6064724,45.2117683 22.0489253,45.462991 22.5207772,45.6242818 C23.5208287,45.9664138 24.4684522,46.4698366 25.515052,46.6682732 C25.9971934,46.7606488 26.5053039,46.817345 26.9928351,46.7777554 C28.034535,46.6917337 29.024297,46.3593768 29.9934797,45.976189 C30.4192733,45.8095218 30.8362473,45.5910461 31.2767403,45.5069794 C32.6315382,45.2474478 33.9147988,44.7865471 35.1965895,44.2992534 C36.6577133,43.7425557 38.0820885,43.1017913 39.4520758,42.3500784 C40.4286082,41.8148862 41.4306196,41.3075533 42.2973963,40.5885873 C45.0545202,38.3021679 47.6945387,35.8857383 50.2737994,33.4023487 C51.583519,32.1403703 52.8716795,30.8588415 54.1720894,29.5865992 C54.1931586,29.5650937 54.2235375,29.540167 54.2519564,29.5382119 C54.4753878,29.5255042 54.7017591,29.4820045 54.8786423,29.6936376 C54.963409,29.7909009 55.0873742,29.8539509 55.1937001,29.9350851 C57.5191507,31.7405646 59.8343116,33.5597294 62.1725016,35.3485911 C63.5375891,36.3925825 64.8379991,37.4996239 65.9953346,38.7733325 C66.8851403,39.7484088 67.8783321,40.6120477 68.9812797,41.3437215 C69.4335323,41.6443089 69.8852949,41.9453851 70.3576367,42.2112705 C71.1455264,42.6575084 71.9461556,43.0851735 72.7526646,43.4981757 C73.13142,43.6931909 73.5577036,43.8041395 73.9320492,44.0084411 C75.2451987,44.7225195 76.6048964,45.3222281 78.0390712,45.7464718 C78.4178266,45.8588866 78.7990319,45.9644588 79.1782774,46.073941 C79.1831772,46.0607445 79.188567,46.0455929 79.1934668,46.0309301 C78.2458432,45.6917307 77.3006696,45.3520424 76.3530461,45.0113767 C76.3618657,44.988405 76.3677455,44.9654333 76.3760752,44.9400177 C76.6891731,45.0431461 77.0008011,45.1438307 77.3138991,45.2445152 C77.2457917,45.1751113 77.1693546,45.136988 77.0899777,45.1071737 C76.4343829,44.855951 75.7670286,44.6350315 75.1276032,44.3491069 C74.2647464,43.9624977 73.4013996,43.5656246 72.5772513,43.1052126 C71.5370213,42.5235882 70.5247203,41.8921102 69.5246688,41.2464583 C68.9832396,40.8965061 68.4398505,40.5196721 67.9826981,40.0685466 C67.0654534,39.163363 66.2070064,38.200017 65.3245504,37.2601315 C65.2515432,37.1804636 65.1755961,37.1051946 65.101119,37.026993 C65.1804959,37.0338356 65.2383137,37.06365 65.2931916,37.0998182 C66.0565822,37.5988422 66.8219327,38.0978662 67.5853234,38.5998227 C69.0729061,39.5778315 70.5531392,40.5690369 72.0500316,41.5304278 C72.8291016,42.0314069 73.6267909,42.4986614 74.3441233,43.0934824 C75.0492062,43.6785281 75.8297462,44.1540916 76.6597743,44.5455884 C77.0963475,44.7523339 77.5388004,44.9473491 77.9690039,45.1653361 C78.5163128,45.4458844 79.0489223,45.7552695 79.5977012,46.0323964 C79.8010434,46.1365023 80.0318245,46.1878221 80.2498661,46.2635799 C80.2616257,46.2406082 80.2714253,46.2176364 80.2831848,46.194176 C80.0930722,46.0651433 79.9039394,45.9365994 79.6736483,45.7797075 C79.7579251,45.7713985 79.784384,45.7601571 79.8064332,45.7665109 C80.4389988,45.9776553 81.0730345,46.1907546 81.7060901,46.4058091 C81.735489,46.4155843 81.7820372,46.4473537 81.7820372,46.4571289 C81.735489,46.6120658 81.8682739,46.5798076 81.9324614,46.5939817 C82.2240002,46.6550767 82.5184788,46.7015089 82.8100176,46.7626039 C83.1730937,46.8373841 83.5327398,46.9845009 83.8953259,46.9888998 C85.6504383,47.0152928 87.4060408,47.0216467 89.142044,46.684891 C89.2297506,46.6682732 89.3262769,46.6834247 89.4169234,46.6897786 C89.6339851,46.7015089 89.8539866,46.7494073 90.0676184,46.7264356 C90.8824571,46.6418801 91.6727966,46.4717917 92.392089,46.0436379 C93.0320043,45.6624051 93.6601602,45.2577118 94.1555311,44.7039467 C94.6837308,44.1164571 95.1428431,43.466895 95.6210647,42.8359058 C95.796478,42.6042336 95.9885506,42.4097071 96.2600002,42.2904497 C96.5515389,42.1633721 96.8283783,42.0064801 97.1150173,41.8676722 C97.2027239,41.8261276 97.3002301,41.8031559 97.3933266,41.7733416 C97.5172918,41.733752 97.6579164,41.7225105 97.7622824,41.6545729 C98.1895459,41.3764684 98.6236692,41.1042291 99.0225139,40.7909339 C99.6457699,40.2997301 100.258246,39.7943522 100.846224,39.2620926 C101.521908,38.6506538 102.168193,38.0069568 102.825258,37.3740126 C102.896305,37.3065637 102.958042,37.2273846 103.02566,37.1560256 C103.156485,37.0206391 103.267221,36.8520169 103.423525,36.7576862 C103.954664,36.440481 104.435336,36.0607144 104.882198,35.6345157 C105.818552,34.7425286 106.559894,33.7278628 106.874462,32.4526879 C106.966088,32.0812303 107.038605,31.7039076 107.094953,31.3256073 C107.19148,30.7034158 107.204709,30.0768255 107.099363,29.4521902 C107.005777,28.8920712 106.90778,28.332441 106.801455,27.774277 C106.719138,27.3299942 106.799985,26.8935315 106.865152,26.4570688 C106.869562,26.419923 106.896511,26.3827772 106.91268,26.3461202 C106.964128,26.4125916 106.971478,26.4751529 106.982748,26.5362479 C107.046935,26.9135706 107.091523,27.2952922 107.18756,27.6633285 C107.228718,27.8236418 107.358073,27.9741799 107.482528,28.0929485 C107.539366,28.1472009 107.69469,28.1428021 107.780437,28.1061451 C107.823555,28.0875722 107.841685,27.931169 107.820615,27.8495461 C107.68979,27.3412356 107.601594,26.8324364 107.70939,26.3055531 C107.760838,26.0460216 107.808856,25.7850237 107.838745,25.5240259 C107.934781,24.6828699 108.131753,23.8734833 108.538928,23.1217704 C108.636924,22.943373 108.709931,22.7483577 108.778039,22.5567638 C108.828997,22.4150234 108.867215,22.2644853 108.888774,22.1154135 C108.951492,21.6652655 108.99608,21.212185 109,20.7586157 L109,20.6334931 C108.99804,20.423815 108.98726,20.214137 108.964721,20.0044589 C108.880445,19.2063138 108.572246,18.4301629 108.295407,17.6833376 C108.268948,17.6124674 108.242979,17.5411084 108.21603,17.4697495 C108.061686,17.0601686 107.902932,16.654009 107.737809,16.2493157 C107.542306,15.7717972 107.339944,15.2976999 107.127782,14.8265353 C106.906311,14.336309 106.674549,13.8485265 106.427599,13.3700304 C106.195838,12.9203712 105.952317,12.474622 105.680378,12.0464683 C105.536323,11.8167511 105.382469,11.5938765 105.213426,11.3802884 C105.043402,11.1647452 104.84741,10.9711962 104.663667,10.7664058 C104.609279,10.7053108 104.57106,10.6305305 104.526472,10.5625928 C104.425536,10.4057009 104.31921,10.2522302 104.210434,10.1002259 C103.992883,9.80110472 103.761122,9.51078127 103.514171,9.23316558 C103.077108,8.74098423 102.595456,8.28643741 102.076566,7.87685651 C101.324935,7.28399061 100.518426,6.75661854 99.7153472,6.23462284 C98.8818893,5.69454302 98.005803,5.22191208 97.1826347,4.67010201 C96.4922512,4.20920131 95.7876583,3.79180025 95.041417,3.42962907 C94.2995856,3.06794666 93.6092021,2.60460216 92.8683506,2.24145346 C92.0451823,1.83822644 91.196045,1.48192039 90.3473976,1.13099069 C89.2410202,0.67253379 88.0802549,0.409580898 86.8979304,0.237537371 C85.8528006,0.0855330039 84.8047309,0.0131965206 83.7493115,0.00977520044 C83.2921591,0.00782016035 82.8335367,0 82.3754043,0 C82.1583427,0 81.9412811,0.00146628007 81.7242194,0.00635388029 M62.8423059,7.63052146 C62.8285864,7.47167446 62.8854242,7.32358017 62.9545115,7.18281728 C63.0853365,6.92475199 63.2127316,6.66473166 63.3621759,6.41595281 C63.3670757,6.40666637 63.3739354,6.39786869 63.3783452,6.38809349 C63.5077003,6.17841544 63.6571445,5.97704631 63.8438273,5.81526674 C64.0197306,5.66472866 64.2196429,5.53911733 64.4107355,5.413506 C64.6738554,5.24146248 64.9404051,5.07821663 65.2064649,4.9110607 C65.4558653,4.75759005 65.7052657,4.60607445 65.957116,4.45846892 C66.2109263,4.31184091 66.4657165,4.16814547 66.7224666,4.03031514 C66.9806866,3.8939511 67.2408666,3.76149713 67.5059464,3.63784084 C67.7705363,3.51222952 68.037576,3.39248331 68.3090255,3.28202355 C68.4481802,3.22630491 68.5878248,3.1700975 68.7284494,3.12024398 C68.8088063,3.09091838 68.8886732,3.0625703 68.9680502,3.03471098 C69.0263579,3.01467182 69.1155345,2.96041945 69.1767821,2.96041945 C69.2728185,2.92669501 69.3811043,2.86902133 69.4820404,2.85289225 C69.4977198,2.84995969 69.5614174,2.85924613 69.5746468,2.85924613 C69.4335323,2.95504309 69.2958476,3.0527951 69.1571829,3.15005834 C68.2281786,3.79619909 67.2967245,4.43891852 66.3716401,5.08994687 C66.1839773,5.22191208 66.0134639,5.38369164 65.8458903,5.54253865 C65.7665134,5.61536389 65.6758668,5.67939146 65.5896302,5.74537406 C65.33288,5.94234435 65.0712301,6.13540456 64.81301,6.33041981 C64.5307809,6.54205289 64.2495317,6.75173094 63.9731824,6.96825163 C63.617456,7.24244601 63.2676095,7.52299426 62.9148231,7.80060995 C62.9099233,7.80403127 62.9035535,7.80891887 62.8966938,7.80891887 L62.891794,7.80891887 C62.8584752,7.79767739 62.8432858,7.65495946 62.8423059,7.63052146 M86.3168127,38.9649265 C85.5019741,38.8657082 84.6822356,38.8148771 83.8683769,38.7039286 C82.7972781,38.5587669 81.8182958,38.1408771 80.8706722,37.6350105 C77.6877547,35.9351031 74.6704508,33.9810405 71.7854418,31.8148561 C69.5937561,30.1696899 67.4162799,28.5093721 65.3201405,26.7464147 C65.0761299,26.5430905 64.8110501,26.3632268 64.5694894,26.1584364 C63.3190575,25.0978271 62.0686256,24.0372179 60.8265234,22.9668334 C60.5977022,22.7698631 60.4090595,22.5259719 60.1968976,22.3089624 C60.1258504,22.2346709 60.0381437,22.1789523 59.9504371,22.1075933 C60.0513732,21.9834483 60.1508394,21.8431741 60.265005,21.7195179 C61.7486679,20.1085648 63.2333108,18.4995668 64.7184437,16.8900801 C65.5979598,15.9389531 66.4872756,14.9936912 67.3535623,14.0303452 C67.7455472,13.5963263 68.0674648,13.0973023 68.4677794,12.6725699 C69.3757145,11.7111789 70.3164783,10.7810686 71.2376429,9.83238536 C71.5845495,9.47265799 72.0274925,9.25809234 72.4464264,9.00686969 C74.6503616,7.67646491 77.0600888,6.98291443 79.5991712,6.6520239 C81.111253,6.45554237 82.6169651,6.37147565 84.1334567,6.54694049 C84.6322575,6.6031479 85.138898,6.5982603 85.6411287,6.61243434 C86.7984642,6.64567002 87.9264008,6.86903335 88.9916198,7.29523209 C90.2915398,7.81722779 91.5218824,8.48145266 92.5699521,9.43453471 C92.6684383,9.52202275 92.780644,9.59338171 92.8815801,9.6779372 C93.198108,9.93698001 93.4083099,10.2766682 93.6356611,10.6109801 C94.3804325,11.7058025 95.1041346,12.812844 95.6289044,14.032789 C95.7798186,14.3822524 95.8930043,14.7527325 95.9807109,15.1237014 C96.4030747,16.873951 97.2340827,18.3954609 98.5011739,19.6789448 C98.9083483,20.0904807 99.2616247,20.5396512 99.5414039,21.0469841 C99.693788,21.3226447 99.8623416,21.5890189 100.017666,21.8632133 C100.336153,22.4228435 100.470408,23.0460126 100.574284,23.6686928 C100.657091,24.1686943 100.667381,24.6794486 100.521856,25.1784725 C100.514996,25.1970454 100.510097,25.2165958 100.510097,25.236635 C100.498337,25.9834603 100.233257,26.6818984 100.102432,27.4072182 C99.7785548,29.1946136 99.227816,30.9150489 98.5540919,32.5998047 C98.1601471,33.5861224 97.6726158,34.5206316 97.1115874,35.41995 C96.8215186,35.882317 96.3815155,36.1995223 95.9807109,36.5533845 C95.4819101,36.9952236 94.9218616,37.3510409 94.3191848,37.6286566 C93.2177072,38.1325682 92.1265192,38.6662941 90.910386,38.855933 C90.0024509,38.9986509 89.0930459,39.0753862 88.181681,39.0753862 C87.5613648,39.0753862 86.9400687,39.0397068 86.3168127,38.9649265 M24.3557566,38.4976719 C23.9338828,38.4707901 23.5095591,38.452706 23.0857254,38.442442 C21.9558289,38.418004 20.8514114,38.2063709 19.8048117,37.807054 C18.4529537,37.2914122 17.1829226,36.6007942 16.0814449,35.6408696 C15.819795,35.4126186 15.5248263,35.1931654 15.3396135,34.9096846 C14.805044,34.0915003 14.3062432,33.248878 13.819202,32.4028344 C13.3885085,31.6530765 13.0969698,30.8539539 12.9279263,29.9976464 C12.6006188,28.3392836 11.8333084,26.9013516 10.6647033,25.6657663 C10.3197566,25.3026176 10.0610466,24.8529584 9.78812706,24.4267596 C9.59605445,24.1291048 9.44514025,23.8060344 9.27168693,23.4971381 C9.02914626,23.067518 8.90567101,22.6080836 8.88362186,22.1188348 C8.84785323,21.2796338 8.98455797,20.4624271 9.16389107,19.6457091 C9.51814744,18.0284022 10.0017588,16.4511736 10.5931661,14.9066919 C11.1194058,13.5332762 11.9180751,12.3187076 12.8784382,11.2155762 C13.221425,10.8221244 13.6648579,10.5098068 14.0872217,10.1945565 C14.6026818,9.81332372 15.1259817,9.43306842 15.6811303,9.11439689 C16.2519584,8.7854614 16.8399357,8.47803134 17.4911207,8.31283045 C17.7464009,8.24978041 17.9943313,8.15153965 18.2427518,8.05965276 C19.6171489,7.55329738 21.0106553,7.11683468 22.4526698,6.83921899 C22.9397111,6.7448883 23.4179327,6.59483898 23.9084038,6.53569901 C24.9339343,6.41106521 25.957505,6.49073309 26.9761758,6.6544677 C27.6547997,6.76297242 28.3402833,6.81771355 29.0159673,6.93794851 C29.7298698,7.06551488 30.4354427,7.24097973 31.1444454,7.39445037 C31.3698367,7.44381514 31.5913082,7.52152798 31.8201294,7.54303342 C32.7045454,7.62710014 33.5110543,7.949193 34.2617055,8.38761074 C35.2431377,8.95848244 36.1907612,9.59142667 37.1452445,10.2111744 C37.6832438,10.5596603 38.2227131,10.9081462 38.7283736,11.3001317 C39.1918958,11.6598591 39.6137696,12.0709063 40.044463,12.4692457 C40.6652691,13.0459825 41.2782355,13.6290732 41.889732,14.2136302 C43.2293404,15.4941815 44.5248506,16.8177436 45.735594,18.2214624 C46.2535041,18.823126 46.7655344,19.4296772 47.2927541,20.0225431 C47.4431783,20.1926315 47.6396608,20.3197092 47.8087043,20.4751348 C47.9262997,20.5811958 48.048795,20.6867679 48.1418914,20.8118905 C48.5412261,21.3480602 48.9484004,21.8778761 49.3129464,22.4345738 C49.5202084,22.7532453 49.7598092,23.091956 49.6392738,23.5166885 C49.608895,23.6188393 49.5662666,23.7459169 49.4868897,23.8011468 C49.038067,24.1032005 48.7220291,24.5279329 48.386882,24.9375138 C46.2353748,27.5660652 43.941773,30.0626514 41.4673682,32.3915929 C39.8293613,33.931187 38.0507297,35.2874961 36.1280437,36.4639414 C34.3636215,37.5441011 32.427706,38.0744057 30.4158434,38.3554427 C29.1732512,38.5304188 27.9115498,38.5802723 26.814972,38.6706929 C25.8879276,38.6047103 25.1206172,38.5470367 24.3557566,38.4976719 M107.385022,22.6789538 L107.385022,21.9770944 C107.383062,21.8065171 107.376692,21.6349624 107.381592,21.4643851 C107.385022,21.2957629 107.43108,21.1227419 107.407561,20.9590073 C107.356603,20.6139427 107.300255,20.2703444 107.240968,19.9287011 C107.18903,19.6281137 107.098383,19.3069984 107.106713,19.0034784 C107.109653,18.8529403 107.149341,18.7043573 107.123372,18.554308 C107.099363,18.4067024 107.065064,18.2581194 107.035666,18.1129577 C106.977358,17.8284993 106.91268,17.5464848 106.817134,17.2718017 C106.192408,15.4809849 105.299662,13.812847 104.369188,12.167192 C104.113908,11.7160665 103.80767,11.2884015 103.484772,10.8802869 C103.107487,10.4042346 102.688063,9.96386181 102.287258,9.50589367 C102.189262,9.3929901 102.093226,9.27617646 101.997189,9.15985157 C102.010419,9.14861009 102.023648,9.13590233 102.036878,9.12368333 C102.064807,9.14078993 102.095186,9.15398645 102.118215,9.17549189 C102.802228,9.82261016 103.487712,10.4702172 104.170746,11.1212455 C104.289811,11.2356154 104.410347,11.3494965 104.516183,11.4765741 C104.625448,11.609028 104.698945,11.755656 104.783222,11.9027728 C104.883668,12.0733501 104.982155,12.2449048 105.079171,12.4164596 C105.273203,12.7571253 105.461846,13.0987686 105.647549,13.4438332 C105.993476,14.0850863 106.328133,14.7326933 106.65936,15.3803004 C106.945999,15.9404194 107.227248,16.5020046 107.517807,17.0601686 C107.648142,17.3128575 107.783867,17.5645689 107.924491,17.8138365 C108.037677,18.0103181 108.172912,18.2024007 108.259149,18.4150113 C108.320396,18.570437 108.335586,18.7155988 108.322356,18.8661368 C108.300797,19.1007417 108.22142,19.3270376 108.181731,19.558221 C108.142043,19.8030898 108.111664,20.0489361 108.067076,20.2918498 C107.994559,20.6950769 107.895093,21.0929275 107.787297,21.4883344 C107.68979,21.8480617 107.583464,22.2068116 107.483998,22.5670277 C107.472729,22.6061285 107.45264,22.6447406 107.43843,22.6818863 C107.419811,22.6818863 107.401192,22.6809088 107.385022,22.6789538 M99.8657714,19.5117888 C99.5845222,19.3069984 99.3194424,19.0763037 99.0553426,18.8460977 C98.2757826,18.1720976 97.7289636,17.3250765 97.2870006,16.4091402 C97.1130573,16.0494128 97.0302505,15.6461858 96.8827662,15.2713069 C96.2320712,13.6124554 95.3427554,12.0860578 94.3010555,10.645682 C94.1868899,10.4883013 94.0761542,10.3299431 93.9649285,10.1715848 C93.9781579,10.1578995 93.9913874,10.144703 94.0046169,10.1319953 C94.0761542,10.1833151 94.1555311,10.2277922 94.2177587,10.2869322 C95.1158942,11.1261331 96.0154996,11.9624015 96.8396479,12.8793153 C97.2669114,13.3563451 97.6848653,13.8338637 98.0626408,14.3514605 C98.7393048,15.2864584 99.1665683,16.3465789 99.6109812,17.3988793 C99.7565056,17.7444326 99.9240792,18.0811883 100.060784,18.4301629 C100.16368,18.6862732 100.251387,18.9506923 100.307734,19.2195103 C100.329784,19.3289926 100.285195,19.5025024 100.205818,19.5650637 C100.185239,19.580704 100.15192,19.5875466 100.113702,19.5875466 C100.031385,19.5875466 99.9245692,19.5557772 99.8657714,19.5117888 M1.7191175,22.1667333 C1.68432884,22.0680038 1.65982978,21.9653641 1.62014131,21.8676121 C1.59662221,21.8148261 1.5633035,21.7390683 1.51871521,21.727338 C1.07332235,21.6071031 1.12477037,21.2053423 1.05323312,20.8910696 C0.714166166,19.3798236 1.07332235,17.9775711 1.75586609,16.6276159 C2.49916749,15.1593808 3.47667988,13.8573241 4.62715562,12.6862551 C4.82951783,12.4804872 5.05147929,12.2957359 5.26021126,12.0992543 C5.3033296,12.0596648 5.33419842,12.0098113 5.36898708,11.9658229 C5.37143698,11.9374748 5.35967744,11.8993515 5.37388689,11.8846887 C5.53803057,11.7194878 5.70707407,11.5557532 5.87562759,11.3925074 C5.89277693,11.4105915 5.91090623,11.4286756 5.92903553,11.4452934 C5.74382266,11.6168482 5.5581198,11.7888917 5.37388689,11.9604465 C5.52480108,11.9477387 5.5086317,12.0249628 5.45865363,12.1173385 C5.35967744,12.2957359 5.24551183,12.4677794 5.15927515,12.6525307 C4.76141045,13.5171472 4.35570606,14.3773648 3.98185045,15.2498014 C3.65993283,16.0015144 3.32086588,16.749806 3.15476227,17.5577263 C2.80197584,19.3025995 2.45310926,21.0484503 2.1037527,22.7947899 C2.09199316,22.8505085 2.08023361,22.906716 2.06847406,22.9614571 C2.05034476,22.9648784 2.0336854,22.967811 2.0155561,22.9712323 C1.91608992,22.7033918 1.81711373,22.4365288 1.7191175,22.1667333 M13.9583566,34.5191653 C12.6976351,33.4155452 11.5339299,32.2263921 10.7401604,30.7327414 C10.0517369,29.4375274 9.43485065,28.1061451 9.14331186,26.6535503 C9.11538294,26.5201188 9.113913,26.3778896 9.12175269,26.2410368 C9.13400222,26.0724146 9.26629713,26.0162072 9.41574138,26.1007627 C9.44367031,26.1168918 9.47355916,26.1339984 9.49805822,26.1550151 C9.93022159,26.5284277 10.3741445,26.8920652 10.7916084,27.2816069 C10.9557521,27.4370326 11.0713877,27.6467106 11.1904531,27.8431922 C11.5603889,28.4560972 11.843108,29.100283 12.0351806,29.7957885 C12.335539,30.8754594 12.8519792,31.8695972 13.376749,32.855915 C13.4914046,33.0704806 13.5820511,33.3001978 13.7114061,33.5069433 C13.9848156,33.9424285 14.2763544,34.3656947 14.5590735,34.7953147 C14.624241,34.8911117 14.6835287,34.9888637 14.7447764,35.0861269 C14.7335068,35.0973684 14.7202773,35.1076324 14.7090077,35.1188739 C14.4581374,34.918971 14.1984474,34.7288434 13.9583566,34.5191653 M104.145267,34.4741994 C104.158006,34.3725373 104.153596,34.2650101 104.188875,34.1706794 C104.504913,33.344675 104.83467,32.5255132 105.144338,31.6975537 C105.295253,31.2962817 105.410398,30.8832795 105.543183,30.4751649 C105.550043,30.4585471 105.568172,30.4453505 105.62256,30.3827892 C105.657349,30.5460351 105.682338,30.6696914 105.707327,30.7938364 C105.719086,30.7889488 105.731826,30.7840612 105.743585,30.7806399 C105.780334,30.8417349 105.841582,30.9013636 105.846481,30.9673462 C105.87931,31.3808372 105.726926,31.7606038 105.597571,32.138904 C105.323181,32.9468243 104.887098,33.6682341 104.375558,34.3476105 C104.3344,34.4043067 104.280992,34.4502502 104.234933,34.5010812 C104.205044,34.491306 104.175156,34.4834858 104.145267,34.4741994 M87.1360612,45.5768721 C88.8421755,45.2953463 90.5228109,44.8960293 92.156408,44.3129386 C92.3421109,44.2464673 92.5336935,44.2019901 92.7443854,44.1423614 C92.7242962,44.1956362 92.7174365,44.2401134 92.6944073,44.2733491 C92.2651839,44.8657262 91.7394341,45.3403122 91.0083822,45.5201759 C90.5086014,45.6428547 89.9970611,45.7132361 89.4948304,45.8310273 C89.0822663,45.9268242 88.6785218,46.0524356 88.2728175,46.169738 C86.7357466,46.6169534 85.164377,46.7342558 83.5738982,46.6599643 C83.4435633,46.6550767 83.3142082,46.6120658 83.1848532,46.5876278 C83.1848532,46.5646561 83.1863231,46.5431506 83.1882831,46.5196901 C83.2608003,46.5099149 83.3338075,46.4879207 83.4068147,46.4918308 C84.1167974,46.5182239 84.8047309,46.4023877 85.4818848,46.196131 C85.632309,46.1496988 85.7964527,46.1511651 85.9503068,46.1115755 C86.0218441,46.0934914 86.0816218,46.0309301 86.1477692,45.9879192 C86.0796618,45.9453971 86.0115545,45.8671955 85.9424671,45.8652405 C85.7219756,45.8588866 85.4916845,45.8471563 85.2795226,45.8984761 C84.7630825,46.0260425 84.2481123,46.161429 83.7135429,46.0539018 C83.1544744,45.9419758 82.6003057,45.8075668 82.0451571,45.6804892 C82.0054686,45.670714 81.9672501,45.6457872 81.9344213,45.5895798 C82.1681423,45.6061977 82.4013733,45.6325907 82.6350944,45.6379671 C83.500891,45.6526299 84.3691376,45.7112811 85.2354243,45.7112811 C85.8704399,45.7112811 86.5044755,45.6800004 87.1360612,45.5768721 M25.2499722,46.0260425 C24.2180719,45.6345457 23.2082207,45.1912404 22.1915099,44.7635754 C21.8632225,44.6247675 21.5486546,44.4600554 21.227227,44.308051 C21.2326167,44.2943658 21.2370266,44.2811692 21.2419264,44.2679727 C22.0405957,44.3784325 22.836815,44.5074651 23.6369542,44.5988632 C25.150996,44.770418 26.6679776,44.8759902 28.1932889,44.7753056 C28.9052315,44.7278959 29.6157042,44.6643571 30.3281368,44.6198799 C30.4555319,44.611571 30.5883168,44.6643571 30.7171818,44.6892839 C30.6240854,44.7738393 30.5432385,44.8779452 30.4374026,44.9424615 C29.5226078,45.4923166 28.580864,45.9815654 27.5190749,46.1907546 C27.2280261,46.2479396 26.9374673,46.2777539 26.6493583,46.2777539 C26.1730967,46.2777539 25.7036947,46.1966198 25.2499722,46.0260425" id="Fill-1" fill="url(#linearGradient-3)" mask="url(#mask-2)"></path>
            </g>
        </g>
    </g>
</svg>