<?xml version="1.0" encoding="utf-8"?>
<!-- Generator: Adobe Illustrator 23.0.1, SVG Export Plug-In . SVG Version: 6.00 Build 0)  -->
<svg version="1.1" id="Livello_1" xmlns="http://www.w3.org/2000/svg" xmlns:xlink="http://www.w3.org/1999/xlink" x="0px" y="0px"
	 viewBox="0 0 641.6 863" style="enable-background:new 0 0 641.6 863;" xml:space="preserve">
<style type="text/css">
	.st0{fill:#DFDFE0;}
	.st1{opacity:0.5;}
	.st2{fill:url(#SVGID_1_);}
	.st3{fill:#FFFFFF;}
	.st4{fill:url(#SVGID_2_);}
	.st5{fill:#3773B8;}
	.st6{opacity:0.39;fill:#FFFFFF;enable-background:new    ;}
</style>
<title>notes</title>
<g>
	<g id="Livello_2-2">
		<rect y="76.2" class="st0" width="569.5" height="786.8"/>
		<g class="st1">
			
				<linearGradient id="SVGID_1_" gradientUnits="userSpaceOnUse" x1="284.735" y1="8432.376" x2="284.735" y2="7672.1758" gradientTransform="matrix(1 0 0 1 0 -7582.6455)">
				<stop  offset="0" style="stop-color:#808181;stop-opacity:0.25"/>
				<stop  offset="0.54" style="stop-color:#808181;stop-opacity:0.12"/>
				<stop  offset="1" style="stop-color:#808181;stop-opacity:0.1"/>
			</linearGradient>
			<rect x="9.6" y="89.5" class="st2" width="550.2" height="760.2"/>
		</g>
		<rect x="16.6" y="95.1" class="st3" width="536.2" height="743.4"/>
		
			<linearGradient id="SVGID_2_" gradientUnits="userSpaceOnUse" x1="285.43" y1="7709.9858" x2="285.43" y2="7645.5459" gradientTransform="matrix(1 0 0 1 0 -7582.6455)">
			<stop  offset="0" style="stop-color:#808181;stop-opacity:0.25"/>
			<stop  offset="0.54" style="stop-color:#808181;stop-opacity:0.12"/>
			<stop  offset="1" style="stop-color:#808181;stop-opacity:0.1"/>
		</linearGradient>
		<rect x="152.4" y="62.9" class="st4" width="266" height="64.4"/>
		<path class="st5" d="M285.4,0c-20.5,0-37.2,17-37.2,38.1s16.6,38.1,37.2,38.1s37.2-17,37.2-38.1S306,0,285.4,0z M285.4,60
			c-12.1,0.3-22.2-9.3-22.5-21.4s9.3-22.2,21.4-22.5c12.1-0.3,22.2,9.3,22.5,21.4c0,0,0,0,0,0.1c0,0.2,0,0.3,0,0.5
			C307,50,297.4,59.8,285.4,60L285.4,60z"/>
		<rect x="155.2" y="60.1" class="st5" width="260.4" height="61.6"/>
		<path class="st5" d="M594.2,219.2l30.1,25.8L346.5,638.3l-2,2.8c0,0-30.8,8-30.1-17.2L594.2,219.2z"/>
		<polygon class="st5" points="611.5,245 641.6,206.3 628.7,197.7 598.5,232.1 		"/>
		<polygon class="st5" points="314.4,655.3 314.4,623.9 344.5,641.1 		"/>
		<path class="st6" d="M361.9,616.5c0,0-14.5-3.4-18.2-5.7s-11.2-13-11.2-13l-3.1,4.3c0,0,7.5,10.7,11.2,13s18.2,5.7,18.2,5.7
			L361.9,616.5z"/>
		<path class="st5" d="M388.8,265.1c-0.2-1.5-0.7-3-1.3-4.4l-0.1-0.4c-0.3-0.8-0.6-1.5-0.9-2.3s-0.8-1.8-1.1-2.7
			c-0.4-0.9-0.9-1.9-1.3-2.8s-0.9-1.7-1.4-2.5c-0.3-0.4-0.6-0.9-0.9-1.3c-0.3-0.4-0.7-0.8-1-1.2c-0.1-0.1-0.2-0.3-0.3-0.4
			c-0.2-0.3-0.4-0.6-0.6-0.9c-0.4-0.6-0.9-1.1-1.3-1.6c-0.8-0.9-1.7-1.8-2.7-2.6c-1.4-1.1-3-2.1-4.5-3.1s-3.2-1.9-4.8-3
			c-1.3-0.9-2.7-1.7-4.1-2.4c-1.4-0.7-2.7-1.6-4.1-2.3c-1.6-0.8-3.2-1.4-4.8-2.1c-2.1-0.8-4.3-1.4-6.5-1.7c-2-0.3-4-0.4-6-0.4
			c-1.3,0-2.6,0-3.8,0s-2.7,0.1-4.1,0.2c-1.6,0.1-3.2,0.4-4.7,0.6s-3.3,0.5-4.9,0.8c-1.3,0.2-2.6,0.6-3.9,0.8
			c-0.5,0.1-1.1,0-1.6,0.1c-0.9,0.1-1.7,0.4-2.5,0.7c-4.4,1.9-8.5,4.2-12.4,7c-2.1,1.5-3.5,3.7-3.9,6.2c-0.3,1.7-1.1,3.3-2.4,4.5
			c-0.9,0.9-2,1.8-2.9,2.7c-2,2.1-3.9,4.3-5.8,6.5c-0.4,0.5-0.7,0.5-1.2,0.1l-9-7.8c-0.1-0.1-0.2-0.2-0.3-0.2l-0.1,0.3
			c-0.5-0.6-1-1.1-1.5-1.6c-2.6-2.4-5.3-4.7-8-7.1c-1.5-1.4-3.1-2.6-4.7-3.7c-1.6-1.1-3.4-2.1-5-3.1c-2-1.2-4.2-2.2-6.4-3
			c-2.9-1.2-5.8-2.1-8.9-2.7c-2.4-0.4-4.8-0.6-7.2-0.9c-1.6-0.2-3.2-0.2-4.7,0c-0.7,0.1-1.4,0.2-2.1,0.3c-1.7,0.1-3.4,0.4-5.1,0.9
			c-0.9,0.3-1.9,0.3-2.9,0.2c-2-0.5-4-0.6-6.1-0.4c-1.3,0.1-2.6,0.4-3.8,0.9c-0.3,0.1-0.5,0.2-0.8,0.2c-2,0.5-3.9,1.3-5.6,2.4
			c-0.6,0.3-1.1,0.8-1.4,1.4c0,0.1-0.1,0.2,0,0.3c0.1,0.1,0.2,0.1,0.3,0.1c0.1,0,0.2-0.1,0.3-0.1s0.4-0.3,0.6-0.1c0,0,0.1,0,0.2,0
			c0.7-0.2,1.5-0.5,2.2-0.7s1.2-0.3,1.8-0.5l0.1,0.1c-0.1,0.1-0.2,0.2-0.3,0.3c-1,0.9-1.9,2-2.7,3.2c-0.4,0.7-1,1.2-1.6,1.6
			c-2.5,1.5-4.9,3.2-7.1,5.2l-1.7,1.6c-0.1,0.1-0.2,0.2-0.3,0.2c-0.6,0.1-1,0.4-1.4,0.9c-0.6,0.6-1.1,1.1-1.8,1.7
			c-1.6,1.5-2.9,3.2-3.9,5.1c-0.9,1.6-1.6,3.2-2.5,4.8c-0.7,1.4-1.3,2.8-2,4.2c-0.2,0.5-0.3,0.9-0.4,1.4c-0.1,0.8-0.4,1.5-0.6,2.2
			c-0.1,0.5-0.2,1.1-0.2,1.7c0.1,1.7,0.4,3.3,1.1,4.9c0.3,1,0.9,1.9,1.6,2.7c0.7,0.7,1.1,1.5,1.4,2.4c0.4,1.5,0.8,2.9,1.2,4.4
			c0.9,3.2,2.1,6.2,3.6,9.2c1.4,2.9,3.3,5.5,5.5,7.8c1.2,1.2,2.5,2.3,3.8,3.5c0.5,0.5,1,0.9,1.5,1.3c1.2,0.8,2.4,1.6,3.7,2.4
			c1.5,0.8,3,1.6,4.6,2.3c2.8,1.3,5.7,2.5,8.6,3.6c0.9,0.4,1.8,0.6,2.6,1c0.4,0.2,0.8,0.5,1.2,0.8c0.8,0.5,1.7,0.9,2.6,1.2
			c1.8,0.8,3.7,1.5,5.7,2c0.9,0.2,1.9,0.3,2.8,0.2c2-0.2,3.9-0.7,5.7-1.5c0.8-0.4,1.6-0.7,2.4-0.9c2.5-0.6,5-1.3,7.4-2.3
			c2.8-1.1,5.5-2.3,8.1-3.7c1.9-0.9,3.7-2.1,5.4-3.4c5.2-4.4,10.2-9,15.1-13.7c2.5-2.4,4.9-4.8,7.4-7.3c0,0,0.1-0.1,0.1-0.1
			c0.4,0,0.9-0.1,1.2,0.3c0.2,0.2,0.4,0.3,0.6,0.5c4.4,3.4,8.8,6.9,13.2,10.3c2.6,1.9,5,4.1,7.3,6.5c1.7,1.9,3.6,3.5,5.7,4.9
			c0.9,0.6,1.7,1.1,2.6,1.6c1.5,0.8,3,1.7,4.5,2.4c0.7,0.4,1.5,0.6,2.2,1c2.4,1.4,5,2.5,7.7,3.4c0.7,0.2,1.5,0.4,2.2,0.6
			c0,0,0-0.1,0-0.1l-5.4-1.9c0,0,0-0.1,0-0.1l1.8,0.6c-0.1-0.1-0.3-0.2-0.4-0.3c-1.2-0.5-2.5-0.9-3.7-1.4c-1.6-0.7-3.3-1.5-4.8-2.4
			c-2-1.1-3.9-2.3-5.8-3.5c-1-0.6-2-1.4-2.9-2.2c-1.7-1.7-3.4-3.6-5-5.3l-0.4-0.5c0.1,0,0.3,0.1,0.4,0.1l4.4,2.9
			c2.8,1.9,5.6,3.8,8.5,5.6c1.5,0.9,3,1.9,4.4,3c1.3,1.1,2.8,2,4.4,2.8c0.8,0.4,1.7,0.8,2.5,1.2c1,0.5,2,1.1,3.1,1.6
			c0.4,0.2,0.8,0.3,1.2,0.4l0.1-0.1l-1.2-0.8c0.1,0,0.2,0,0.3,0l3.6,1.2c0.1,0,0.1,0.1,0.1,0.1c-0.1,0.3,0.2,0.2,0.3,0.3
			c0.6,0.1,1.1,0.2,1.7,0.3c0.7,0.2,1.4,0.4,2.1,0.4c3.3,0.2,6.7,0,10-0.6c0.2,0,0.4,0,0.5,0c0.4,0.1,0.8,0.1,1.2,0.1
			c1.5-0.1,3.1-0.6,4.4-1.3c1.2-0.7,2.4-1.5,3.4-2.5c1-1.1,1.9-2.4,2.8-3.6c0.3-0.4,0.7-0.8,1.2-1c0.6-0.2,1.1-0.5,1.6-0.8
			c0.2-0.1,0.4-0.1,0.5-0.2c0.2,0,0.5-0.1,0.7-0.2c0.8-0.5,1.6-1,2.4-1.6c1.2-0.9,2.3-1.9,3.5-2.9c1.3-1.2,2.5-2.4,3.8-3.6
			c0.1-0.1,0.2-0.3,0.4-0.4c0.2-0.3,0.5-0.5,0.8-0.8c1-0.6,1.9-1.3,2.8-2.1c1.8-1.6,3.1-3.7,3.8-6c0.2-0.7,0.3-1.4,0.4-2.1
			c0.2-1.2,0.2-2.4,0-3.6c-0.2-1.1-0.4-2.1-0.6-3.2c-0.1-0.8-0.1-1.7,0.1-2.5c0-0.1,0.1-0.1,0.1-0.2c0.1,0.1,0.1,0.2,0.1,0.4
			c0.1,0.7,0.2,1.5,0.4,2.1c0.1,0.3,0.3,0.6,0.6,0.8c0.2,0.1,0.4,0.1,0.6,0c0.1,0,0.1-0.3,0.1-0.5c-0.3-1-0.4-2-0.2-2.9
			c0.1-0.5,0.2-1,0.2-1.5c0.1-1.6,0.6-3.2,1.3-4.6c0.2-0.3,0.3-0.7,0.5-1.1c0.1-0.3,0.2-0.6,0.2-0.8
			C388.9,267.7,388.9,266.4,388.8,265.1z M192.4,250c-0.2,0.3-0.4,0.7-0.6,1c-0.8,1.6-1.5,3.3-2.2,4.9c-0.7,1.4-1.2,2.9-1.6,4.4
			c-0.7,3.3-1.3,6.6-2,10l-0.1,0.3h-0.1l-0.6-1.5c-0.1-0.2-0.1-0.4-0.2-0.6s-0.1-0.2-0.2-0.3c-0.8-0.2-0.8-1-0.9-1.6
			c-0.5-2.8-0.1-5.7,1.3-8.1c1.4-2.8,3.3-5.3,5.4-7.5c0.4-0.4,0.8-0.7,1.2-1.1c0.1-0.1,0.1-0.2,0.2-0.3c0-0.1,0-0.1,0-0.1
			c0.3-0.3,0.6-0.6,1-0.9l0.1,0.1l-1.1,1C192.5,249.7,192.4,249.9,192.4,250z M209.9,293.8c-0.5-0.4-1-0.7-1.4-1.1
			c-2.5-2-4.5-4.4-6.1-7.2c-1.4-2.4-2.4-5-3-7.8c0-0.3,0-0.5,0-0.8c0-0.3,0.3-0.4,0.6-0.3l0.2,0.1c0.8,0.7,1.7,1.4,2.4,2.1
			c0.3,0.3,0.6,0.7,0.8,1.1c0.7,1.2,1.2,2.4,1.6,3.7c0.6,2,1.5,4,2.6,5.8c0.2,0.4,0.4,0.8,0.6,1.2c0.5,0.8,1.1,1.6,1.6,2.5
			c0.1,0.2,0.2,0.4,0.4,0.5L209.9,293.8z M239.8,312.5c-1.7,1.1-3.6,1.9-5.5,2.4c-1.4,0.3-2.9,0.2-4.3-0.3c-2-0.7-3.9-1.6-5.8-2.4
			c-0.6-0.3-1.2-0.6-1.8-0.9v-0.1c1.5,0.2,3,0.5,4.6,0.6c2.9,0.4,5.8,0.5,8.6,0.3c1.4-0.1,2.7-0.2,4.1-0.3c0.3,0,0.5,0.1,0.7,0.1
			C240.1,312.2,240,312.3,239.8,312.5L239.8,312.5z M276.2,271.7c0,0.2-0.1,0.4-0.3,0.5c-0.8,0.6-1.5,1.3-2.1,2.2
			c-4.1,5-8.5,9.7-13.1,14.2c-3.1,2.9-6.5,5.5-10.1,7.8c-3.3,1.9-7,3.2-10.8,3.6c-2.4,0.3-4.8,0.4-6.8,0.6c-1.8-0.1-3.2-0.2-4.7-0.3
			c-0.8,0-1.6-0.1-2.4-0.1c-2.1,0-4.2-0.5-6.2-1.2c-2.6-0.9-5-2.3-7.1-4.1c-0.5-0.4-1-0.9-1.4-1.4c-1-1.5-2-3.2-2.9-4.8
			c-0.8-1.4-1.4-3-1.7-4.6c-0.6-3.1-2.1-6-4.3-8.2c-0.6-0.7-1.2-1.5-1.7-2.4c-0.4-0.6-0.6-1.2-1-1.8c-0.5-0.8-0.7-1.7-0.7-2.6
			c0-1.6,0.1-3.2,0.5-4.7c0.7-3.1,1.6-6.1,2.7-9c1-2.6,2.5-4.9,4.3-7c0.7-0.7,1.5-1.4,2.3-1.9c1-0.7,2-1.4,3-2
			c1.1-0.7,2.2-1.2,3.4-1.5c0.5-0.1,1-0.3,1.4-0.5c2.6-1,5.3-1.8,8-2.3c0.9-0.2,1.8-0.5,2.8-0.6c1.9-0.2,3.9-0.1,5.8,0.2
			c1.3,0.2,2.6,0.3,3.9,0.5s2.7,0.6,4,0.9c0.4,0.1,0.8,0.2,1.3,0.3c1.6,0.2,3.2,0.7,4.6,1.6c1.9,1.1,3.7,2.3,5.5,3.5
			c1,0.7,2,1.3,3,2.1c1,0.7,1.7,1.5,2.5,2.2c1.2,1.1,2.3,2.2,3.5,3.3c2.5,2.4,5,5,7.3,7.6c1,1.1,2,2.3,3,3.4c0.3,0.3,0.7,0.6,1,0.9
			c0.2,0.2,0.4,0.4,0.6,0.6c0.8,1,1.5,2,2.2,3.1C276,270.3,276.3,271,276.2,271.7L276.2,271.7z M360.4,246.2
			c0.1,0.1,0.3,0.2,0.4,0.3c1.7,1.6,3.4,3.2,5,4.9c0.8,0.9,1.6,1.8,2.3,2.8c1.2,1.8,2.2,3.8,2.9,5.8c0.3,0.7,0.6,1.3,0.9,2
			c0.2,0.5,0.4,1,0.5,1.5c0,0.2,0,0.5-0.2,0.7c-0.2,0.1-0.5,0-0.6-0.1c-0.5-0.4-1-0.8-1.5-1.3c-1.4-1.3-2.6-2.9-3.4-4.6
			c-0.3-0.7-0.5-1.5-0.8-2.2c-1.3-3.1-2.9-6.1-4.9-8.8l-0.6-0.9L360.4,246.2z M301.5,240.6c0.2-0.5,0.5-1,0.8-1.5v-0.1
			c0.2-0.4,0.5-0.8,0.9-1.1c0.3-0.3,0.7-0.5,1.1-0.8c0.5-0.3,1-0.6,1.5-1l1.4-0.9c0.5-0.3,1-0.6,1.5-0.8s1-0.5,1.5-0.8
			s1-0.5,1.5-0.7l0.8-0.3l0.5-0.2c0.1-0.1,0.3-0.1,0.4-0.1c0.2-0.1,0.4-0.2,0.6-0.2h0.2l-0.8,0.6c-1.8,1.2-3.5,2.4-5.3,3.7
			c-0.4,0.3-0.7,0.5-1,0.9c-0.1,0.1-0.3,0.3-0.5,0.4L305,239c-0.5,0.4-1.1,0.8-1.6,1.2l-2,1.6l0,0c-0.1,0-0.1-0.3-0.1-0.3
			C301.3,241.2,301.4,240.9,301.5,240.6L301.5,240.6z M357.9,311.2c-0.7,1.2-1.9,2-3.2,2.4c-1,0.2-1.9,0.4-2.9,0.6
			c-0.8,0.2-1.5,0.4-2.3,0.6c-2.9,0.8-5.9,1.1-8.9,0.9c-0.3,0-0.5-0.1-0.7-0.1v-0.1c0.1,0,0.3,0,0.4,0c1.3,0,2.7-0.2,3.9-0.6
			c0.3-0.1,0.6-0.1,0.9-0.2c0.1-0.1,0.3-0.1,0.4-0.2c-0.1-0.1-0.3-0.2-0.4-0.2c-0.4,0-0.8,0-1.3,0.1c-1,0.3-2,0.4-3,0.3
			c-1.1-0.2-2.1-0.5-3.2-0.7c-0.1,0-0.2-0.1-0.2-0.2c0.4,0,0.9,0.1,1.3,0.1c2.8,0.2,5.7,0.2,8.5-0.1c3.2-0.5,6.4-1.3,9.5-2.4
			c0.4-0.1,0.7-0.2,1.1-0.3C358,311,357.9,311.1,357.9,311.2L357.9,311.2z M372.8,274.9c0,0,0,0.1,0,0.1c-0.1,1.4-0.4,2.8-0.8,4.1
			c-0.7,3.4-1.7,6.7-3,9.9c-0.8,1.9-1.7,3.7-2.7,5.4c-0.6,0.8-1.3,1.5-2.1,2.2c-0.9,0.8-2,1.5-3.1,2c-2,1.1-4.2,1.9-6.5,2.3
			c-2.9,0.5-5.8,0.5-8.7,0.2c-1.5-0.2-3.1-0.3-4.6-0.5c-2-0.3-3.9-1-5.7-2c-6-3.2-11.8-6.9-17.2-11.1c-4.1-3.1-8.3-6.3-12.3-9.6
			c-0.5-0.4-1-0.7-1.4-1.1c-2.4-2-4.8-4-7.1-6.1c-0.4-0.4-0.8-0.8-1.2-1.2c-0.1-0.1-0.3-0.3-0.5-0.4c0.2-0.2,0.4-0.5,0.6-0.7
			l8.5-9.2c1.7-1.8,3.4-3.6,5-5.4c0.8-0.8,1.4-1.8,2.1-2.6c1.7-1.8,3.5-3.6,5.2-5.4c0.7-0.6,1.5-1.1,2.3-1.6c4.2-2.4,8.8-4,13.6-4.5
			c2.9-0.4,5.7-0.5,8.6-0.2c1,0.1,1.9,0.1,2.9,0.1c2.2,0.1,4.3,0.5,6.4,1.3c2.5,0.9,4.8,2.3,6.8,4.1c0.2,0.2,0.4,0.3,0.6,0.5
			c0.6,0.5,1,1.1,1.4,1.8c1.5,2,2.7,4.2,3.8,6.5c0.3,0.7,0.5,1.4,0.7,2.1c0.8,3.3,2.4,6.3,4.8,8.7c0.8,0.8,1.5,1.6,2,2.6
			c0.3,0.5,0.6,1,0.9,1.5c0.6,1.1,0.9,2.2,1.1,3.4C373,273,373,274,372.8,274.9L372.8,274.9z M382.4,288.1c-0.5,1.5-1.3,2.9-2.3,4.2
			c-0.1,0.1-0.2,0.2-0.3,0.3l-0.2,0c0-0.2,0-0.4,0.1-0.6c0.6-1.6,1.2-3.1,1.8-4.7c0.3-0.8,0.5-1.5,0.8-2.3c0-0.1,0.1-0.1,0.1-0.2
			c0.1,0.3,0.1,0.5,0.2,0.8h0.1c0.1,0.1,0.2,0.2,0.2,0.4C382.9,286.7,382.7,287.4,382.4,288.1L382.4,288.1z M387.6,262.8
			c0,0.5-0.2,0.9-0.3,1.3s-0.1,0.9-0.2,1.4c-0.1,0.8-0.3,1.5-0.5,2.3l-0.6,2c0,0.1-0.1,0.1-0.1,0.2h-0.1v-1.3c0-0.3,0-0.6,0-1
			c0-0.3,0-0.7,0-1c-0.1-0.6-0.2-1.3-0.3-2c-0.1-0.6-0.2-1.2-0.2-1.8c0-0.3,0-0.6,0-0.9c0-0.3-0.1-0.6-0.2-0.8
			c-0.1-0.5-0.2-1.1-0.4-1.6c-1.3-3.4-2.8-6.6-4.6-9.7c-0.5-0.9-1.1-1.7-1.7-2.4c-0.7-0.9-1.5-1.8-2.3-2.6l-0.5-0.7l0.1-0.1
			c0.1,0,0.1,0.1,0.1,0.1l3.9,3.7c0.2,0.2,0.5,0.4,0.7,0.7c0.2,0.3,0.4,0.5,0.5,0.8l0.6,1c0.4,0.7,0.7,1.3,1.1,1.9
			c0.6,1.2,1.3,2.5,1.9,3.7c0.5,1.1,1.1,2.1,1.6,3.2c0.2,0.5,0.5,1,0.8,1.4c0.2,0.4,0.4,0.7,0.6,1.1
			C387.5,262.2,387.6,262.6,387.6,262.8L387.6,262.8z"/>
		<path class="st5" d="M212.7,396.9c0,7.3-5.7,12.8-13.2,12.8h-10.2v-25.5h10.3C207,384.1,212.7,389.7,212.7,396.9z M209.8,396.9
			c0.1-5.5-4.4-10.1-9.9-10.1c-0.1,0-0.2,0-0.4,0h-7.3V407h7.4c5.5,0.1,10-4.2,10.1-9.7C209.7,397.2,209.8,397.1,209.8,396.9
			L209.8,396.9z"/>
		<path class="st5" d="M226.9,400.8v8.9H224v-8.8l-9.9-16.8h3l8.3,13.4l8.2-13.4h3L226.9,400.8z"/>
		<path class="st5" d="M243.7,384.1l15.3,20.8v-20.8h2.9v25.5h-3L243.6,389v20.7h-2.9v-25.6H243.7z"/>
		<path class="st5" d="M285.8,403.2h-13.9l-2.9,6.5H266l11.5-25.5h3l11.4,25.5h-3.2L285.8,403.2z M284.6,400.5l-5.8-13.1l-5.7,13.1
			H284.6z"/>
		<path class="st5" d="M299.5,384.1l9.3,18.5l9.3-18.5h3.6v25.5H319v-21.2l-9.3,18.6h-1.8l-9.3-18.5v21.2h-2.8v-25.6H299.5z"/>
		<path class="st5" d="M332.4,384.1v25.5h-2.9v-25.5H332.4z"/>
		<path class="st5" d="M351.1,386.7c-5.6-0.2-10.3,4.2-10.5,9.8c-0.2,5.6,4.2,10.3,9.8,10.5c0.2,0,0.4,0,0.6,0
			c2.8,0,5.5-1.1,7.6-3.1l1.8,1.9c-2.6,2.4-5.9,3.8-9.5,3.9c-7.1,0.2-13.1-5.3-13.3-12.4c-0.2-7.1,5.3-13.1,12.4-13.3
			c0.3,0,0.7,0,1,0c3.5,0,6.8,1.4,9.3,3.7l-1.8,2.1C356.7,387.9,354,386.8,351.1,386.7z"/>
		<path class="st5" d="M373.1,386.9c-3.3,0-5.4,1.3-5.4,3.5c0,6.6,14.4,3.2,14.4,12.5c0,4.2-3.8,7-9.2,7c-3.6,0-7.1-1.4-9.8-3.9
			l1.3-2.5c2.3,2.2,5.3,3.5,8.5,3.6c3.7,0,6-1.5,6-4c0-6.8-14.4-3.2-14.4-12.4c0-4,3.5-6.6,8.8-6.6c2.9,0,5.7,0.8,8.1,2.4l-1.2,2.6
			C378.1,387.6,375.6,386.9,373.1,386.9z"/>
		<path class="st5" d="M197,337.6v24.3h13.2v7h-21.4v-31.3H197z"/>
		<path class="st5" d="M234.9,363.3h-13.5l-2.2,5.5h-8.4l13.4-31.3h8.4l13.1,31.3H237L234.9,363.3z M232.5,357.1l-4.3-11.1
			l-4.4,11.1H232.5z"/>
		<path class="st5" d="M259.9,343.9c-2,0-3.3,0.7-3.3,2.1c0,5.2,16.5,2.2,16.5,13.5c0,6.4-5.6,9.6-12.6,9.6c-5.2,0-10.3-1.8-14.4-5
			l3.2-6.4c3.2,2.8,8.1,4.7,11.3,4.7c2.4,0,3.9-0.9,3.9-2.5c0-5.3-16.5-2.1-16.5-13.2c0-5.8,5-9.5,12.5-9.5c4.4,0,8.7,1.2,12.5,3.5
			l-3,6.5C266.7,345.3,262.5,343.9,259.9,343.9z"/>
		<path class="st5" d="M301.3,337.6v6.7H292v24.5h-8.2v-24.5h-9.3v-6.7H301.3z"/>
		<path class="st5" d="M312.8,337.6v31.3h-8.2v-31.3H312.8z"/>
		<path class="st5" d="M326,337.6l14.2,18.8v-18.8h7.6v31.3h-7.1l-14.2-18.7v18.7h-7.6v-31.3H326z"/>
		<path class="st5" d="M374.6,352.9h7v12.3c-3.9,2.5-8.4,3.9-13,4c-9.5,0-16.7-6.9-16.7-16s7.4-15.9,17.3-15.9
			c4.7,0,9.2,1.7,12.8,4.7l-4.6,5.7c-2.2-2.1-5.2-3.3-8.2-3.4c-5,0-9,4.1-9,9c0,5,4.1,9,9,9c1.9-0.1,3.7-0.6,5.4-1.5L374.6,352.9z"
			/>
	</g>
</g>
</svg>
