<?xml version="1.0" encoding="UTF-8"?>
<svg width="345px" height="77px" viewBox="0 0 345 77" version="1.1" xmlns="http://www.w3.org/2000/svg" xmlns:xlink="http://www.w3.org/1999/xlink">
    <!-- Generator: Sketch 52.6 (67491) - http://www.bohemiancoding.com/sketch -->
    <title>Group 25</title>
    <desc>Created with Sketch.</desc>
    <defs>
        <path d="M139.35724,0.3663 C139.16,0.3718 138.959844,0.494266667 138.935781,0.7271 C138.386354,9.60556667 132.86401,25.6333 129.121563,34.1227333 C127.128021,39.0019667 120.68,52.3189333 111.191354,63.9074333 C108.160573,67.6822667 100.766458,75.9975333 95.7527083,75.9975333 C91.8370833,75.9975333 91.0645313,70.3417 91.2271354,64.6341667 C91.389375,58.9163667 92.1622917,53.1476 92.9964583,47.4298 C93.708125,43.0521667 95.2543229,34.5110333 97.0746875,30.5737667 C97.3495833,30.0212 96.5766667,29.6325333 96.3017708,30.1847333 C91.9996875,40.1166333 83.2839583,49.8234 78.32125,53.1985667 C76.663125,54.3139667 75.2292188,54.9270333 74.1817708,54.9270333 C72.80875,54.9270333 72.0354688,53.9249333 72.0354688,51.7051333 C72.0354688,45.9367333 75.4016667,38.1733 77.3241146,33.2328333 C80.1416146,26.1855 84.2807292,17.8698667 88.7960938,10.7715667 C93.2101042,8.99176667 95.1934375,3.223 92.3865104,4.27643333 C90.6168229,5.44243333 88.1959896,8.77726667 86.9757292,10.4954667 C83.1213542,11.4363333 77.3853646,11.5998667 68.5066667,12.0501333 C60.0651042,12.4388 51.5732292,12.9297667 43.0809896,13.6557667 C31.8839063,14.6483333 15.3876042,16.4791 6.29526042,23.1377667 C1.93229167,26.3593 0,31.1872 0,33.8976 C0,35.1252 0.386458333,35.9535 1.159375,35.9535 C1.82036458,35.9535 2.38,35.2887333 2.38,34.4501667 C2.38,33.6218667 1.7696875,32.7932 0.88484375,33.0693 C1.43390625,29.3564333 3.86458333,25.9706333 6.7834375,23.8021667 C15.6723438,17.2560667 32.1580729,15.6504333 43.1929167,14.7095667 C51.6239063,13.9832 60.1161458,13.6557667 68.5573438,13.1545333 C75.0155729,12.7662333 82.0739063,12.4901333 86.2028125,11.5489 C81.9619792,17.6447333 77.8833854,25.0811 74.9550521,32.2919667 C72.9713542,37.4473 70.6529688,44.2691333 70.4896354,49.8234 C70.42875,53.6488333 71.4765625,55.7557 73.7953125,55.7557 C75.0666146,55.7557 76.663125,55.1422667 78.7073438,53.7614 C84.6063021,49.7104667 90.23,42.3874 93.9833854,36.2299667 C93.3727083,38.2242667 92.2239063,41.7222667 91.0645313,47.0411333 C89.7932292,52.7589333 88.9083854,58.6402667 89.0199479,64.6341667 C89.1821875,71.0911667 90.7761458,76.9501333 95.3582292,77 L95.4741667,77 C101.042813,76.9395 108.719844,68.0577333 111.689375,64.3478 C119.245729,55.3670333 125.205573,45.2103667 129.894479,34.4501667 C135.182396,22.4722667 139.321875,7.66186667 139.759375,0.7887 C139.79,0.510766667 139.594219,0.372533333 139.385677,0.3663 L139.35724,0.3663 Z M92.5494792,5.61623333 C92.1119792,7.22223333 91.5016667,8.38823333 89.6813021,9.44166667 C90.3419271,8.43956667 91.6642708,6.49623333 92.5494792,5.61623333 Z" id="path-1"></path>
        <linearGradient x1="-0.805052972%" y1="50.4050661%" x2="244.546591%" y2="49.2331315%" id="linearGradient-3">
            <stop stop-color="#0097B1" offset="0%"></stop>
            <stop stop-color="#005191" offset="100%"></stop>
        </linearGradient>
        <path d="M5.30127869,1.98641304 C3.66101639,3.6051087 2.51413115,5.62552174 1.58868852,7.63595652 C0.662885246,9.7081087 0.0595081967,11.769913 0.0595081967,13.4503261 C0.0595081967,15.4603913 0.874229508,16.8628913 2.78570492,16.8628913 C3.66101639,16.8628913 4.74767213,16.5842391 6.16613115,15.8521304 C9.68757377,13.9658696 16.4484262,8.82115217 20.6432131,5.20273913 C21.0662623,4.85276087 21.4683934,4.50167391 21.8304918,4.17165217 C22.2131475,3.83202174 21.7201311,3.16163043 21.2271148,3.6051087 C21.1968197,3.62543478 21.176623,3.65647826 21.1463279,3.67717391 C18.1283607,6.41971739 9.416,13.4606739 5.84442623,15.1821087 C4.69754098,15.7390435 3.7717377,15.965587 3.11786885,15.965587 C2.08170492,15.965587 1.63881967,15.2955652 1.63881967,14.1717174 C1.63881967,12.8316739 2.29304918,10.8216087 3.27872131,8.41906522 C3.55029508,7.74904348 3.88245902,7.01730435 4.26439344,6.34728261 C6.38757377,6.409 8.4602623,5.73897826 9.44593443,3.78028261 C9.71786885,3.21336957 9.82822951,2.65643478 9.82822951,2.15123913 C9.82822951,1.08947826 9.28508197,0.254630435 8.29904918,0.254630435 C7.53445902,0.254630435 6.49829508,0.759456522 5.30127869,1.98641304 M6.33744262,2.93471739 C8.73147541,-0.250565217 9.33521311,1.93504348 8.63121311,3.38817391 C7.80603279,5.23341304 6.0655082,5.51206522 4.69754098,5.51206522 C5.19019672,4.6155 5.73370492,3.78028261 6.33744262,2.93471739" id="path-4"></path>
        <linearGradient x1="-611.119795%" y1="52.2377443%" x2="937.281805%" y2="46.787466%" id="linearGradient-6">
            <stop stop-color="#0097B1" offset="0%"></stop>
            <stop stop-color="#005191" offset="100%"></stop>
        </linearGradient>
        <path d="M23.2268519,1.05296296 C15.3768025,5.53703704 8.82530864,19.2677778 5.35962963,27.7814815 C4.62030864,29.5992593 3.64182716,32.1203704 2.73280247,34.7962963 C2.56345679,35.3025926 2.39339506,35.8088889 2.23335802,36.3251852 C1.16501235,39.7037037 0.316135802,43.1651852 0.316135802,45.6548148 C0.316135802,48.1240741 1.24485185,49.9118519 3.62177778,49.9118519 C7.96604938,49.9118519 15.2769136,43.4437037 20.0411481,38.6914815 C20.0411481,38.6807407 20.0411481,38.6807407 20.0511728,38.6707407 C21.329321,37.3892593 22.4280988,36.2218519 23.2268519,35.3437037 C23.287,35.2918519 23.3367654,35.1781481 23.3367654,35.0648148 C23.3367654,34.8374074 23.126963,34.6722222 22.9074938,34.6722222 C22.8473457,34.6722222 22.7478148,34.6722222 22.6375432,34.7855556 C22.2680617,35.1781481 21.8488148,35.632963 21.3891111,36.1185185 C17.0247901,40.7162963 8.67565432,48.8992593 3.73169136,48.8992593 C2.27345679,48.8992593 1.67448148,47.9485185 1.67448148,46.3781481 C1.67448148,43.6403704 3.13235802,38.877037 4.65074074,34.7855556 C13.6990988,27.44 27.4014198,12.5418519 28.8098889,4.35888889 C28.8596543,3.91481481 28.9194444,3.52222222 28.9194444,3.12962963 C28.9194444,1.11481481 27.8911975,0.0511111111 26.3126667,0.0511111111 C25.4541235,0.0511111111 24.3653704,0.381481481 23.2268519,1.05296296 Z M7.03733333,28.5148148 C10.1732716,20.3837037 16.9449506,6.71481481 23.8261852,2.11740741 C24.8547901,1.44555556 25.7738395,1.11481481 26.4830864,1.11481481 C27.5113333,1.11481481 28.100642,1.83851852 28.100642,3.18148148 C28.100642,10.9196296 13.369358,26.2725926 5.19995062,33.2155556 L7.03733333,28.5148148 Z" id="path-7"></path>
        <linearGradient x1="-529.50991%" y1="50.8969775%" x2="647.769878%" y2="49.077573%" id="linearGradient-9">
            <stop stop-color="#0097B1" offset="0%"></stop>
            <stop stop-color="#005191" offset="100%"></stop>
        </linearGradient>
        <path d="M3.102,4.99652174 C2.61693548,5.80106522 2.16167742,6.66658696 1.77596774,7.54319565 C1.76603226,7.55317391 1.76603226,7.55317391 1.76603226,7.5638913 C0.884967742,9.55326087 0.310483871,11.6154348 0.310483871,13.2851304 C0.310483871,15.5738478 1.16209677,16.8628913 3.04274194,16.8628913 C7.10103226,16.8628913 14.5249677,10.7081522 18.7514516,6.92454348 C20.2261613,5.59447826 21.3052258,4.56413043 21.7207419,4.17165217 C21.9584839,3.95508696 21.8499032,3.6051087 21.6316774,3.49165217 C21.6118065,3.48093478 21.5922903,3.47095652 21.5727742,3.48093478 C21.5330323,3.47095652 21.4837097,3.46023913 21.4439677,3.47095652 C21.3648387,3.47095652 21.2757742,3.51234783 21.1867097,3.6051087 C20.9493226,3.82167391 20.6221613,4.12028261 20.2165806,4.49169565 C20.0781935,4.6155 19.9195806,4.75963043 19.7613226,4.90376087 C19.4543871,5.18241304 19.1176452,5.4813913 18.7514516,5.8213913 C14.5941613,9.54291304 7.02225806,15.965587 3.36954839,15.965587 C2.29048387,15.965587 1.86467742,15.3469348 1.86467742,14.0689783 C1.86467742,10.4295 6.36864516,1.26465217 8.51648387,1.26465217 C9.00190323,1.26465217 9.21941935,1.70776087 9.21941935,2.26506522 C9.21941935,2.88334783 8.8926129,3.66645652 8.35858065,4.33721739 C8.04170968,4.78032609 8.62541935,5.34723913 9.00190323,4.89341304 C9.70448387,4.05819565 10.0213548,3.11026087 10.0213548,2.26506522 C10.0213548,1.08947826 9.43693548,0.254630435 8.35858065,0.254630435 C6.73483871,0.254630435 4.71545161,2.32641304 3.102,4.99652174" id="path-10"></path>
        <linearGradient x1="-780.556553%" y1="52.8328338%" x2="768.539029%" y2="47.3825554%" id="linearGradient-12">
            <stop stop-color="#0097B1" offset="0%"></stop>
            <stop stop-color="#005191" offset="100%"></stop>
        </linearGradient>
        <path d="M1.38672131,5.76292683 C1.36652459,5.89573171 1.35642623,6.02817073 1.35642623,6.17085366 C1.30665574,6.41634146 1.34632787,6.62012195 1.38672131,6.855 C1.39718033,6.88536585 1.39718033,6.91646341 1.40691803,6.94682927 C0.863770492,8.11060976 0.370754098,9.32487805 0.149311475,10.6617073 C-0.232983607,13.3660976 0.752688525,14.9173171 2.33236066,14.9173171 C3.25816393,14.9173171 4.46563934,14.3663415 5.61216393,13.0906098 C6.3767541,12.2026829 7.08111475,11.2126829 7.73462295,10.212439 C10.3006885,10.0496341 12.7553115,9.32487805 15.0992131,8.3345122 C16.950459,7.52817073 18.701082,6.54878049 20.351082,5.38536585 C20.844459,5.03817073 21.3371148,4.68109756 21.8099344,4.29365854 C21.9707869,4.1297561 21.9707869,3.85463415 21.8705246,3.68085366 C21.6992131,3.51768293 21.428,3.51768293 21.2664262,3.62963415 C21.1257705,3.74231707 20.9851148,3.85463415 20.844459,3.96658537 C18.9827541,5.41573171 16.9003279,6.63073171 14.7775082,7.55926829 C12.6445902,8.44682927 10.461541,9.1104878 8.22763934,9.32487805 C9.58659016,6.89560976 10.0792459,4.95658537 10.0792459,3.51768293 C10.0792459,1.25195122 8.72101639,0.201219512 7.08111475,0.201219512 C4.71665574,0.201219512 1.68859016,2.25256098 1.38672131,5.76292683 M2.41314754,4.8545122 C3.15754098,2.43621951 5.28036066,0.976463415 6.9707541,0.976463415 C8.22763934,0.976463415 9.26416393,1.80329268 9.26416393,3.62963415 C9.26416393,4.95658537 8.72101639,6.89560976 7.30255738,9.43719512 C6.09508197,9.43719512 4.89770492,9.32487805 3.86190164,8.88621951 C3.42911475,8.72268293 3.09695082,8.44682927 2.8257377,8.11060976 C3.36852459,6.8345122 4.13311475,5.6202439 5.1195082,4.62 C5.57213115,4.07890244 4.94819672,3.55865854 4.31416393,3.45658537 C4.29396721,3.44597561 4.27413115,3.43609756 4.25429508,3.44597561 C4.21390164,3.43609756 4.16377049,3.4254878 4.12337705,3.43609756 C3.99209836,3.41560976 3.86190164,3.4254878 3.75118033,3.46682927 C3.41901639,3.76280488 3.1272459,4.0997561 2.87586885,4.44658537 C2.65442623,4.74219512 2.45318033,5.03817073 2.28186885,5.34439024 C2.32262295,5.18085366 2.36265574,5.01841463 2.41314754,4.8545122 M1.83934426,10.9884146 C2.01065574,10.3247561 2.222,9.66146341 2.44308197,8.99817073 C2.76514754,9.27365854 3.14744262,9.49792683 3.5297377,9.66146341 C4.5662623,10.1004878 5.66265574,10.2735366 6.74895082,10.2735366 C6.26639344,11.1003659 5.71278689,11.8763415 5.05891803,12.5908537 C4.13311475,13.539878 3.3187541,13.9785366 2.76514754,13.9785366 C1.78921311,13.9785366 1.40691803,12.815122 1.83934426,10.9884146" id="path-13"></path>
        <linearGradient x1="-861.122182%" y1="53.4638472%" x2="689.752031%" y2="47.3745595%" id="linearGradient-15">
            <stop stop-color="#0097B1" offset="0%"></stop>
            <stop stop-color="#005191" offset="100%"></stop>
        </linearGradient>
        <path d="M21.823617,0.184066667 C20.0788298,0.7975 15.9030319,4.6739 14.1582447,6.1776 C12.6420745,7.5075 11.1772872,8.83703333 9.71287234,10.2281667 C10.4400532,8.72483333 12.2470213,5.23673333 11.6866489,3.68206667 C11.5094149,3.18083333 10.9490426,2.45483333 10.5539894,2.7412 C7.11617021,5.12416667 4.24989362,8.44836667 3.17941489,9.6657 C3.79265957,8.00873333 5.71393617,3.0173 5.99430851,1.73873333 C6.16074468,1.07396667 4.58164894,1.51396667 4.02090426,2.0152 C3.97920213,2.25023333 3.83398936,2.68986667 3.64744681,3.24206667 C3.5018617,3.6619 3.325,4.14223333 3.13808511,4.664 C2.32787234,6.853 1.21643617,9.625 0.926010638,10.3407333 C0.417021277,11.8341667 -0.486648936,13.5527333 0.478829787,14.0026333 C0.811702128,14.1045667 1.20638298,14.2171333 1.32031915,13.8284667 C1.82930851,12.8366333 2.44218085,11.7828333 3.17941489,10.8313333 C4.13521277,9.6657 8.28978723,5.25726667 10.148883,4.0194 C10.0554255,4.31603333 8.4662766,9.02146667 8.24845745,9.7273 C8.01984043,10.5042667 7.29303191,12.3354 7.90553191,12.7750333 C8.1862766,12.9389333 8.52882979,12.8876 8.69489362,12.6624667 C9.765,11.1694 13.1510638,8.00873333 14.6154787,6.67883333 C15.9659574,5.45123333 20.0162766,1.85093333 21.7614362,1.18653333 C21.3667553,1.90226667 20.9199468,2.8435 20.8056383,2.9557 C19.1226596,6.40273333 16.9731383,10.7191333 15.4569681,14.4932333 C14.8336702,15.9357 13.9921809,18.3806333 13.9921809,20.0984667 C13.9921809,21.2032333 14.3868617,21.9809333 15.4569681,21.9809333 C16.6410106,22.0421667 18.6661702,19.9859 20.0162766,18.7689333 C23.8800532,15.1785333 28.5544149,10.2487 31.6079787,6.97583333 C33.5501064,4.88913333 34.8380319,3.45693333 34.8380319,3.45693333 C35.1705319,3.06863333 34.5476064,2.51606667 34.1525532,2.90436667 C33.9548404,3.1196 33.7474468,3.35463333 33.5188298,3.5904 C29.5511702,7.93723333 22.9350532,15.0051 19.5180851,18.2163667 C16.9210106,20.6510333 15.3426596,21.8166667 15.3426596,20.4361667 C15.3426596,19.5976 15.8516489,17.9303667 17.0874468,15.1070333 C19.0087234,10.6678 20.8685638,7.3953 22.3843617,3.62046667 C22.9034043,2.2396 23.377766,0.1408 22.1557447,0.1408 C22.0563298,0.1408 21.946117,0.154733333 21.823617,0.184066667" id="path-16"></path>
        <linearGradient x1="-608.638717%" y1="52.712891%" x2="395.380875%" y2="48.6010027%" id="linearGradient-18">
            <stop stop-color="#0097B1" offset="0%"></stop>
            <stop stop-color="#005191" offset="100%"></stop>
        </linearGradient>
        <path d="M3.0896,0.354230769 C2.8772,0.58 2.6544,0.826538462 2.4088,1.07384615 C1.6392,2.15692308 1.0028,3.32653846 0.4228,4.48538462 C0.4004,4.52807692 0.3784,4.58192308 0.356,4.625 C2.4424,2.43615385 3.826,0.933846154 3.826,0.933846154 C4.0972,0.624230769 3.7764,0.215384615 3.4204,0.215384615 C3.3076,0.215384615 3.1916,0.256538462 3.0896,0.354230769" id="path-19"></path>
        <linearGradient x1="-7335.87181%" y1="64.9638238%" x2="3198.7931%" y2="43.6000637%" id="linearGradient-21">
            <stop stop-color="#0097B1" offset="0%"></stop>
            <stop stop-color="#005191" offset="100%"></stop>
        </linearGradient>
        <path d="M105.345184,1.59635849 C105.201918,2.39615094 105.662939,3.29632075 106.58498,3.17622642 C105.406898,6.66649057 102.41449,9.51649057 99.1458367,11.116434 C89.2057959,15.9266604 72.5642449,14.7167547 61.4560408,13.7767925 C52.9508571,13.0569434 44.4559592,11.9466981 36.0022041,11.0164151 C29.5255102,10.3062453 21.8501633,8.80667925 18.2020408,9.6064717 C17.9151429,9.66633962 17.6076735,9.82658491 17.2594286,9.97643396 L17.2495102,9.9864717 C15.7529388,10.6762075 13.7549388,11.9363019 11.8586939,13.2265094 C11.8282041,13.2465849 11.7977143,13.2666604 11.7668571,13.2964151 C11.736,13.3164906 11.7157959,13.336566 11.6849388,13.3566415 C10.1167347,14.536434 8.46697959,15.7463396 6.91971429,16.796717 C6.84808163,16.8469057 6.78673469,16.8866981 6.72502041,16.9368868 C6.69453061,16.946566 6.66404082,16.967 6.64346939,16.986717 C6.60232653,17.0164717 6.56118367,17.0465849 6.53069388,17.0763396 C6.40763265,17.136566 6.30477551,17.1867547 6.19236735,17.2365849 C5.02420408,17.7768302 4.08159184,17.9965849 3.41522449,17.9965849 C2.35983673,17.9965849 1.91902041,17.3466415 1.91902041,16.2564717 C1.91902041,14.9565849 2.58502041,13.0067547 3.57906122,10.6762075 C3.86632653,10.0262642 4.194,9.31645283 4.58338776,8.66650943 C6.75587755,8.72637736 8.86702041,8.07643396 9.86106122,6.17643396 C10.1376735,5.62650943 10.250449,5.08626415 10.250449,4.59620755 C10.250449,3.56626415 9.69685714,2.75643396 8.69289796,2.75643396 C7.9137551,2.75643396 6.85873469,3.24613208 5.63877551,4.43632075 C4.89085714,5.13609434 4.25534694,5.9165283 3.68155102,6.73675472 C3.90710204,6.50624528 4.11171429,6.27645283 4.30677551,6.06601887 C4.69653061,5.68637736 5.31110204,6.22662264 4.98306122,6.60626415 C4.98306122,6.60626415 3.71240816,8.0065283 1.79632653,10.0466981 C0.884204082,12.0166038 0.299755102,13.9667925 0.299755102,15.5566981 C0.299755102,17.5065283 1.1402449,18.867 3.08718367,18.867 C3.96844898,18.867 5.08555102,18.5966981 6.53069388,17.8865283 C6.56118367,17.8664528 6.59167347,17.8567736 6.62289796,17.8363396 C6.70444898,17.7965472 6.78673469,17.7567547 6.86865306,17.706566 L7.48359184,17.2968113 C7.48359184,17.2867736 7.4935102,17.2867736 7.4935102,17.2867736 C8.51840816,16.5966792 9.57416327,15.846717 10.629551,15.0763208 C12.0743265,14.0366981 13.5088163,12.956566 14.8305306,11.9266226 C15.4763265,11.4268868 17.1569388,10.526717 17.2495102,10.4966038 C22.2601224,8.70666038 27.0047755,10.8966792 35.9096327,11.8065283 C44.7428571,12.7264151 52.8277959,14.0764906 61.3844082,14.8067358 C72.6667347,15.7269811 89.3494286,16.7264528 99.5249388,11.836283 C104.402939,9.46630189 107.138939,5.14649057 107.599959,2.52628302 C107.814857,1.34613208 107.569102,0.476433962 106.800612,0.356339623 C106.740367,0.345226415 106.679755,0.339849057 106.61951,0.339849057 C106.028082,0.339849057 105.475959,0.860735849 105.345184,1.59635849 M6.69453061,5.35620755 C9.14363265,2.26637736 9.74828571,4.38649057 9.03085714,5.79607547 C8.20102041,7.58601887 6.41755102,7.85632075 5.02420408,7.85632075 C5.52636735,6.98662264 6.0895102,6.17643396 6.69453061,5.35620755" id="path-22"></path>
        <linearGradient x1="-222.674488%" y1="54.0270219%" x2="99.1045541%" y2="49.2876494%" id="linearGradient-24">
            <stop stop-color="#0097B1" offset="0%"></stop>
            <stop stop-color="#005191" offset="100%"></stop>
        </linearGradient>
    </defs>
    <g id="Page-1" stroke="none" stroke-width="1" fill="none" fill-rule="evenodd">
        <g id="With-Font-diverso-Copy-3" transform="translate(-35.000000, -72.000000)">
            <g id="Group-25" transform="translate(35.000000, 72.000000)">
                <g id="Group-3">
                    <mask id="mask-2" fill="white">
                        <use xlink:href="#path-1"></use>
                    </mask>
                    <g id="Clip-2"></g>
                    <path d="M139.35724,0.3663 C139.16,0.3718 138.959844,0.494266667 138.935781,0.7271 C138.386354,9.60556667 132.86401,25.6333 129.121563,34.1227333 C127.128021,39.0019667 120.68,52.3189333 111.191354,63.9074333 C108.160573,67.6822667 100.766458,75.9975333 95.7527083,75.9975333 C91.8370833,75.9975333 91.0645313,70.3417 91.2271354,64.6341667 C91.389375,58.9163667 92.1622917,53.1476 92.9964583,47.4298 C93.708125,43.0521667 95.2543229,34.5110333 97.0746875,30.5737667 C97.3495833,30.0212 96.5766667,29.6325333 96.3017708,30.1847333 C91.9996875,40.1166333 83.2839583,49.8234 78.32125,53.1985667 C76.663125,54.3139667 75.2292188,54.9270333 74.1817708,54.9270333 C72.80875,54.9270333 72.0354688,53.9249333 72.0354688,51.7051333 C72.0354688,45.9367333 75.4016667,38.1733 77.3241146,33.2328333 C80.1416146,26.1855 84.2807292,17.8698667 88.7960938,10.7715667 C93.2101042,8.99176667 95.1934375,3.223 92.3865104,4.27643333 C90.6168229,5.44243333 88.1959896,8.77726667 86.9757292,10.4954667 C83.1213542,11.4363333 77.3853646,11.5998667 68.5066667,12.0501333 C60.0651042,12.4388 51.5732292,12.9297667 43.0809896,13.6557667 C31.8839063,14.6483333 15.3876042,16.4791 6.29526042,23.1377667 C1.93229167,26.3593 0,31.1872 0,33.8976 C0,35.1252 0.386458333,35.9535 1.159375,35.9535 C1.82036458,35.9535 2.38,35.2887333 2.38,34.4501667 C2.38,33.6218667 1.7696875,32.7932 0.88484375,33.0693 C1.43390625,29.3564333 3.86458333,25.9706333 6.7834375,23.8021667 C15.6723438,17.2560667 32.1580729,15.6504333 43.1929167,14.7095667 C51.6239063,13.9832 60.1161458,13.6557667 68.5573438,13.1545333 C75.0155729,12.7662333 82.0739063,12.4901333 86.2028125,11.5489 C81.9619792,17.6447333 77.8833854,25.0811 74.9550521,32.2919667 C72.9713542,37.4473 70.6529688,44.2691333 70.4896354,49.8234 C70.42875,53.6488333 71.4765625,55.7557 73.7953125,55.7557 C75.0666146,55.7557 76.663125,55.1422667 78.7073438,53.7614 C84.6063021,49.7104667 90.23,42.3874 93.9833854,36.2299667 C93.3727083,38.2242667 92.2239063,41.7222667 91.0645313,47.0411333 C89.7932292,52.7589333 88.9083854,58.6402667 89.0199479,64.6341667 C89.1821875,71.0911667 90.7761458,76.9501333 95.3582292,77 L95.4741667,77 C101.042813,76.9395 108.719844,68.0577333 111.689375,64.3478 C119.245729,55.3670333 125.205573,45.2103667 129.894479,34.4501667 C135.182396,22.4722667 139.321875,7.66186667 139.759375,0.7887 C139.79,0.510766667 139.594219,0.372533333 139.385677,0.3663 L139.35724,0.3663 Z M92.5494792,5.61623333 C92.1119792,7.22223333 91.5016667,8.38823333 89.6813021,9.44166667 C90.3419271,8.43956667 91.6642708,6.49623333 92.5494792,5.61623333 Z" id="Fill-1" fill="url(#linearGradient-3)" mask="url(#mask-2)"></path>
                </g>
                <g id="Group-6" transform="translate(135.000000, 35.000000)">
                    <mask id="mask-5" fill="white">
                        <use xlink:href="#path-4"></use>
                    </mask>
                    <g id="Clip-5"></g>
                    <path d="M5.30127869,1.98641304 C3.66101639,3.6051087 2.51413115,5.62552174 1.58868852,7.63595652 C0.662885246,9.7081087 0.0595081967,11.769913 0.0595081967,13.4503261 C0.0595081967,15.4603913 0.874229508,16.8628913 2.78570492,16.8628913 C3.66101639,16.8628913 4.74767213,16.5842391 6.16613115,15.8521304 C9.68757377,13.9658696 16.4484262,8.82115217 20.6432131,5.20273913 C21.0662623,4.85276087 21.4683934,4.50167391 21.8304918,4.17165217 C22.2131475,3.83202174 21.7201311,3.16163043 21.2271148,3.6051087 C21.1968197,3.62543478 21.176623,3.65647826 21.1463279,3.67717391 C18.1283607,6.41971739 9.416,13.4606739 5.84442623,15.1821087 C4.69754098,15.7390435 3.7717377,15.965587 3.11786885,15.965587 C2.08170492,15.965587 1.63881967,15.2955652 1.63881967,14.1717174 C1.63881967,12.8316739 2.29304918,10.8216087 3.27872131,8.41906522 C3.55029508,7.74904348 3.88245902,7.01730435 4.26439344,6.34728261 C6.38757377,6.409 8.4602623,5.73897826 9.44593443,3.78028261 C9.71786885,3.21336957 9.82822951,2.65643478 9.82822951,2.15123913 C9.82822951,1.08947826 9.28508197,0.254630435 8.29904918,0.254630435 C7.53445902,0.254630435 6.49829508,0.759456522 5.30127869,1.98641304 M6.33744262,2.93471739 C8.73147541,-0.250565217 9.33521311,1.93504348 8.63121311,3.38817391 C7.80603279,5.23341304 6.0655082,5.51206522 4.69754098,5.51206522 C5.19019672,4.6155 5.73370492,3.78028261 6.33744262,2.93471739" id="Fill-4" fill="url(#linearGradient-6)" mask="url(#mask-5)"></path>
                </g>
                <g id="Group-9" transform="translate(154.000000, 4.000000)">
                    <mask id="mask-8" fill="white">
                        <use xlink:href="#path-7"></use>
                    </mask>
                    <g id="Clip-8"></g>
                    <path d="M23.2268519,1.05296296 C15.3768025,5.53703704 8.82530864,19.2677778 5.35962963,27.7814815 C4.62030864,29.5992593 3.64182716,32.1203704 2.73280247,34.7962963 C2.56345679,35.3025926 2.39339506,35.8088889 2.23335802,36.3251852 C1.16501235,39.7037037 0.316135802,43.1651852 0.316135802,45.6548148 C0.316135802,48.1240741 1.24485185,49.9118519 3.62177778,49.9118519 C7.96604938,49.9118519 15.2769136,43.4437037 20.0411481,38.6914815 C20.0411481,38.6807407 20.0411481,38.6807407 20.0511728,38.6707407 C21.329321,37.3892593 22.4280988,36.2218519 23.2268519,35.3437037 C23.287,35.2918519 23.3367654,35.1781481 23.3367654,35.0648148 C23.3367654,34.8374074 23.126963,34.6722222 22.9074938,34.6722222 C22.8473457,34.6722222 22.7478148,34.6722222 22.6375432,34.7855556 C22.2680617,35.1781481 21.8488148,35.632963 21.3891111,36.1185185 C17.0247901,40.7162963 8.67565432,48.8992593 3.73169136,48.8992593 C2.27345679,48.8992593 1.67448148,47.9485185 1.67448148,46.3781481 C1.67448148,43.6403704 3.13235802,38.877037 4.65074074,34.7855556 C13.6990988,27.44 27.4014198,12.5418519 28.8098889,4.35888889 C28.8596543,3.91481481 28.9194444,3.52222222 28.9194444,3.12962963 C28.9194444,1.11481481 27.8911975,0.0511111111 26.3126667,0.0511111111 C25.4541235,0.0511111111 24.3653704,0.381481481 23.2268519,1.05296296 Z M7.03733333,28.5148148 C10.1732716,20.3837037 16.9449506,6.71481481 23.8261852,2.11740741 C24.8547901,1.44555556 25.7738395,1.11481481 26.4830864,1.11481481 C27.5113333,1.11481481 28.100642,1.83851852 28.100642,3.18148148 C28.100642,10.9196296 13.369358,26.2725926 5.19995062,33.2155556 L7.03733333,28.5148148 Z" id="Fill-7" fill="url(#linearGradient-9)" mask="url(#mask-8)"></path>
                </g>
                <g id="Group-12" transform="translate(172.000000, 35.000000)">
                    <mask id="mask-11" fill="white">
                        <use xlink:href="#path-10"></use>
                    </mask>
                    <g id="Clip-11"></g>
                    <path d="M3.102,4.99652174 C2.61693548,5.80106522 2.16167742,6.66658696 1.77596774,7.54319565 C1.76603226,7.55317391 1.76603226,7.55317391 1.76603226,7.5638913 C0.884967742,9.55326087 0.310483871,11.6154348 0.310483871,13.2851304 C0.310483871,15.5738478 1.16209677,16.8628913 3.04274194,16.8628913 C7.10103226,16.8628913 14.5249677,10.7081522 18.7514516,6.92454348 C20.2261613,5.59447826 21.3052258,4.56413043 21.7207419,4.17165217 C21.9584839,3.95508696 21.8499032,3.6051087 21.6316774,3.49165217 C21.6118065,3.48093478 21.5922903,3.47095652 21.5727742,3.48093478 C21.5330323,3.47095652 21.4837097,3.46023913 21.4439677,3.47095652 C21.3648387,3.47095652 21.2757742,3.51234783 21.1867097,3.6051087 C20.9493226,3.82167391 20.6221613,4.12028261 20.2165806,4.49169565 C20.0781935,4.6155 19.9195806,4.75963043 19.7613226,4.90376087 C19.4543871,5.18241304 19.1176452,5.4813913 18.7514516,5.8213913 C14.5941613,9.54291304 7.02225806,15.965587 3.36954839,15.965587 C2.29048387,15.965587 1.86467742,15.3469348 1.86467742,14.0689783 C1.86467742,10.4295 6.36864516,1.26465217 8.51648387,1.26465217 C9.00190323,1.26465217 9.21941935,1.70776087 9.21941935,2.26506522 C9.21941935,2.88334783 8.8926129,3.66645652 8.35858065,4.33721739 C8.04170968,4.78032609 8.62541935,5.34723913 9.00190323,4.89341304 C9.70448387,4.05819565 10.0213548,3.11026087 10.0213548,2.26506522 C10.0213548,1.08947826 9.43693548,0.254630435 8.35858065,0.254630435 C6.73483871,0.254630435 4.71545161,2.32641304 3.102,4.99652174" id="Fill-10" fill="url(#linearGradient-12)" mask="url(#mask-11)"></path>
                </g>
                <g id="Group-15" transform="translate(191.000000, 35.000000)">
                    <mask id="mask-14" fill="white">
                        <use xlink:href="#path-13"></use>
                    </mask>
                    <g id="Clip-14"></g>
                    <path d="M1.38672131,5.76292683 C1.36652459,5.89573171 1.35642623,6.02817073 1.35642623,6.17085366 C1.30665574,6.41634146 1.34632787,6.62012195 1.38672131,6.855 C1.39718033,6.88536585 1.39718033,6.91646341 1.40691803,6.94682927 C0.863770492,8.11060976 0.370754098,9.32487805 0.149311475,10.6617073 C-0.232983607,13.3660976 0.752688525,14.9173171 2.33236066,14.9173171 C3.25816393,14.9173171 4.46563934,14.3663415 5.61216393,13.0906098 C6.3767541,12.2026829 7.08111475,11.2126829 7.73462295,10.212439 C10.3006885,10.0496341 12.7553115,9.32487805 15.0992131,8.3345122 C16.950459,7.52817073 18.701082,6.54878049 20.351082,5.38536585 C20.844459,5.03817073 21.3371148,4.68109756 21.8099344,4.29365854 C21.9707869,4.1297561 21.9707869,3.85463415 21.8705246,3.68085366 C21.6992131,3.51768293 21.428,3.51768293 21.2664262,3.62963415 C21.1257705,3.74231707 20.9851148,3.85463415 20.844459,3.96658537 C18.9827541,5.41573171 16.9003279,6.63073171 14.7775082,7.55926829 C12.6445902,8.44682927 10.461541,9.1104878 8.22763934,9.32487805 C9.58659016,6.89560976 10.0792459,4.95658537 10.0792459,3.51768293 C10.0792459,1.25195122 8.72101639,0.201219512 7.08111475,0.201219512 C4.71665574,0.201219512 1.68859016,2.25256098 1.38672131,5.76292683 M2.41314754,4.8545122 C3.15754098,2.43621951 5.28036066,0.976463415 6.9707541,0.976463415 C8.22763934,0.976463415 9.26416393,1.80329268 9.26416393,3.62963415 C9.26416393,4.95658537 8.72101639,6.89560976 7.30255738,9.43719512 C6.09508197,9.43719512 4.89770492,9.32487805 3.86190164,8.88621951 C3.42911475,8.72268293 3.09695082,8.44682927 2.8257377,8.11060976 C3.36852459,6.8345122 4.13311475,5.6202439 5.1195082,4.62 C5.57213115,4.07890244 4.94819672,3.55865854 4.31416393,3.45658537 C4.29396721,3.44597561 4.27413115,3.43609756 4.25429508,3.44597561 C4.21390164,3.43609756 4.16377049,3.4254878 4.12337705,3.43609756 C3.99209836,3.41560976 3.86190164,3.4254878 3.75118033,3.46682927 C3.41901639,3.76280488 3.1272459,4.0997561 2.87586885,4.44658537 C2.65442623,4.74219512 2.45318033,5.03817073 2.28186885,5.34439024 C2.32262295,5.18085366 2.36265574,5.01841463 2.41314754,4.8545122 M1.83934426,10.9884146 C2.01065574,10.3247561 2.222,9.66146341 2.44308197,8.99817073 C2.76514754,9.27365854 3.14744262,9.49792683 3.5297377,9.66146341 C4.5662623,10.1004878 5.66265574,10.2735366 6.74895082,10.2735366 C6.26639344,11.1003659 5.71278689,11.8763415 5.05891803,12.5908537 C4.13311475,13.539878 3.3187541,13.9785366 2.76514754,13.9785366 C1.78921311,13.9785366 1.40691803,12.815122 1.83934426,10.9884146" id="Fill-13" fill="url(#linearGradient-15)" mask="url(#mask-14)"></path>
                </g>
                <g id="Group-18" transform="translate(207.000000, 36.000000)">
                    <mask id="mask-17" fill="white">
                        <use xlink:href="#path-16"></use>
                    </mask>
                    <g id="Clip-17"></g>
                    <path d="M21.823617,0.184066667 C20.0788298,0.7975 15.9030319,4.6739 14.1582447,6.1776 C12.6420745,7.5075 11.1772872,8.83703333 9.71287234,10.2281667 C10.4400532,8.72483333 12.2470213,5.23673333 11.6866489,3.68206667 C11.5094149,3.18083333 10.9490426,2.45483333 10.5539894,2.7412 C7.11617021,5.12416667 4.24989362,8.44836667 3.17941489,9.6657 C3.79265957,8.00873333 5.71393617,3.0173 5.99430851,1.73873333 C6.16074468,1.07396667 4.58164894,1.51396667 4.02090426,2.0152 C3.97920213,2.25023333 3.83398936,2.68986667 3.64744681,3.24206667 C3.5018617,3.6619 3.325,4.14223333 3.13808511,4.664 C2.32787234,6.853 1.21643617,9.625 0.926010638,10.3407333 C0.417021277,11.8341667 -0.486648936,13.5527333 0.478829787,14.0026333 C0.811702128,14.1045667 1.20638298,14.2171333 1.32031915,13.8284667 C1.82930851,12.8366333 2.44218085,11.7828333 3.17941489,10.8313333 C4.13521277,9.6657 8.28978723,5.25726667 10.148883,4.0194 C10.0554255,4.31603333 8.4662766,9.02146667 8.24845745,9.7273 C8.01984043,10.5042667 7.29303191,12.3354 7.90553191,12.7750333 C8.1862766,12.9389333 8.52882979,12.8876 8.69489362,12.6624667 C9.765,11.1694 13.1510638,8.00873333 14.6154787,6.67883333 C15.9659574,5.45123333 20.0162766,1.85093333 21.7614362,1.18653333 C21.3667553,1.90226667 20.9199468,2.8435 20.8056383,2.9557 C19.1226596,6.40273333 16.9731383,10.7191333 15.4569681,14.4932333 C14.8336702,15.9357 13.9921809,18.3806333 13.9921809,20.0984667 C13.9921809,21.2032333 14.3868617,21.9809333 15.4569681,21.9809333 C16.6410106,22.0421667 18.6661702,19.9859 20.0162766,18.7689333 C23.8800532,15.1785333 28.5544149,10.2487 31.6079787,6.97583333 C33.5501064,4.88913333 34.8380319,3.45693333 34.8380319,3.45693333 C35.1705319,3.06863333 34.5476064,2.51606667 34.1525532,2.90436667 C33.9548404,3.1196 33.7474468,3.35463333 33.5188298,3.5904 C29.5511702,7.93723333 22.9350532,15.0051 19.5180851,18.2163667 C16.9210106,20.6510333 15.3426596,21.8166667 15.3426596,20.4361667 C15.3426596,19.5976 15.8516489,17.9303667 17.0874468,15.1070333 C19.0087234,10.6678 20.8685638,7.3953 22.3843617,3.62046667 C22.9034043,2.2396 23.377766,0.1408 22.1557447,0.1408 C22.0563298,0.1408 21.946117,0.154733333 21.823617,0.184066667" id="Fill-16" fill="url(#linearGradient-18)" mask="url(#mask-17)"></path>
                </g>
                <g id="Group-21" transform="translate(238.000000, 38.000000)">
                    <mask id="mask-20" fill="white">
                        <use xlink:href="#path-19"></use>
                    </mask>
                    <g id="Clip-20"></g>
                    <path d="M3.0896,0.354230769 C2.8772,0.58 2.6544,0.826538462 2.4088,1.07384615 C1.6392,2.15692308 1.0028,3.32653846 0.4228,4.48538462 C0.4004,4.52807692 0.3784,4.58192308 0.356,4.625 C2.4424,2.43615385 3.826,0.933846154 3.826,0.933846154 C4.0972,0.624230769 3.7764,0.215384615 3.4204,0.215384615 C3.3076,0.215384615 3.1916,0.256538462 3.0896,0.354230769" id="Fill-19" fill="url(#linearGradient-21)" mask="url(#mask-20)"></path>
                </g>
                <g id="Group-24" transform="translate(237.000000, 33.000000)">
                    <mask id="mask-23" fill="white">
                        <use xlink:href="#path-22"></use>
                    </mask>
                    <g id="Clip-23"></g>
                    <path d="M105.345184,1.59635849 C105.201918,2.39615094 105.662939,3.29632075 106.58498,3.17622642 C105.406898,6.66649057 102.41449,9.51649057 99.1458367,11.116434 C89.2057959,15.9266604 72.5642449,14.7167547 61.4560408,13.7767925 C52.9508571,13.0569434 44.4559592,11.9466981 36.0022041,11.0164151 C29.5255102,10.3062453 21.8501633,8.80667925 18.2020408,9.6064717 C17.9151429,9.66633962 17.6076735,9.82658491 17.2594286,9.97643396 L17.2495102,9.9864717 C15.7529388,10.6762075 13.7549388,11.9363019 11.8586939,13.2265094 C11.8282041,13.2465849 11.7977143,13.2666604 11.7668571,13.2964151 C11.736,13.3164906 11.7157959,13.336566 11.6849388,13.3566415 C10.1167347,14.536434 8.46697959,15.7463396 6.91971429,16.796717 C6.84808163,16.8469057 6.78673469,16.8866981 6.72502041,16.9368868 C6.69453061,16.946566 6.66404082,16.967 6.64346939,16.986717 C6.60232653,17.0164717 6.56118367,17.0465849 6.53069388,17.0763396 C6.40763265,17.136566 6.30477551,17.1867547 6.19236735,17.2365849 C5.02420408,17.7768302 4.08159184,17.9965849 3.41522449,17.9965849 C2.35983673,17.9965849 1.91902041,17.3466415 1.91902041,16.2564717 C1.91902041,14.9565849 2.58502041,13.0067547 3.57906122,10.6762075 C3.86632653,10.0262642 4.194,9.31645283 4.58338776,8.66650943 C6.75587755,8.72637736 8.86702041,8.07643396 9.86106122,6.17643396 C10.1376735,5.62650943 10.250449,5.08626415 10.250449,4.59620755 C10.250449,3.56626415 9.69685714,2.75643396 8.69289796,2.75643396 C7.9137551,2.75643396 6.85873469,3.24613208 5.63877551,4.43632075 C4.89085714,5.13609434 4.25534694,5.9165283 3.68155102,6.73675472 C3.90710204,6.50624528 4.11171429,6.27645283 4.30677551,6.06601887 C4.69653061,5.68637736 5.31110204,6.22662264 4.98306122,6.60626415 C4.98306122,6.60626415 3.71240816,8.0065283 1.79632653,10.0466981 C0.884204082,12.0166038 0.299755102,13.9667925 0.299755102,15.5566981 C0.299755102,17.5065283 1.1402449,18.867 3.08718367,18.867 C3.96844898,18.867 5.08555102,18.5966981 6.53069388,17.8865283 C6.56118367,17.8664528 6.59167347,17.8567736 6.62289796,17.8363396 C6.70444898,17.7965472 6.78673469,17.7567547 6.86865306,17.706566 L7.48359184,17.2968113 C7.48359184,17.2867736 7.4935102,17.2867736 7.4935102,17.2867736 C8.51840816,16.5966792 9.57416327,15.846717 10.629551,15.0763208 C12.0743265,14.0366981 13.5088163,12.956566 14.8305306,11.9266226 C15.4763265,11.4268868 17.1569388,10.526717 17.2495102,10.4966038 C22.2601224,8.70666038 27.0047755,10.8966792 35.9096327,11.8065283 C44.7428571,12.7264151 52.8277959,14.0764906 61.3844082,14.8067358 C72.6667347,15.7269811 89.3494286,16.7264528 99.5249388,11.836283 C104.402939,9.46630189 107.138939,5.14649057 107.599959,2.52628302 C107.814857,1.34613208 107.569102,0.476433962 106.800612,0.356339623 C106.740367,0.345226415 106.679755,0.339849057 106.61951,0.339849057 C106.028082,0.339849057 105.475959,0.860735849 105.345184,1.59635849 M6.69453061,5.35620755 C9.14363265,2.26637736 9.74828571,4.38649057 9.03085714,5.79607547 C8.20102041,7.58601887 6.41755102,7.85632075 5.02420408,7.85632075 C5.52636735,6.98662264 6.0895102,6.17643396 6.69453061,5.35620755" id="Fill-22" fill="url(#linearGradient-24)" mask="url(#mask-23)"></path>
                </g>
            </g>
        </g>
    </g>
</svg>